# Made in Blockbench 5.0.4
mtllib ai_model.mtl

o cube
v 0.25 0.5 0.25
v 0.25 0.5 -0.25
v 0.25 0 0.25
v 0.25 0 -0.25
v -0.25 0.5 -0.25
v -0.25 0.5 0.25
v -0.25 0 -0.25
v -0.25 0 0.25
vt 0.375 0.75
vt 0.5 0.75
vt 0.5 0.5
vt 0.375 0.5
vt 0.25 0.75
vt 0.375 0.75
vt 0.375 0.5
vt 0.25 0.5
vt 0.125 0.75
vt 0.25 0.75
vt 0.25 0.5
vt 0.125 0.5
vt 0 0.75
vt 0.125 0.75
vt 0.125 0.5
vt 0 0.5
vt 0.125 1
vt 0.25 1
vt 0.25 0.75
vt 0.125 0.75
vt 0.25 1
vt 0.375 1
vt 0.375 0.75
vt 0.25 0.75
vn 0 0 -1
vn 1 0 0
vn 0 0 1
vn -1 0 0
vn 0 1 0
vn 0 -1 0
usemtl m_8e4e11cd-b581-8849-f6d6-1b9a3e83eef9
f 4/4/1 7/3/1 5/2/1 2/1/1
f 3/8/2 4/7/2 2/6/2 1/5/2
f 8/12/3 3/11/3 1/10/3 6/9/3
f 7/16/4 8/15/4 6/14/4 5/13/4
f 6/20/5 1/19/5 2/18/5 5/17/5
f 7/24/6 4/23/6 3/22/6 8/21/6