# Made in Blockbench 5.0.4
mtllib ai_model.mtl

o plane
v 0.26516504294495524 0.6249999999999997 0.2651650429449559
v 0.26516504294495546 -0.12500000000000033 0.2651650429449547
v -0.26516504294495546 0.6250000000000003 -0.2651650429449547
v -0.26516504294495524 -0.12499999999999967 -0.2651650429449559
vt 0 1
vt 0 0
vt 1 0
vt 1 1
vn 0.7071067811865475 0 -0.7071067811865476
usemtl m_f2cec2fd-893f-0cb4-df27-eab1e9daaccd
f 1/1/1 2/2/1 4/3/1 3/4/1
o plane
v 0.2651650429449553 0.6250000000000004 -0.2651650429449547
v 0.2651650429449554 -0.12499999999999956 -0.2651650429449559
v -0.2651650429449554 0.6249999999999996 0.2651650429449559
v -0.2651650429449553 -0.12500000000000044 0.2651650429449547
vt 0 1
vt 0 0
vt 1 0
vt 1 1
vn -0.7071067811865475 0 -0.7071067811865476
usemtl m_f2cec2fd-893f-0cb4-df27-eab1e9daaccd
f 5/5/2 6/6/2 8/7/2 7/8/2