# Blender 4.5.4 LTS
# www.blender.org
mtllib ai_model.mtl
o ai_model
v 0.054239 0.022842 -0.184222
v -0.145034 0.094122 0.161735
v -0.124727 -0.001414 -0.044913
v -0.188904 0.269227 0.199813
v 0.022855 0.259760 0.317459
v 0.001186 0.124869 0.239609
v 0.073992 0.046154 0.167247
v -0.030325 -0.012522 0.057758
v 0.102032 0.004886 0.063513
v 0.008934 0.016986 -0.185042
v 0.099307 -0.013677 -0.046658
v -0.241168 0.134042 0.049029
v -0.257951 0.340572 0.075943
v -0.283795 0.250338 0.008192
v -0.223413 0.137139 -0.159396
v -0.147679 0.443310 0.166694
v 0.012557 0.383844 0.254663
v -0.020110 0.547430 0.059848
v 0.066372 0.465969 0.201434
v -0.014812 0.547785 -0.092176
v -0.134482 0.507015 -0.112212
v -0.252914 0.357005 -0.124284
v -0.159328 0.267827 -0.274071
v -0.055341 0.104146 -0.267198
v -0.044906 0.157664 -0.296609
v -0.057308 0.484463 -0.229211
v 0.143305 0.378011 0.229482
v 0.127145 0.226462 0.258499
v 0.222973 0.406382 0.116081
v 0.265329 0.203646 0.108620
v 0.276354 0.351565 -0.020758
v 0.269911 0.285250 -0.112192
v 0.194467 0.494245 -0.032279
v 0.211137 0.438178 -0.142884
v 0.114684 0.532607 0.025646
v 0.202385 0.265120 0.224795
v 0.039199 0.523945 -0.159233
v 0.041038 0.429515 -0.272858
v 0.116380 0.461501 -0.234091
v 0.047121 0.549487 -0.199451
v 0.050259 0.519807 -0.195760
v 0.067102 0.467293 -0.222401
v 0.189599 0.324088 -0.248996
v 0.097596 0.413118 -0.282168
v 0.122598 0.362720 -0.279686
v 0.145085 0.151823 -0.257398
v 0.232750 0.207477 -0.196240
v 0.116189 0.507776 -0.310147
v 0.067973 0.486492 -0.296507
v 0.075827 0.523415 -0.320119
v 0.027203 0.511451 -0.249235
v -0.032369 0.456604 -0.365096
v 0.104063 0.421331 -0.330140
v 0.064464 0.375826 -0.320403
v 0.067786 0.403795 -0.384590
v -0.004434 0.418100 -0.411391
v 0.077909 0.303464 -0.327968
v 0.109908 0.237728 -0.319149
v 0.120537 0.305640 -0.379587
v 0.076342 0.332281 -0.362571
v 0.072124 0.242770 -0.330398
v 0.274951 0.172863 -0.018391
v 0.072317 0.201697 -0.315941
v 0.061398 0.140830 -0.280986
v 0.093517 0.071022 -0.232952
v 0.080408 0.077823 -0.296488
v 0.065039 0.138108 -0.396385
v 0.026198 0.325505 -0.407510
v -0.011295 0.229041 -0.446106
v 0.067965 0.304557 -0.402258
v 0.136232 0.144733 0.227817
v 0.157168 0.089659 0.167068
v 0.232793 0.075773 -0.021069
v 0.125257 0.014082 -0.126389
v 0.131859 0.013621 -0.130598
v 0.278570 0.239160 0.026322
v 0.116554 0.026319 -0.134279
v -0.027192 -0.010717 -0.249754
v 0.044049 0.017139 -0.243467
v -0.034331 0.068266 -0.326181
v -0.036066 0.038005 -0.270731
v 0.029799 0.058322 -0.226078
v -0.074592 0.086578 -0.314642
v -0.013247 0.114155 -0.286212
v -0.020526 0.085211 -0.302322
v -0.044887 0.121481 -0.375677
vn -0.4736 -0.2988 0.8285
vn -0.3547 -0.4240 0.8333
vn -0.1804 -0.7509 0.6353
vn -0.1861 -0.7812 0.5959
vn -0.4608 -0.8220 0.3347
vn 0.3024 -0.8560 0.4193
vn 0.1032 -0.9143 0.3916
vn 0.2129 -0.8877 0.4082
vn -0.0550 -0.9968 -0.0573
vn -0.0552 -0.9818 -0.1815
vn -0.7744 -0.3135 0.5495
vn -0.8958 -0.1282 0.4255
vn -0.7192 0.1591 0.6763
vn -0.8518 0.0804 0.5177
vn -0.6261 -0.7294 0.2757
vn -0.9256 -0.3689 -0.0843
vn -0.9548 -0.2294 -0.1891
vn -0.9564 -0.2105 -0.2024
vn -0.7815 -0.6193 -0.0758
vn -0.4584 0.2697 0.8468
vn -0.6143 0.2854 0.7356
vn -0.1774 0.8023 0.5700
vn -0.8524 -0.1351 0.5051
vn -0.0343 0.9994 0.0011
vn -0.1783 0.9840 -0.0039
vn -0.3211 0.9470 -0.0090
vn -0.5381 0.8269 0.1634
vn -0.7278 0.6753 0.1198
vn -0.9031 0.4292 0.0148
vn -0.7857 0.6178 0.0309
vn -0.8483 0.5292 0.0205
vn -0.9610 0.2764 -0.0015
vn -0.9540 -0.0820 -0.2884
vn -0.8562 -0.0325 -0.5156
vn -0.4615 -0.7369 -0.4940
vn -0.5555 -0.3147 -0.7697
vn -0.4108 -0.7672 -0.4926
vn -0.6438 0.5510 -0.5309
vn -0.6281 0.4301 -0.6485
vn -0.1893 0.6184 0.7627
vn 0.4282 0.5897 0.6847
vn 0.3429 0.5443 0.7656
vn 0.1885 0.4442 0.8759
vn -0.3190 0.4067 0.8560
vn 0.1879 0.4559 0.8700
vn 0.5151 0.1079 0.8503
vn 0.5146 0.7453 0.4240
vn 0.5401 0.6448 0.5408
vn 0.1988 0.8971 0.3947
vn 0.9384 0.1853 0.2918
vn 0.8550 0.5014 0.1327
vn 0.8654 0.4873 -0.1166
vn 0.5907 0.7390 0.3241
vn 0.1109 0.9938 0.0062
vn 0.7925 0.1438 0.5927
vn 0.8653 0.4431 0.2343
vn 0.3434 0.1412 0.9285
vn 0.2977 0.9319 -0.2071
vn 0.2772 0.9538 -0.1158
vn -0.0874 0.9143 -0.3954
vn -0.2516 0.9059 -0.3406
vn -0.2546 0.3096 -0.9161
vn 0.5101 0.7957 -0.3265
vn 0.4087 0.8626 -0.2981
vn 0.7825 0.4442 0.4363
vn -0.5973 -0.1609 -0.7857
vn -0.1661 0.4033 -0.8999
vn 0.6921 0.3555 -0.6282
vn 0.6526 0.4463 -0.6123
vn 0.5042 0.2089 -0.8379
vn 0.5167 0.2476 -0.8196
vn 0.5124 0.2355 -0.8258
vn 0.8703 0.1043 -0.4813
vn 0.8649 0.2444 -0.4384
vn 0.9139 0.2953 -0.2786
vn 0.2182 0.8339 0.5069
vn 0.1182 0.7646 -0.6335
vn -0.7654 0.0978 -0.6361
vn -0.8804 0.4615 0.1092
vn -0.8366 0.1809 -0.5170
vn -0.9698 0.2385 0.0504
vn 0.2021 0.8414 0.5013
vn 0.9623 -0.2313 -0.1432
vn -0.1593 -0.2509 -0.9548
vn -0.2336 -0.2765 -0.9322
vn -0.9486 -0.1682 -0.2682
vn 0.9146 0.0468 -0.4016
vn -0.9176 0.3916 0.0679
vn 0.0579 -0.9899 0.1297
vn 0.1457 0.7620 -0.6309
vn 0.2942 0.1582 -0.9426
vn 0.4436 -0.4657 -0.7657
vn 0.4506 -0.5742 -0.6836
vn -0.5817 0.5224 0.6234
vn 0.3674 -0.9199 -0.1367
vn 0.8750 0.4436 0.1939
vn 0.3031 0.9317 0.2004
vn -0.5985 0.3687 -0.7112
vn 0.3398 0.8054 -0.4858
vn -0.5014 0.5747 0.6467
vn 0.8445 -0.1701 -0.5078
vn 0.0705 -0.9158 -0.3954
vn 0.5917 0.1918 -0.7830
vn -0.9424 -0.1435 -0.3023
vn 0.5236 0.2649 -0.8097
vn 0.5505 0.1580 -0.8198
vn 0.6924 0.4161 0.5894
vn 0.5798 0.6388 0.5057
vn -0.9853 0.1067 0.1335
vn -0.9871 0.0887 0.1334
vn -0.0327 -0.9156 -0.4007
vn -0.2298 0.0608 -0.9713
vn 0.9500 -0.1738 -0.2593
vn 0.6188 -0.1221 -0.7760
vn 0.6815 -0.5728 -0.4556
vn 0.7446 -0.1608 -0.6479
vn 0.3562 -0.4448 -0.8217
vn 0.6408 -0.6294 0.4396
vn 0.2945 -0.5151 -0.8049
vn 0.2230 0.2958 -0.9289
vn 0.8827 -0.3755 -0.2825
vn 0.1281 -0.6704 -0.7308
vn 0.3081 0.4924 -0.8140
vn -0.9971 0.0212 0.0735
vn 0.2881 -0.7178 -0.6338
vn 0.3135 0.8228 -0.4739
vn -0.6638 -0.0408 0.7468
vn 0.3402 0.4748 -0.8116
vn 0.6987 -0.7147 -0.0320
vn 0.4877 -0.7607 0.4284
vn 0.5554 -0.1038 -0.8251
vn 0.2535 0.2728 -0.9281
vn -0.2415 -0.0526 -0.9690
vn -0.0308 -0.3320 -0.9428
vn -0.0567 -0.2709 -0.9609
vn -0.2185 0.3366 -0.9160
vn 0.2926 -0.5128 0.8071
vn 0.1557 -0.5866 0.7948
vn 0.1308 -0.3357 0.9329
vn 0.3350 -0.6377 0.6936
vn 0.7153 -0.3771 0.5884
vn 0.4189 -0.7991 0.4312
vn 0.7152 -0.3783 0.5877
vn 0.5013 -0.2547 0.8269
vn 0.7627 -0.5459 0.3469
vn 0.9031 -0.3967 0.1646
vn 0.5957 -0.7473 0.2946
vn 0.5352 -0.8351 0.1275
vn 0.1217 -0.9793 0.1620
vn 0.5671 -0.8176 -0.1001
vn 0.9986 -0.0535 -0.0040
vn 0.9978 -0.0076 -0.0662
vn 0.9981 -0.0605 0.0127
vn 0.9866 -0.1246 0.1050
vn 0.9740 0.1035 0.2014
vn 0.9979 -0.0075 -0.0649
vn 0.6856 -0.5818 -0.4376
vn 0.7778 -0.3771 -0.5028
vn -0.5929 -0.7765 -0.2134
vn 0.1684 -0.9158 0.3645
vn 0.1228 -0.9490 -0.2904
vn 0.4306 -0.2524 -0.8665
vn -0.6263 0.0559 0.7776
vn -0.0929 -0.9950 -0.0367
vn 0.1147 -0.9348 0.3361
vn 0.3619 -0.9318 0.0274
vn 0.3138 -0.6454 -0.6964
vn -0.8801 0.0433 0.4728
vn -0.5288 0.7173 0.4537
vn -0.5971 0.2230 0.7706
vn -0.4657 -0.6367 -0.6145
vn 0.0696 0.6368 -0.7679
vn 0.3942 0.0679 -0.9165
vn 0.2680 -0.6028 -0.7515
vn -0.7961 -0.0931 -0.5980
vn 0.1788 -0.9737 -0.1411
vn 0.7894 -0.5716 -0.2241
vn 0.1188 0.4210 -0.8993
vn -0.1667 0.3340 -0.9277
vn 0.1321 0.4248 -0.8956
vn 0.7413 -0.6682 -0.0632
vn 0.4081 -0.7920 -0.4541
vn 0.3916 0.4696 -0.7913
vn 0.0647 0.8751 0.4796
vn -0.1660 0.5856 0.7934
vn 0.8803 -0.4275 -0.2058
vn -0.0289 -0.6968 -0.7166
vn -0.9138 0.3174 0.2533
vn -0.1108 -0.9165 0.3843
vn 0.4514 -0.5179 0.7266
vn -0.1050 -0.7651 -0.6352
vn 0.9018 -0.1846 -0.3907
vn 0.9404 -0.0491 -0.3366
vn -0.9311 0.1316 0.3401
vn -0.5301 -0.3973 -0.7491
vn 0.2418 -0.5155 -0.8221
vn 0.3998 0.2242 -0.8888
vn -0.1265 0.9307 0.3432
vt 0.203106 0.045530
vt 0.178233 0.088015
vt 0.135206 0.010640
vt 0.122340 0.051588
vt 0.093999 0.080710
vt 0.118952 0.150543
vt 0.177349 0.182768
vt 0.085938 0.143311
vt 0.101950 0.223186
vt 0.132866 0.246685
vt 0.776102 0.733347
vt 0.825314 0.785022
vt 0.778076 0.824219
vt 0.721680 0.796875
vt 0.853385 0.673513
vt 0.703722 0.709957
vt 0.748374 0.650737
vt 0.119316 0.780845
vt 0.148695 0.679080
vt 0.224472 0.794873
vt 0.293945 0.805420
vt 0.290039 0.761719
vt 0.558910 0.446682
vt 0.558103 0.498164
vt 0.491943 0.497314
vt 0.502240 0.434507
vt 0.559797 0.350666
vt 0.616978 0.290360
vt 0.668945 0.335938
vt 0.639429 0.383242
vt 0.627961 0.470192
vt 0.733752 0.305446
vt 0.743833 0.237148
vt 0.774414 0.334717
vt 0.667726 0.271175
vt 0.779785 0.159424
vt 0.725830 0.147461
vt 0.657715 0.166260
vt 0.752397 0.103504
vt 0.593808 0.694931
vt 0.656548 0.789295
vt 0.535380 0.802960
vt 0.472225 0.742802
vt 0.062012 0.471680
vt 0.096114 0.395594
vt 0.122635 0.468498
vt 0.172598 0.397881
vt 0.043945 0.389160
vt 0.077093 0.305824
vt 0.146857 0.293251
vt 0.389699 0.174343
vt 0.303335 0.127378
vt 0.394294 0.067789
vt 0.302979 0.175049
vt 0.465533 0.085559
vt 0.232257 0.129336
vt 0.252739 0.062360
vt 0.340973 0.042558
vt 0.296143 0.019043
vt 0.482255 0.008769
vt 0.512451 0.186768
vt 0.520853 0.081539
vt 0.586575 0.217685
vt 0.629689 0.121107
vt 0.640339 0.022067
vt 0.492087 0.599899
vt 0.547852 0.652344
vt 0.507568 0.666748
vt 0.469727 0.647760
vt 0.402171 0.619148
vt 0.452995 0.559947
vt 0.333984 0.660156
vt 0.303467 0.643555
vt 0.251006 0.658028
vt 0.208316 0.599416
vt 0.260334 0.539500
vt 0.317871 0.587402
vt 0.298584 0.570557
vt 0.310791 0.556641
vt 0.288086 0.536865
vt 0.216388 0.510246
vt 0.149503 0.515431
vt 0.190430 0.495605
vt 0.092248 0.554621
vt 0.113715 0.623631
vt 0.145264 0.671631
vt 0.341450 0.438590
vt 0.415681 0.470297
vt 0.293824 0.486686
vt 0.300293 0.517578
vt 0.208496 0.498291
vt 0.344971 0.547852
vt 0.404566 0.528700
vt 0.379841 0.389173
vt 0.429443 0.423096
vt 0.400879 0.359863
vt 0.094652 0.954641
vt 0.129883 0.943604
vt 0.103027 0.969971
vt 0.077637 0.945801
vt 0.053294 0.956347
vt 0.955752 0.520860
vt 0.949206 0.556088
vt 0.907526 0.541967
vt 0.943604 0.515381
vt 0.979760 0.442473
vt 0.989990 0.459717
vt 0.240234 0.963379
vt 0.219215 0.943878
vt 0.324609 0.950850
vt 0.143799 0.921875
vt 0.218829 0.930460
vt 0.129395 0.961670
vt 0.130452 0.981303
vt 0.052169 0.932677
vt 0.079787 0.866962
vt 0.130523 0.868875
vt 0.100098 0.494385
vt 0.042065 0.546000
vt 0.048694 0.465828
vt 0.022949 0.493408
vt 0.790964 0.349659
vt 0.821892 0.297067
vt 0.905495 0.261095
vt 0.824219 0.374268
vt 0.677490 0.666504
vt 0.642090 0.669434
vt 0.623572 0.632205
vt 0.693653 0.631693
vt 0.670436 0.547189
vt 0.737061 0.641846
vt 0.547363 0.603760
vt 0.607347 0.524879
vt 0.638428 0.482422
vt 0.675596 0.464817
vt 0.729004 0.474121
vt 0.704590 0.534424
vt 0.617427 0.845871
vt 0.638428 0.904933
vt 0.549298 0.859836
vt 0.146033 0.831086
vt 0.209229 0.823486
vt 0.263428 0.911621
vt 0.810582 0.852898
vt 0.679946 0.880772
vt 0.692383 0.801270
vt 0.869202 0.231176
vt 0.776367 0.309814
vt 0.808745 0.220269
vt 0.860107 0.138184
vt 0.653564 0.382080
vt 0.772931 0.366944
vt 0.727760 0.443775
vt 0.780305 0.469388
vt 0.780273 0.545898
vt 0.868619 0.398594
vt 0.938863 0.446275
vt 0.887506 0.486090
vt 0.974688 0.412778
vt 0.699707 0.062012
vt 0.658203 0.005127
vt 0.760986 0.000244
vt 0.810547 0.604248
vt 0.785748 0.551870
vt 0.852126 0.550125
vt 0.797852 0.422363
vt 0.868127 0.499947
vt 0.847168 0.425049
vt 0.000244 0.777344
vt 0.026181 0.767414
vt 0.007080 0.844482
vt 0.954131 0.842466
vt 0.924561 0.897705
vt 0.908952 0.813696
vt 0.885742 0.732666
vt 0.878868 0.861505
vt 0.868164 0.898682
vt 0.822998 0.883301
vt 0.917244 0.204563
vt 0.963867 0.188721
vt 0.934326 0.210449
vt 0.885492 0.967433
vt 0.965260 0.863513
vt 0.969871 0.978290
vt 0.989746 0.911377
vt 0.999756 0.971191
vt 0.983154 0.238037
vt 0.906982 0.342773
vt 0.918701 0.238037
vt 0.460693 0.154053
vt 0.488627 0.241205
vt 0.413319 0.205843
vt 0.419545 0.268433
vt 0.474795 0.351408
vt 0.421790 0.332676
vt 0.358356 0.320002
vt 0.455812 0.423862
vt 0.353188 0.232908
vt 0.213431 0.377751
vt 0.182022 0.318962
vt 0.269816 0.290479
vt 0.292992 0.356258
vt 0.197594 0.235670
vt 0.264471 0.207164
vt 0.211182 0.166504
vt 0.302246 0.219727
vt 0.334323 0.389838
vt 0.280926 0.402855
vt 0.281738 0.442871
vt 0.821874 0.152838
vt 0.689941 0.072998
vt 0.773485 0.022922
vt 0.905163 0.079338
vt 0.898926 0.099854
vt 0.906982 0.070557
vt 0.905029 0.039795
vt 0.650467 0.929240
vt 0.663818 0.876221
vt 0.686523 0.956299
vt 0.672607 0.988037
vt 0.655273 0.976318
vt 0.640625 0.934326
vt 0.063127 0.223477
vt 0.076195 0.165088
vt 0.107448 0.248722
vt 0.079346 0.255615
vt 0.336944 0.816440
vt 0.412850 0.857467
vt 0.303467 0.872314
vt 0.362305 0.792236
vt 0.311035 0.768066
vt 0.327542 0.751653
vt 0.423704 0.817065
vt 0.462728 0.870328
vt 0.482131 0.824846
vt 0.465820 0.933350
vt 0.475586 0.950928
vt 0.438854 0.914849
vt 0.433448 0.979981
vt 0.392530 0.939327
vt 0.380660 0.977401
vt 0.421531 0.875665
vt 0.373613 0.871305
vt 0.309326 0.878418
vt 0.963375 0.768635
vt 0.978027 0.804199
vt 0.967773 0.833496
vt 0.928711 0.766846
vt 0.973633 0.702637
vt 0.946289 0.731689
vt 0.949864 0.714181
vt 0.923340 0.760254
vt 0.894714 0.654833
vt 0.862549 0.621338
vt 0.891357 0.621582
vt 0.925293 0.623047
vt 0.943943 0.653028
vt 0.738531 0.975461
vt 0.731588 0.946015
vt 0.744243 0.893948
vt 0.779785 0.982910
vt 0.808437 0.949112
vt 0.702881 0.931641
vt 0.016113 0.663330
vt 0.097900 0.663330
vt 0.046143 0.721191
vt 0.924068 0.344421
vt 1.000000 0.372314
vt 0.945312 0.379395
vt 0.847900 0.941650
vt 0.835449 0.982910
vt 0.821045 0.982666
vt 0.829834 0.943115
s 1
usemtl m_b551da3f-2ab1-1810-b2b5-7135c70d9005
f 4/1/1 2/2/1 5/3/1
f 6/4/2 5/3/2 2/2/2
f 6/4/3 2/2/3 7/5/3
f 7/5/4 2/2/4 8/6/4
f 8/6/5 2/2/5 3/7/5
f 7/5/6 8/6/7 9/8/8
f 8/6/9 3/7/9 11/9/9
f 11/9/10 3/7/10 10/10/10
f 12/11/11 2/12/11 4/13/11
f 12/11/12 4/13/13 13/14/14
f 2/12/15 12/11/15 3/15/15
f 12/11/16 14/16/17 15/17/18
f 3/15/19 12/11/19 15/17/19
f 4/18/13 5/19/20 16/20/21
f 18/21/22 16/20/22 19/22/22
f 13/23/23 14/24/23 12/25/23
f 13/23/14 4/26/13 16/27/21
f 18/28/24 20/29/25 21/30/26
f 16/27/27 18/28/27 21/30/27
f 13/23/28 16/27/28 21/30/28
f 13/23/29 21/30/30 22/31/31
f 13/23/29 22/31/31 14/24/32
f 22/32/33 15/33/18 14/34/17
f 15/33/34 22/32/34 23/35/34
f 3/36/35 15/33/35 24/37/35
f 24/37/36 15/33/36 25/38/36
f 3/36/37 24/37/37 10/39/37
f 22/40/38 21/41/38 26/42/38
f 23/43/39 22/40/39 26/42/39
f 16/44/40 17/45/40 19/46/40
f 27/47/41 19/46/42 17/45/43
f 17/45/44 16/48/44 5/49/44
f 27/47/45 17/45/45 5/49/45
f 28/50/46 27/47/46 5/49/46
f 19/51/47 29/52/47 35/53/47
f 29/52/48 19/51/42 27/54/41
f 19/51/49 35/53/49 18/55/49
f 29/52/50 30/56/50 31/57/50
f 29/52/51 31/57/51 33/58/51
f 33/58/52 31/57/52 34/59/52
f 29/52/53 33/58/53 35/53/53
f 18/55/24 35/53/54 20/60/25
f 29/61/55 27/62/55 30/63/55
f 36/64/56 30/63/56 27/62/56
f 36/64/57 27/62/57 28/65/57
f 20/66/58 35/67/58 33/68/58
f 20/66/59 33/68/59 37/69/59
f 20/66/60 37/69/60 26/70/60
f 21/71/61 20/66/61 26/70/61
f 26/70/62 57/72/62 23/73/62
f 33/74/63 34/75/63 39/76/63
f 33/74/64 39/76/64 37/77/64
f 37/77/65 39/76/65 40/78/65
f 40/78/66 39/76/66 41/79/66
f 41/79/67 39/76/67 42/80/67
f 39/76/68 34/75/68 44/81/68
f 44/81/69 34/75/69 43/82/69
f 44/81/70 43/82/71 45/83/72
f 47/84/73 43/82/73 32/85/73
f 32/85/74 43/82/74 34/75/74
f 34/75/75 31/86/75 32/85/75
f 39/87/76 48/88/76 42/89/76
f 38/90/77 37/91/77 42/89/77
f 38/90/78 42/89/79 49/92/80
f 49/92/81 42/89/81 50/93/81
f 50/93/82 42/89/82 48/88/82
f 48/88/83 39/87/83 44/94/83
f 48/88/84 44/94/84 49/95/84
f 44/94/85 38/96/78 49/95/80
f 41/97/86 42/98/86 37/99/86
f 40/100/87 41/97/87 51/101/87
f 37/102/88 40/103/88 51/104/88
f 37/102/89 51/104/89 41/105/89
f 37/102/90 38/106/90 26/107/90
f 50/108/91 48/109/92 52/110/93
f 50/111/94 52/112/94 49/113/94
f 49/113/95 52/112/93 48/114/92
f 53/115/96 44/116/96 45/117/96
f 44/118/97 53/119/97 38/120/97
f 54/121/98 38/120/98 53/119/98
f 53/122/99 55/123/99 56/124/99
f 53/122/100 56/124/100 54/125/100
f 55/126/101 53/127/101 45/128/101
f 55/126/102 45/128/102 54/129/102
f 45/128/103 57/130/103 54/129/103
f 38/131/104 54/129/104 57/130/104
f 57/130/105 45/128/72 43/132/71
f 57/130/106 43/132/106 58/133/106
f 57/130/107 58/133/107 59/134/107
f 57/130/108 59/134/108 60/135/108
f 57/130/109 60/135/109 70/136/109
f 57/130/110 70/136/110 61/137/110
f 55/138/111 54/139/111 56/140/111
f 57/141/112 61/142/112 23/143/112
f 47/144/113 32/145/113 62/146/113
f 46/147/114 43/148/114 47/149/114
f 46/147/115 47/149/115 65/150/115
f 43/151/116 46/152/116 58/153/116
f 58/153/117 46/152/117 63/154/117
f 58/153/118 63/154/118 67/155/118
f 46/156/119 64/157/119 63/158/119
f 64/157/120 46/156/120 66/159/120
f 73/160/121 47/161/121 62/162/121
f 59/163/122 58/164/122 61/165/122
f 58/164/123 67/166/123 61/165/123
f 63/167/124 61/165/124 67/168/124
f 70/169/125 59/170/125 61/171/125
f 60/172/126 59/173/126 68/174/126
f 60/172/127 68/174/127 69/175/127
f 68/174/128 59/173/128 70/176/128
f 70/176/129 60/177/130 69/178/131
f 69/179/131 68/180/132 70/181/129
f 23/182/133 61/183/133 25/184/133
f 25/184/134 61/183/134 63/185/134
f 25/184/135 63/185/135 84/186/135
f 57/187/136 26/188/136 38/189/136
f 5/190/137 6/191/137 28/192/137
f 71/193/138 6/191/138 7/194/138
f 28/192/139 6/191/139 71/193/139
f 72/195/140 71/193/140 7/194/140
f 30/196/141 71/193/141 72/195/141
f 7/194/6 9/197/8 72/195/142
f 71/193/143 30/196/143 36/198/143
f 71/193/144 36/198/144 28/192/144
f 30/199/145 72/200/145 73/201/145
f 30/199/146 73/201/146 62/202/146
f 73/201/147 72/200/147 9/203/147
f 73/201/148 9/203/148 11/204/148
f 11/204/149 9/203/149 8/205/149
f 73/201/150 11/204/150 74/206/150
f 62/202/151 32/207/152 76/208/153
f 30/199/154 62/202/151 76/208/153
f 30/199/155 76/208/155 31/209/155
f 76/208/153 32/207/152 31/209/156
f 65/210/157 47/211/157 73/212/157
f 65/210/158 73/212/158 75/213/158
f 65/210/159 75/213/159 77/214/159
f 74/215/160 75/213/160 73/216/160
f 74/217/161 11/218/161 10/219/161
f 74/217/162 10/219/162 77/220/162
f 74/217/163 77/220/163 1/221/163
f 74/217/164 1/221/164 75/222/164
f 1/223/165 10/224/165 78/225/165
f 79/226/166 1/223/166 78/225/166
f 78/227/167 80/228/167 79/229/167
f 81/230/168 78/227/168 10/231/168
f 81/230/169 10/231/169 82/232/169
f 78/227/170 81/230/170 83/233/170
f 80/228/171 78/227/171 83/233/171
f 80/228/172 83/233/172 84/234/172
f 84/234/173 83/233/173 25/235/173
f 84/236/174 64/237/174 82/238/174
f 82/238/175 64/237/175 66/239/175
f 82/238/176 66/239/176 65/240/176
f 65/240/177 66/239/177 46/241/177
f 82/238/178 65/240/179 79/242/180
f 1/243/181 79/242/181 65/240/181
f 1/243/182 65/240/182 77/244/182
f 81/245/183 82/246/178 79/247/180
f 81/245/184 79/247/184 80/248/184
f 83/249/185 81/245/185 85/250/185
f 85/250/186 81/245/186 80/248/186
f 82/251/187 10/252/187 24/253/187
f 24/253/188 25/254/188 83/255/188
f 24/253/189 83/255/189 85/256/189
f 24/253/190 85/256/190 84/257/190
f 82/251/191 24/253/191 84/257/191
f 85/258/192 80/259/192 86/260/192
f 84/261/193 85/258/193 86/262/193
f 86/260/194 80/259/194 84/263/194
f 25/264/195 15/265/195 23/266/195
f 84/267/196 63/268/196 64/269/196
f 10/270/197 77/271/197 75/272/197
f 10/270/198 75/272/198 1/273/198
