# Blender 4.5.4 LTS
# www.blender.org
mtllib ai_model.mtl
o ai_model
v -0.075462 0.345320 -0.597616
v 0.258287 0.012439 0.209265
v 0.192662 0.151362 0.229828
v 0.274155 0.002735 -0.030031
v 0.204943 0.148242 0.010108
v 0.151636 0.012868 0.051118
v 0.114431 0.086917 0.245899
v 0.131948 0.185769 -0.021980
v 0.165099 0.115905 -0.222588
v 0.188209 0.078004 -0.258019
v 0.135840 0.112038 -0.234763
v 0.048368 0.216961 0.315820
v 0.068655 0.196516 0.142796
v 0.071807 0.170144 0.058235
v 0.019869 0.242822 -0.352573
v -0.008525 0.232161 -0.324985
v 0.002013 0.304930 -0.296756
v 0.048800 0.208363 0.059647
v 0.087455 0.196254 0.066376
v 0.087179 0.180563 0.059983
v 0.005849 0.252063 -0.040073
v 0.012828 0.267751 -0.062470
v 0.065414 0.215268 0.052521
v -0.024396 0.289919 0.012419
v 0.014882 0.255738 -0.459173
v 0.005487 0.248403 -0.472076
v -0.102282 0.430600 0.055714
v -0.173986 0.447645 -0.207322
v -0.023837 0.289876 -0.354963
v -0.121722 0.344669 -0.120002
v -0.191266 0.436244 -0.195169
v -0.020335 0.286217 -0.590180
v -0.212075 0.388729 0.044079
v -0.178648 0.526805 0.007050
v -0.278402 0.538074 -0.007488
v -0.255685 0.522074 0.210582
v -0.190234 0.384077 0.236029
v -0.141639 0.417905 0.306002
v -0.130959 0.479955 0.191634
v -0.039727 0.306968 0.306275
v -0.077783 0.341560 0.122732
v 0.084844 0.181805 -0.392011
v 0.055550 0.206197 -0.413663
v 0.062959 0.205821 -0.338025
v 0.072784 0.195867 -0.557443
v 0.165722 0.099697 -0.550378
v 0.193381 0.072424 -0.561127
v 0.179438 0.086040 -0.613133
v -0.245813 0.506761 -0.329575
v -0.212583 0.483929 -0.334139
v -0.235295 0.498956 -0.392587
v -0.180022 0.446647 -0.342717
v -0.169336 0.433608 -0.416174
v -0.208267 0.472941 -0.410993
v -0.059023 0.322310 -0.650972
v -0.083319 0.344909 -0.664643
v 0.079695 0.341087 -0.597616
v -0.253186 0.007338 0.209265
v -0.114263 0.072963 0.229827
v -0.262890 -0.008530 -0.030031
v -0.117383 0.060682 0.010108
v -0.252757 0.113989 0.051118
v -0.178708 0.151194 0.245899
v -0.079856 0.133677 -0.021980
v -0.149721 0.100526 -0.222588
v -0.187621 0.077416 -0.258019
v -0.153587 0.129785 -0.234763
v -0.048664 0.217257 0.315820
v -0.069109 0.196971 0.142796
v -0.095481 0.193818 0.058235
v -0.022802 0.245756 -0.352574
v -0.033464 0.274150 -0.324985
v 0.039305 0.263611 -0.296759
v -0.057262 0.216825 0.059647
v -0.069371 0.178170 0.066376
v -0.085062 0.178446 0.059983
v -0.013562 0.259776 -0.040073
v 0.002126 0.252797 -0.062470
v -0.050357 0.200211 0.052521
v 0.024294 0.290021 0.012419
v -0.009887 0.250743 -0.459173
v -0.017222 0.260138 -0.472076
v 0.164973 0.367907 0.055714
v 0.180147 0.449322 -0.206410
v 0.024250 0.289462 -0.354963
v 0.079044 0.387347 -0.120002
v 0.008846 0.275794 -0.480059
v 0.083096 0.340456 -0.463461
v 0.123104 0.477700 0.044078
v 0.261180 0.444273 0.007051
v 0.272449 0.544027 -0.007488
v 0.256449 0.521310 0.210582
v 0.118452 0.455859 0.236029
v 0.152281 0.407265 0.306001
v 0.214330 0.396584 0.191635
v 0.041343 0.305352 0.306275
v 0.075935 0.343408 0.122732
v -0.083820 0.180781 -0.392011
v -0.059428 0.210075 -0.413663
v -0.059804 0.202666 -0.338025
v -0.071515 0.191036 -0.556026
v 0.009495 0.276423 -0.597652
v -0.165928 0.099903 -0.550378
v -0.193201 0.072244 -0.561127
v -0.179585 0.086187 -0.613133
v 0.241136 0.511438 -0.329575
v 0.218304 0.478208 -0.334139
v 0.233331 0.500920 -0.392587
v 0.181022 0.445647 -0.342717
v 0.167983 0.434961 -0.416174
v 0.207316 0.473892 -0.410993
v 0.056685 0.324648 -0.650972
v 0.079284 0.348944 -0.664643
vn 0.7045 0.2342 0.6700
vn 0.8970 0.3933 0.2017
vn 0.9058 0.4215 0.0430
vn -0.0583 -0.9976 0.0366
vn -0.6880 -0.7122 0.1394
vn -0.3906 -0.8828 0.2610
vn -0.7338 -0.6697 0.1144
vn 0.8942 0.4435 -0.0605
vn 0.9069 0.4190 0.0447
vn 0.8854 0.4510 -0.1129
vn 0.6168 0.7694 -0.1660
vn 0.5171 0.8313 -0.2041
vn 0.7375 0.6583 -0.1510
vn 0.8586 0.4668 -0.2119
vn 0.8010 0.5889 -0.1075
vn -0.2283 -0.9469 -0.2265
vn -0.6098 -0.5451 -0.5753
vn -0.8594 -0.4961 -0.1235
vn -0.6966 -0.4208 -0.5811
vn 0.1792 0.7279 -0.6618
vn 0.5530 0.1397 0.8214
vn -0.0281 -0.4844 0.8744
vn -0.9019 -0.4285 -0.0551
vn -0.9151 -0.4026 -0.0217
vn -0.8886 -0.4463 -0.1057
vn -0.8844 -0.4538 0.1086
vn -0.8716 -0.4763 0.1161
vn -0.8700 -0.4792 0.1162
vn -0.2755 -0.7667 -0.5799
vn 0.3970 -0.3945 -0.8287
vn 0.7734 0.5321 -0.3446
vn 0.7799 0.5761 -0.2446
vn 0.2199 0.1679 -0.9610
vn -0.1504 0.3753 -0.9146
vn -0.4382 0.5238 0.7305
vn -0.8215 -0.5644 0.0809
vn -0.5830 -0.8060 -0.1021
vn -0.2910 0.8238 0.4864
vn -0.1596 0.8685 0.4694
vn -0.6437 -0.7652 0.0111
vn -0.8475 -0.5149 0.1290
vn -0.2997 0.9319 0.2043
vn 0.5933 0.7921 0.1432
vn 0.4169 0.9035 0.0995
vn 0.3387 0.9409 0.0056
vn 0.8513 0.4992 -0.1615
vn 0.4664 0.8295 0.3074
vn -0.8648 0.2024 -0.4595
vn 0.4184 0.9024 0.1036
vn 0.5385 0.8357 0.1078
vn -0.7181 -0.6908 0.0845
vn 0.9585 0.2848 -0.0103
vn 0.9983 -0.0063 0.0586
vn 0.7064 -0.6980 -0.1176
vn -0.5903 -0.7774 0.2173
vn 0.5919 0.7986 -0.1096
vn 0.4435 0.8001 -0.4039
vn -0.9242 -0.3377 -0.1782
vn -0.8823 -0.3791 -0.2792
vn -0.9414 -0.3139 -0.1234
vn -0.7264 -0.6715 -0.1460
vn -0.6250 0.1261 -0.7704
vn 0.0808 0.9557 -0.2831
vn 0.6585 0.7526 -0.0019
vn 0.5199 0.7923 -0.3193
vn -0.9652 -0.2614 -0.0103
vn 0.1641 -0.9651 -0.2040
vn -0.9366 -0.3366 0.0970
vn 0.8132 0.5515 -0.1859
vn 0.1330 0.9792 -0.1531
vn -0.4918 0.6677 -0.5589
vn 0.1046 0.9831 -0.1502
vn -0.8789 -0.4474 -0.1653
vn -0.6957 -0.6906 -0.1977
vn -0.9216 -0.3762 0.0957
vn -0.9062 -0.4180 0.0637
vn -0.7412 -0.2356 0.6286
vn 0.3456 0.8109 0.4722
vn 0.3366 0.9298 0.1490
vn 0.1031 0.9927 0.0621
vn 0.7948 0.6047 -0.0519
vn -0.5650 -0.5175 0.6426
vn 0.6745 0.6207 0.3997
vn -0.4238 -0.9020 -0.0821
vn -0.3883 -0.9206 -0.0411
vn -0.3789 -0.9251 -0.0262
vn 0.9077 0.4045 -0.1120
vn 0.9284 0.3704 -0.0275
vn 0.9284 0.3706 -0.0278
vn -0.6929 0.4481 -0.5648
vn 0.8831 0.4589 0.0977
vn 0.8796 0.4159 0.2310
vn -0.3396 -0.9404 0.0158
vn 0.9433 0.3215 0.0823
vn -0.3584 -0.9321 0.0529
vn -0.6051 -0.7899 0.0994
vn -0.5584 -0.8216 0.1144
vn 0.9017 0.1678 0.3985
vn 0.6392 0.7636 0.0917
vn 0.3810 0.9223 -0.0643
vn -0.6651 -0.7442 0.0614
vn 0.6651 0.7442 -0.0614
vn 0.6591 -0.6112 -0.4381
vn -0.7018 -0.7124 0.0016
vn -0.5656 -0.8247 0.0077
vn 0.8190 -0.5627 -0.1125
vn 0.7091 0.7048 -0.0219
vn -0.7004 0.7076 0.0932
vn 0.3601 -0.3353 0.8706
vn -0.2746 0.5491 -0.7894
vn 0.7043 0.7046 -0.0869
vn -0.3588 0.5383 -0.7626
vn -0.7043 -0.7046 0.0869
vn 0.2341 -0.7045 0.6700
vn 0.3933 -0.8970 0.2017
vn 0.4215 -0.9058 0.0430
vn -0.9976 0.0583 0.0366
vn -0.7122 0.6880 0.1394
vn -0.8828 0.3906 0.2610
vn -0.6697 0.7338 0.1144
vn 0.4435 -0.8942 -0.0605
vn 0.4190 -0.9069 0.0447
vn 0.4510 -0.8854 -0.1129
vn 0.7694 -0.6168 -0.1660
vn 0.8313 -0.5171 -0.2041
vn 0.6583 -0.7374 -0.1510
vn 0.4668 -0.8586 -0.2119
vn 0.5889 -0.8010 -0.1075
vn -0.9469 0.2283 -0.2265
vn -0.5451 0.6098 -0.5753
vn -0.4961 0.8594 -0.1234
vn -0.4208 0.6966 -0.5811
vn 0.7279 -0.1792 -0.6618
vn 0.1397 -0.5530 0.8214
vn -0.4844 0.0281 0.8744
vn -0.4285 0.9019 -0.0551
vn -0.4026 0.9151 -0.0217
vn -0.4463 0.8886 -0.1057
vn -0.4538 0.8844 0.1086
vn -0.4763 0.8716 0.1161
vn -0.4792 0.8700 0.1162
vn -0.7667 0.2755 -0.5799
vn -0.3945 -0.3970 -0.8287
vn 0.5320 -0.7734 -0.3446
vn 0.5761 -0.7799 -0.2446
vn 0.1679 -0.2199 -0.9610
vn 0.3753 0.1504 -0.9146
vn 0.5238 0.4382 0.7305
vn -0.5644 0.8215 0.0809
vn -0.8060 0.5830 -0.1021
vn 0.8238 0.2910 0.4864
vn 0.8685 0.1596 0.4694
vn -0.7652 0.6437 0.0111
vn -0.5149 0.8475 0.1290
vn 0.9319 0.2997 0.2043
vn 0.7921 -0.5933 0.1432
vn 0.9035 -0.4169 0.0995
vn 0.9409 -0.3387 0.0056
vn 0.4992 -0.8513 -0.1615
vn 0.8295 -0.4664 0.3074
vn 0.2024 0.8648 -0.4595
vn 0.9024 -0.4184 0.1036
vn 0.8357 -0.5385 0.1078
vn -0.6908 0.7181 0.0845
vn 0.2848 -0.9585 -0.0103
vn 0.0261 -0.9995 0.0192
vn -0.6980 -0.7064 -0.1176
vn -0.9190 0.3206 0.2297
vn 0.8190 -0.5596 -0.1264
vn 0.8137 -0.4233 -0.3984
vn -0.3482 0.9152 -0.2030
vn -0.3791 0.8823 -0.2792
vn -0.3304 0.9301 -0.1608
vn -0.6188 0.7659 -0.1748
vn 0.9557 -0.0808 -0.2831
vn 0.7884 -0.6145 -0.0299
vn 0.7760 -0.6280 -0.0589
vn -0.2890 0.9549 -0.0687
vn -0.9591 -0.1048 -0.2628
vn -0.4948 0.8652 0.0810
vn 0.5347 -0.8153 -0.2223
vn 0.9783 -0.1335 -0.1582
vn 0.1344 0.8692 -0.4758
vn -0.0000 -0.0000 -0.0000
vn -0.4549 0.8674 -0.2019
vn -0.6436 0.7302 -0.2293
vn -0.3762 0.9216 0.0957
vn -0.4180 0.9062 0.0637
vn -0.2356 0.7412 0.6286
vn 0.8109 -0.3456 0.4722
vn 0.9298 -0.3366 0.1490
vn 0.9927 -0.1031 0.0621
vn 0.6047 -0.7948 -0.0519
vn -0.5175 0.5650 0.6426
vn 0.6207 -0.6745 0.3997
vn -0.9020 0.4238 -0.0821
vn -0.9206 0.3883 -0.0411
vn -0.9251 0.3789 -0.0261
vn 0.4045 -0.9077 -0.1120
vn 0.3704 -0.9284 -0.0275
vn 0.3706 -0.9284 -0.0278
vn 0.4589 -0.8831 0.0977
vn 0.4159 -0.8796 0.2310
vn -0.9404 0.3396 0.0158
vn 0.3215 -0.9433 0.0823
vn -0.9321 0.3584 0.0529
vn -0.7899 0.6051 0.0994
vn -0.8216 0.5584 0.1144
vn 0.1678 -0.9017 0.3985
vn 0.7636 -0.6392 0.0917
vn 0.9223 -0.3810 -0.0643
vn -0.7442 0.6651 0.0614
vn 0.7442 -0.6651 -0.0614
vn -0.6351 -0.6870 -0.3532
vn 0.6451 0.5865 0.4897
vn 0.6193 -0.7609 0.1938
vn -0.5841 0.8117 0.0016
vn 0.2312 0.2551 -0.9389
vn -0.7124 0.7018 0.0016
vn 0.8247 -0.5656 -0.0077
vn -0.5627 -0.8190 -0.1125
vn 0.7048 -0.7091 -0.0219
vn 0.7076 0.7004 0.0932
vn -0.3353 -0.3601 0.8706
vn -0.0000 -0.0000 1.0000
vn 0.7046 -0.7043 -0.0869
vn -0.7046 0.7043 0.0869
vt 0.577112 0.458972
vt 0.476944 0.534017
vt 0.444092 0.407959
vt 0.371094 0.519775
vt 0.426393 0.593271
vt 0.517091 0.633704
vt 0.445525 0.744336
vt 0.440918 0.681152
vt 0.523946 0.708229
vt 0.427490 0.812744
vt 0.468316 0.816365
vt 0.533938 0.812198
vt 0.606139 0.701385
vt 0.575928 0.842529
vt 0.695146 0.171290
vt 0.766155 0.211120
vt 0.686763 0.213028
vt 0.388068 0.864611
vt 0.217637 0.860489
vt 0.384744 0.784116
vt 0.280773 0.741491
vt 0.521314 0.289241
vt 0.431555 0.199076
vt 0.530059 0.204684
vt 0.616455 0.247559
vt 0.513184 0.087646
vt 0.500777 0.168376
vt 0.389099 0.141006
vt 0.027764 0.003301
vt 0.106201 0.027588
vt 0.081191 0.070364
vt 0.770828 0.278223
vt 0.735723 0.399658
vt 0.707632 0.382976
vt 0.745008 0.273919
vt 0.657120 0.358748
vt 0.676175 0.240162
vt 0.772217 0.736328
vt 0.761475 0.772217
vt 0.744464 0.766257
vt 0.746937 0.793388
vt 0.752312 0.902014
vt 0.569824 0.889160
vt 0.748779 0.832764
vt 0.771729 0.892090
vt 0.775391 0.843750
vt 0.915283 0.656982
vt 0.852417 0.807953
vt 0.882602 0.619377
vt 0.765198 0.095475
vt 0.786436 0.048303
vt 0.809570 0.106201
vt 0.833496 0.091309
vt 0.852295 0.055420
vt 0.814209 0.001221
vt 0.839844 0.551270
vt 0.876580 0.432095
vt 0.942313 0.487351
vt 0.884521 0.796387
vt 0.916260 0.820557
vt 0.840766 0.845526
vt 0.923007 0.893964
vt 0.929443 0.814209
vt 0.981405 0.878522
vt 0.773682 0.932617
vt 0.184871 0.595917
vt 0.138442 0.533221
vt 0.146240 0.461670
vt 0.137842 0.640750
vt 0.211857 0.618659
vt 0.144043 0.681641
vt 0.213135 0.609375
vt 0.841621 0.211154
vt 0.963445 0.206972
vt 0.849407 0.291035
vt 0.990479 0.250493
vt 0.985292 0.298012
vt 0.886919 0.348553
vt 0.838881 0.348322
vt 0.210550 0.930012
vt 0.207764 0.908936
vt 0.270384 0.929002
vt 0.267697 0.958325
vt 0.212407 0.956204
vt 0.200928 0.981689
vt 0.263428 0.980225
vt 0.327636 0.638708
vt 0.305874 0.697674
vt 0.237153 0.642531
vt 0.336281 0.586577
vt 0.338053 0.471605
vt 0.242316 0.543961
vt 0.232952 0.474491
vt 0.367501 0.445151
vt 0.266824 0.398580
vt 0.303425 0.296171
vt 0.379059 0.332974
vt 0.342886 0.246444
vt 0.449356 0.290277
vt 0.473104 0.374325
vt 0.480713 0.417969
vt 0.490479 0.288086
vt 0.675450 0.566699
vt 0.686871 0.637090
vt 0.540565 0.589728
vt 0.624795 0.499700
vt 0.952881 0.968262
vt 0.874951 0.958410
vt 0.907715 0.910156
vt 0.183350 0.073975
vt 0.147367 0.043056
vt 0.205322 0.002197
vt 0.512110 0.027034
vt 0.586670 0.021973
vt 0.535400 0.056885
vt 0.996338 0.606201
vt 0.968095 0.787422
vt 0.937918 0.697535
vt 0.923950 0.767762
vt 0.836128 0.526410
vt 0.751238 0.527569
vt 0.823730 0.419434
vt 0.121582 0.189453
vt 0.088623 0.076660
vt 0.152650 0.090948
vt 0.086794 0.894674
vt 0.122314 0.805420
vt 0.171762 0.880184
vt 0.180664 0.956787
vt 0.078643 0.953371
vt 0.095947 0.660156
vt 0.124548 0.689639
vt 0.080078 0.658447
vt 0.014404 0.396729
vt 0.000488 0.376465
vt 0.015625 0.342529
vt 0.243109 0.089357
vt 0.338203 0.075057
vt 0.341277 0.166977
vt 0.887106 0.010485
vt 0.876109 0.045072
vt 0.836914 0.017090
vt 0.935547 0.030518
vt 0.301891 0.024818
vt 0.241329 0.065938
vt 0.229736 0.008301
vt 0.032967 0.551865
vt 0.088867 0.530518
vt 0.028320 0.576660
vt 0.214844 0.386475
vt 0.192137 0.310498
vt 0.245361 0.298096
vt 0.030576 0.183697
vt 0.035331 0.151391
vt 0.056885 0.206543
vt 0.425049 0.013428
vt 0.400649 0.035543
vt 0.373268 0.015442
vt 0.997092 0.894396
vt 0.988281 0.958496
vt 0.958984 0.949951
vt 0.150290 0.008664
vt 0.159912 0.027100
vt 0.125710 0.032523
vt 0.605126 0.960065
vt 0.601289 0.986394
vt 0.562439 0.973804
vt 0.577112 0.458973
vt 0.476944 0.534017
vt 0.523946 0.708228
vt 0.468316 0.816366
vt 0.533939 0.812198
vt 0.606139 0.701385
vt 0.695146 0.171290
vt 0.686763 0.213028
vt 0.388069 0.864611
vt 0.217637 0.860489
vt 0.431555 0.199076
vt 0.389099 0.141005
vt 0.770828 0.278223
vt 0.707632 0.382976
vt 0.745009 0.273918
vt 0.657121 0.358750
vt 0.744464 0.766257
vt 0.765198 0.095475
vt 0.786436 0.048303
vt 0.942313 0.487351
vt 0.981405 0.878522
vt 0.184871 0.595917
vt 0.211857 0.618659
vt 0.963447 0.206973
vt 0.845749 0.310942
vt 0.990479 0.250493
vt 0.327636 0.638708
vt 0.305874 0.697674
vt 0.237153 0.642531
vt 0.336281 0.586577
vt 0.338053 0.471605
vt 0.367501 0.445151
vt 0.266824 0.398580
vt 0.303425 0.296171
vt 0.342886 0.246445
vt 0.449356 0.290277
vt 0.473104 0.374325
vt 0.675452 0.566699
vt 0.751238 0.527570
vt 0.086794 0.894674
vt 0.078643 0.953371
vt 0.124548 0.689639
vt 0.243109 0.089357
vt 0.341277 0.166977
vt 0.876109 0.045072
vt 0.301891 0.024818
vt 0.032967 0.551865
vt 0.104012 0.266862
vt 0.141846 0.227295
vt 0.206543 0.198730
vt 0.197021 0.385498
vt 0.193159 0.305485
vt 0.142541 0.383652
vt 0.189209 0.237793
vt 0.817937 0.952552
vt 0.860274 0.957914
vt 0.792480 0.987793
vt 0.150290 0.008664
vt 0.601289 0.986394
s 1
usemtl m_7418e1dc-4c92-e415-50ac-c9c52d93d98b.002
f 3/1/1 2/2/2 4/3/3
f 4/4/4 2/2/4 6/5/4
f 6/5/5 2/2/6 7/6/7
f 5/7/8 3/8/9 4/9/10
f 8/10/11 5/7/12 9/11/13
f 9/11/14 5/7/8 4/9/10
f 9/11/15 4/9/15 10/12/15
f 4/9/16 6/13/16 10/12/16
f 10/12/17 6/13/18 11/14/19
f 9/15/20 10/16/17 11/17/19
f 3/18/1 12/19/21 2/20/2
f 2/20/22 12/19/22 7/21/22
f 7/22/23 12/23/23 13/24/23
f 7/22/7 13/24/24 6/25/5
f 6/26/18 14/27/25 11/28/19
f 6/29/26 13/30/27 14/31/28
f 11/32/29 16/33/29 15/34/29
f 9/35/30 11/32/30 15/34/30
f 9/35/13 15/34/31 17/36/32
f 8/37/11 9/35/13 17/36/32
f 18/38/33 19/39/33 14/40/33
f 14/40/34 19/39/34 20/41/34
f 14/40/35 20/41/35 21/42/35
f 14/40/36 21/42/36 16/43/36
f 20/41/37 18/44/37 21/42/37
f 21/42/38 18/44/38 22/45/38
f 22/45/39 18/44/39 23/46/39
f 11/47/40 14/48/40 16/49/40
f 14/50/28 13/51/27 18/52/41
f 18/52/42 13/51/42 23/53/42
f 23/53/43 13/51/43 19/54/43
f 19/54/44 13/51/44 5/55/44
f 3/56/45 5/57/45 13/58/45
f 23/59/46 20/60/46 22/61/46
f 22/61/47 20/60/47 8/62/47
f 8/62/48 20/60/48 19/63/48
f 8/62/49 19/63/49 5/64/49
f 22/61/50 8/62/50 17/65/50
f 16/66/51 21/67/51 24/68/51
f 15/69/52 25/70/52 17/71/52
f 25/70/53 15/69/54 26/72/55
f 27/73/56 17/74/56 28/75/56
f 17/74/57 29/76/57 28/75/57
f 16/77/58 30/78/59 29/76/60
f 29/76/61 30/78/61 31/79/61
f 31/79/62 28/75/62 29/76/62
f 29/80/63 17/81/63 25/82/63
f 29/80/64 25/82/53 32/83/65
f 29/80/60 32/83/66 16/84/58
f 16/84/67 32/83/67 15/85/67
f 15/85/68 32/83/65 26/86/55
f 34/87/69 27/88/69 28/89/69
f 34/87/70 28/89/71 35/90/72
f 33/91/73 35/90/73 31/92/73
f 33/91/74 31/92/74 30/93/74
f 35/94/75 33/95/75 37/96/75
f 35/94/76 37/96/76 36/97/76
f 36/97/77 37/96/77 38/98/77
f 39/99/78 36/97/78 38/98/78
f 36/97/79 39/99/79 34/100/79
f 36/97/80 34/100/70 35/101/72
f 34/100/81 39/99/81 27/102/81
f 38/103/82 37/104/82 40/105/82
f 38/103/83 40/105/83 39/106/83
f 40/107/84 37/108/85 41/109/86
f 40/110/87 41/111/88 39/112/89
f 35/113/72 28/114/71 31/115/90
f 17/116/91 27/117/91 24/118/91
f 27/117/92 41/119/92 24/118/92
f 33/120/93 41/121/86 37/122/85
f 27/123/94 39/124/89 41/125/88
f 41/126/95 33/127/95 30/128/95
f 41/126/96 30/128/96 16/129/96
f 41/126/97 16/129/97 24/130/97
f 22/131/98 24/132/98 21/133/98
f 24/134/99 22/135/99 17/136/99
f 12/137/100 3/138/100 13/139/100
f 43/140/101 42/141/101 44/142/101
f 42/141/102 43/140/102 44/143/102
f 45/144/103 25/145/53 26/146/55
f 25/147/53 45/148/103 32/149/65
f 26/150/55 32/151/65 45/152/103
f 47/153/104 46/154/104 48/155/104
f 51/156/105 50/157/105 49/158/106
f 52/159/107 53/160/108 54/161/109
f 55/162/110 56/163/111 1/164/112
f 56/165/113 55/166/110 1/167/112
f 59/168/114 58/169/115 60/3/116
f 60/4/117 58/169/117 62/5/117
f 62/5/118 58/169/119 63/6/120
f 61/7/121 59/8/122 60/170/123
f 64/10/124 61/7/125 65/171/126
f 65/171/127 61/7/121 60/170/123
f 65/171/128 60/170/128 66/172/128
f 60/170/129 62/173/129 66/172/129
f 66/172/130 62/173/131 67/14/132
f 65/174/133 66/16/130 67/175/132
f 59/176/114 68/177/134 58/20/115
f 58/20/135 68/177/135 63/21/135
f 63/22/136 68/178/136 69/24/136
f 63/22/120 69/24/137 62/25/118
f 62/26/131 70/27/138 67/179/132
f 62/29/139 69/30/140 70/31/141
f 67/180/142 72/33/142 71/181/142
f 65/182/143 67/180/143 71/181/143
f 65/182/126 71/181/144 73/183/145
f 64/37/124 65/182/126 73/183/145
f 74/38/146 75/39/146 70/184/146
f 70/184/147 75/39/147 76/41/147
f 70/184/148 76/41/148 77/42/148
f 70/184/149 77/42/149 72/43/149
f 76/41/150 74/44/150 77/42/150
f 77/42/151 74/44/151 78/45/151
f 78/45/152 74/44/152 79/46/152
f 67/47/153 70/48/153 72/49/153
f 70/185/141 69/186/140 74/52/154
f 74/52/155 69/186/155 79/53/155
f 79/53/156 69/186/156 75/54/156
f 75/54/157 69/186/157 61/55/157
f 59/56/158 61/57/158 69/187/158
f 79/59/159 76/60/159 78/61/159
f 78/61/160 76/60/160 64/62/160
f 64/62/161 76/60/161 75/63/161
f 64/62/162 75/63/162 61/188/162
f 78/61/163 64/62/163 73/65/163
f 72/189/164 77/67/164 80/68/164
f 71/69/165 81/190/165 73/71/165
f 81/190/166 71/69/167 82/72/168
f 83/73/169 73/191/169 84/192/169
f 73/191/170 85/193/170 84/192/170
f 72/77/171 86/78/172 85/193/173
f 85/193/174 86/78/174 84/192/174
f 85/80/175 73/81/175 81/82/175
f 85/80/176 81/82/166 87/83/177
f 85/80/173 87/83/178 72/84/171
f 72/84/179 87/83/179 71/85/179
f 71/85/180 87/83/180 82/86/180
f 90/194/181 83/195/181 84/196/181
f 90/194/182 84/196/183 91/197/184
f 89/198/185 91/197/184 84/92/183
f 89/198/186 84/92/186 86/93/186
f 91/199/187 89/200/187 93/201/187
f 91/199/188 93/201/188 92/97/188
f 92/97/189 93/201/189 94/202/189
f 95/203/190 92/97/190 94/202/190
f 92/97/191 95/203/191 90/204/191
f 92/97/192 90/204/182 91/101/184
f 90/204/193 95/203/193 83/102/193
f 94/205/194 93/104/194 96/105/194
f 94/205/195 96/105/195 95/106/195
f 96/107/196 93/108/197 97/109/198
f 96/110/199 97/111/200 95/112/201
f 73/116/202 83/117/202 80/118/202
f 83/117/203 97/119/203 80/118/203
f 89/120/204 97/206/198 93/122/197
f 83/123/205 95/124/201 97/125/200
f 97/207/206 89/127/206 86/128/206
f 97/207/207 86/128/207 72/129/207
f 97/207/208 72/129/208 80/208/208
f 78/131/209 80/209/209 77/133/209
f 80/134/210 78/135/210 73/136/210
f 68/210/211 59/138/211 69/211/211
f 99/140/212 98/212/212 100/142/212
f 98/212/213 99/140/213 100/143/213
f 101/213/214 81/145/166 82/146/168
f 81/214/166 101/148/214 87/149/177
f 88/215/215 87/216/216 101/217/214
f 82/150/168 87/218/217 102/219/218
f 102/219/218 87/218/217 88/220/215
f 82/150/168 102/219/218 101/152/214
f 102/219/218 88/220/215 101/221/214
f 104/153/219 103/154/219 105/155/219
f 108/222/220 106/223/221 107/224/220
f 109/159/222 110/160/223 111/161/224
f 112/225/225 113/163/226 57/164/225
f 113/165/227 112/226/225 57/167/225
