# Blender 4.5.4 LTS
# www.blender.org
mtllib ai_model.mtl
o unknown
v -0.220829 0.307207 -0.033307
v -0.225153 0.113721 -0.036507
v -0.224057 0.306122 0.033508
v -0.219099 0.111889 0.035933
v -0.153374 0.300772 -0.042649
v -0.153761 0.313710 0.027668
v -0.094559 0.295701 0.036021
v -0.074324 0.295549 -0.025891
v -0.156360 0.107996 -0.033508
v -0.153904 0.112160 0.036945
v -0.093698 0.120404 0.033698
v -0.087913 0.118560 -0.030548
v -0.074039 0.206347 -0.047634
v -0.046680 0.285199 0.019826
v -0.036391 0.135992 0.029152
v -0.039769 0.142751 -0.030851
v -0.029619 0.275476 -0.031635
v -0.006461 0.182000 -0.046481
v 0.016171 0.139871 0.005425
v -0.003940 0.071083 -0.020908
v -0.004192 0.340685 -0.023667
v 0.013339 0.278833 0.003395
v -0.007094 0.236392 -0.050503
v -0.005972 0.367394 -0.003771
v 0.001400 0.346023 0.023526
v -0.029424 0.275197 0.035061
v 0.067838 0.232374 -0.045983
v 0.012942 0.236978 0.023243
v 0.061691 0.191512 -0.047148
v 0.200852 0.228540 -0.001375
v 0.173612 0.195954 -0.025508
v -0.008928 0.236650 0.053478
v 0.056836 0.220157 0.052406
v 0.165556 0.202131 0.032039
v 0.088426 0.328330 -0.016932
v 0.091815 0.272272 -0.002586
v -0.007425 0.177811 0.052326
v 0.056274 0.189724 0.046194
v 0.247265 0.209716 0.000025
v 0.016588 0.095304 0.014571
v -0.006011 0.061172 0.024620
v 0.090001 0.096328 0.021033
v 0.087472 0.079822 -0.009013
v 0.086622 0.147858 -0.002849
v 0.207021 0.085984 0.005455
v 0.179192 0.147950 0.000459
v 0.195580 0.175003 0.004136
v 0.220047 0.139045 -0.015568
v 0.092291 0.324395 0.019877
v 0.202840 0.329923 -0.013963
v 0.207587 0.329815 0.015194
v 0.193593 0.261187 -0.016245
v 0.185459 0.255833 0.012739
v 0.220611 0.266391 0.006351
v -0.220829 0.176068 -0.097832
v -0.225153 0.172868 0.095654
v -0.224057 0.242883 -0.096747
v -0.219099 0.245308 0.097486
v -0.153374 0.166726 -0.091397
v -0.153761 0.237043 -0.104335
v -0.094559 0.245396 -0.086326
v -0.074324 0.183484 -0.086174
v -0.156360 0.175867 0.101379
v -0.153904 0.246320 0.097215
v -0.093698 0.243073 0.088971
v -0.087913 0.178827 0.090815
v -0.074039 0.161741 0.003028
v -0.046680 0.229201 -0.075824
v -0.036391 0.238527 0.073383
v -0.039769 0.178524 0.066624
v -0.029619 0.177740 -0.066101
v -0.006461 0.162894 0.027375
v 0.016171 0.214800 0.069504
v -0.003940 0.188467 0.138292
v -0.004193 0.185708 -0.131310
v 0.013339 0.212770 -0.069458
v -0.007094 0.158872 -0.027017
v -0.005972 0.205604 -0.158019
v 0.001400 0.232901 -0.136648
v -0.029424 0.244436 -0.065822
v 0.061219 0.163287 -0.021847
v 0.002199 0.255444 -0.026707
v 0.062305 0.162175 0.017807
v 0.244858 0.207579 -0.008631
v 0.173726 0.184617 0.012757
v 0.059219 0.259366 -0.017226
v 0.165556 0.241414 0.007244
v 0.088426 0.192443 -0.118955
v 0.091815 0.206790 -0.062897
v -0.007425 0.261701 0.031564
v 0.056274 0.255569 0.019651
v 0.016588 0.223946 0.114071
v -0.006011 0.233995 0.148203
v 0.090001 0.230408 0.113047
v 0.087472 0.200362 0.129553
v 0.086622 0.206526 0.061517
v 0.207021 0.214830 0.123391
v 0.179192 0.209834 0.061425
v 0.195580 0.213511 0.034372
v 0.220047 0.193807 0.070330
v 0.092291 0.229252 -0.115020
v 0.202840 0.195412 -0.120548
v 0.207587 0.224569 -0.120440
v 0.193593 0.193131 -0.051812
v 0.185459 0.222114 -0.046458
v 0.220611 0.215726 -0.057016
vn -0.7168 0.3634 -0.5951
vn -0.7596 -0.6383 -0.1244
vn -0.6503 0.5406 0.5337
vn -0.8199 -0.4332 0.3743
vn -0.1064 0.9943 0.0110
vn 0.0686 0.9812 -0.1802
vn -0.1353 0.0194 -0.9906
vn 0.0214 0.4777 0.8783
vn -0.0184 0.0120 0.9998
vn 0.1027 0.9784 -0.1794
vn -0.0821 -0.9965 -0.0183
vn 0.0395 -0.0479 -0.9981
vn 0.0032 -0.9983 0.0589
vn -0.0157 0.4636 0.8859
vn 0.1383 -0.9889 0.0536
vn 0.1414 -0.9886 0.0520
vn 0.1482 -0.9880 0.0438
vn 0.0187 -0.0132 0.9997
vn 0.1506 -0.9877 0.0419
vn 0.0506 -0.0481 -0.9976
vn 0.2080 0.0098 -0.9781
vn -0.9355 0.0809 -0.3440
vn 0.2927 0.9171 0.2706
vn 0.2379 0.9684 0.0754
vn 0.2784 0.9564 0.0887
vn 0.0106 -0.0132 0.9999
vn 0.4483 -0.8914 0.0659
vn 0.0968 -0.2049 -0.9740
vn -0.4528 0.0294 -0.8911
vn 0.4068 -0.6144 -0.6760
vn -0.6022 -0.7963 -0.0571
vn -0.8944 -0.4472 -0.0000
vn -0.2667 -0.9594 -0.0918
vn 0.3864 -0.0350 -0.9217
vn -0.0185 0.2367 -0.9714
vn -0.4899 0.7384 0.4634
vn -0.0619 0.1448 -0.9875
vn -0.8418 0.2853 -0.4583
vn -0.6643 0.4908 0.5637
vn -0.4998 0.3468 0.7937
vn -0.7008 -0.0607 -0.7108
vn 0.3004 0.5502 -0.7792
vn -0.4821 0.1368 -0.8654
vn 0.0562 -0.0730 -0.9958
vn 0.4819 0.5903 -0.6475
vn 0.9569 -0.1318 -0.2589
vn 0.5359 0.3576 0.7648
vn 0.0190 -0.2078 -0.9780
vn -0.0141 0.0306 -0.9994
vn 0.0805 -0.6277 -0.7743
vn 0.0587 0.9942 -0.0896
vn 0.0423 0.9989 -0.0194
vn 0.0511 0.9976 0.0477
vn 0.1964 0.7415 0.6416
vn 0.6317 -0.1534 -0.7599
vn 0.9671 0.2134 -0.1387
vn 0.5972 -0.1310 0.7914
vn 0.1372 0.5976 -0.7900
vn 0.0377 -0.2456 -0.9686
vn -0.5959 -0.7870 0.1596
vn 0.6573 0.5796 0.4817
vn -0.7005 -0.0318 0.7129
vn -0.0340 -0.1992 0.9794
vn 0.0917 -0.0468 0.9947
vn 0.2515 -0.9601 -0.1223
vn -0.6229 -0.0020 0.7823
vn 0.3577 -0.6298 0.6895
vn 0.0989 -0.0170 0.9949
vn 0.1482 -0.2004 0.9684
vn 0.1626 -0.4071 0.8988
vn 0.1526 -0.9801 0.1266
vn 0.2426 0.6199 0.7462
vn 0.3637 -0.4556 0.8125
vn 0.2325 0.6285 0.7423
vn 0.2943 -0.7583 0.5817
vn 0.2127 0.4604 -0.8618
vn 0.1402 -0.9822 0.1251
vn 0.1899 -0.0006 -0.9818
vn 0.3028 0.3907 -0.8693
vn 0.1201 -0.8909 -0.4380
vn 0.0820 -0.9958 -0.0414
vn 0.8648 0.5012 0.0297
vn 0.3925 0.1884 0.9003
vn 0.3146 0.0704 0.9466
vn -0.9222 -0.3671 -0.1219
vn -0.0873 0.3341 0.9385
vn 0.3240 -0.8404 0.4344
vn 0.1196 -0.9712 -0.2060
vn 0.5430 0.1570 -0.8249
vn 0.8865 -0.0851 -0.4548
vn -0.6180 0.7683 -0.1669
vn 0.1199 0.0911 -0.9886
vn -0.0132 -0.8759 0.4823
vn -0.0887 0.0888 -0.9921
vn -0.0826 0.1674 -0.9824
vn -0.0550 0.4522 -0.8902
vn 0.0154 0.8902 -0.4554
vn 0.1304 -0.3927 -0.9104
vn 0.7103 0.1016 0.6965
vn -0.0855 0.4143 0.9061
vn 0.0924 0.2309 0.9686
vn -0.0329 0.4185 0.9076
vn 0.0316 0.3151 0.9485
vn 0.1430 0.1432 0.9793
vn -0.2911 0.2998 -0.9085
vn -0.2010 -0.0113 0.9795
vn 0.3886 0.9196 0.0575
vn 0.2122 0.7964 0.5662
vn -0.1125 -0.3932 0.9126
vn -0.0571 -0.3947 0.9170
vn -0.1612 -0.3886 0.9072
vn -0.0166 0.9940 0.1080
vn -0.0465 0.9989 0.0113
vn 0.0255 0.0297 -0.9992
vn -0.1557 -0.2537 -0.9547
vn 0.0427 -0.0459 0.9980
vn -0.2145 -0.3849 0.8977
vn -0.1343 -0.9670 -0.2163
vn 0.2692 -0.9577 -0.1014
vn 0.2052 -0.0937 0.9742
vn 0.9631 0.2195 -0.1560
vn 0.6473 -0.0619 -0.7597
vn -0.7168 -0.5951 -0.3634
vn -0.7596 -0.1244 0.6383
vn -0.6503 0.5337 -0.5406
vn -0.8199 0.3743 0.4332
vn -0.1064 0.0110 -0.9943
vn 0.0686 -0.1802 -0.9812
vn -0.1353 -0.9906 -0.0194
vn 0.0214 0.8783 -0.4777
vn -0.0184 0.9998 -0.0120
vn 0.1027 -0.1794 -0.9784
vn -0.0821 -0.0183 0.9965
vn 0.0395 -0.9981 0.0479
vn 0.0032 0.0589 0.9983
vn -0.0157 0.8859 -0.4636
vn 0.1383 0.0536 0.9889
vn 0.1414 0.0520 0.9886
vn 0.1482 0.0438 0.9880
vn 0.0187 0.9997 0.0132
vn 0.1506 0.0419 0.9877
vn 0.0506 -0.9976 0.0481
vn 0.2080 -0.9781 -0.0098
vn -0.9355 -0.3440 -0.0809
vn 0.2927 0.2706 -0.9171
vn 0.2379 0.0754 -0.9684
vn 0.2784 0.0887 -0.9564
vn 0.0106 0.9999 0.0132
vn 0.4483 0.0659 0.8914
vn 0.0968 -0.9740 0.2049
vn -0.4528 -0.8911 -0.0294
vn 0.4068 -0.6760 0.6144
vn -0.6022 -0.0571 0.7963
vn -0.8944 -0.0000 0.4472
vn -0.2667 -0.0918 0.9594
vn 0.3864 -0.9217 0.0350
vn -0.0185 -0.9714 -0.2367
vn -0.4899 0.4634 -0.7384
vn -0.0619 -0.9875 -0.1448
vn -0.8418 -0.4583 -0.2853
vn -0.6643 0.5637 -0.4908
vn -0.4998 0.7937 -0.3468
vn -0.7008 -0.7108 0.0607
vn 0.3004 -0.7792 -0.5502
vn -0.4821 -0.8654 -0.1368
vn 0.0588 -0.9956 0.0729
vn 0.4819 -0.6475 -0.5903
vn 0.9376 -0.0913 0.3355
vn 0.4597 0.6856 -0.5646
vn 0.0181 -0.9784 0.2058
vn -0.0143 -0.9995 -0.0276
vn 0.0861 -0.7367 0.6708
vn 0.0768 -0.0210 -0.9968
vn 0.2435 -0.9475 -0.2075
vn 0.0735 -0.0039 -0.9973
vn 0.1335 0.3232 -0.9368
vn 0.6317 -0.7599 0.1534
vn 0.9671 -0.1387 -0.2134
vn 0.5972 0.7914 0.1310
vn 0.1372 -0.7900 -0.5976
vn 0.0377 -0.9686 0.2456
vn -0.5959 0.1596 0.7870
vn -0.1744 0.9756 -0.1336
vn -0.0841 0.9919 0.0954
vn 0.0917 0.9947 0.0468
vn 0.2515 -0.1223 0.9601
vn -0.6229 0.7823 0.0020
vn 0.3577 0.6895 0.6298
vn 0.0780 0.9925 -0.0937
vn 0.1402 0.9837 0.1125
vn 0.1626 0.8988 0.4070
vn 0.1517 0.1171 0.9815
vn 0.3586 0.4590 0.8129
vn 0.2544 0.8296 -0.4971
vn 0.3686 0.9215 -0.1227
vn 0.2472 0.1288 0.9604
vn 0.1959 -0.9801 -0.0329
vn 0.1221 -0.4019 0.9075
vn 0.0857 -0.0414 0.9955
vn 0.8648 0.0297 -0.5012
vn 0.3925 0.9003 -0.1884
vn 0.3146 0.9466 -0.0704
vn -0.9222 -0.1219 0.3671
vn -0.0873 0.9385 -0.3341
vn 0.3240 0.4344 0.8404
vn 0.1196 -0.2060 0.9712
vn 0.5430 -0.8249 -0.1570
vn 0.8865 -0.4548 0.0851
vn -0.6180 -0.1669 -0.7683
vn 0.1199 -0.9886 -0.0911
vn -0.0132 0.4823 0.8759
vn -0.0887 -0.9921 -0.0888
vn -0.0826 -0.9824 -0.1674
vn -0.0550 -0.8902 -0.4522
vn 0.0154 -0.4554 -0.8902
vn 0.1304 -0.9104 0.3927
vn 0.7103 0.6965 -0.1016
vn -0.0855 0.9061 -0.4143
vn 0.0924 0.9686 -0.2308
vn -0.0329 0.9076 -0.4185
vn 0.0316 0.9485 -0.3151
vn 0.1430 0.9793 -0.1432
vn -0.2911 -0.9085 -0.2998
vn -0.2010 0.9795 0.0113
vn 0.3886 0.0575 -0.9196
vn 0.2122 0.5662 -0.7964
vn -0.1124 0.9126 0.3931
vn -0.0571 0.9170 0.3947
vn -0.1612 0.9072 0.3886
vn -0.0166 0.1080 -0.9940
vn -0.0465 0.0113 -0.9989
vn 0.0255 -0.9992 -0.0297
vn -0.1558 -0.9547 0.2537
vn 0.0427 0.9980 0.0459
vn -0.2145 0.8977 0.3849
vn -0.1343 -0.2163 0.9670
vn 0.2692 -0.1014 0.9577
vn 0.2052 0.9742 0.0937
vn 0.9631 -0.1560 -0.2195
vn 0.6473 -0.7597 0.0619
vt 0.351234 0.540850
vt 0.521539 0.661906
vt 0.283142 0.604243
vt 0.400876 0.804094
vt 0.396938 0.386498
vt 0.446902 0.409558
vt 0.464908 0.505078
vt 0.311503 0.436889
vt 0.371826 0.348877
vt 0.494662 0.487141
vt 0.507848 0.409517
vt 0.255371 0.518311
vt 0.862917 0.391637
vt 0.915306 0.379700
vt 0.929690 0.470386
vt 0.969194 0.435591
vt 0.880533 0.478462
vt 0.831543 0.476318
vt 0.905762 0.543945
vt 0.609131 0.393066
vt 0.608617 0.283643
vt 0.763934 0.261469
vt 0.681152 0.964355
vt 0.815771 0.943352
vt 0.784424 0.959229
vt 0.866699 0.158203
vt 0.980469 0.160400
vt 0.964307 0.255318
vt 0.333512 0.308772
vt 0.234375 0.186035
vt 0.365386 0.179773
vt 0.373045 0.246548
vt 0.214689 0.836753
vt 0.268553 0.815440
vt 0.183105 0.910645
vt 0.213154 0.785531
vt 0.362305 0.791260
vt 0.206068 0.287903
vt 0.109589 0.300865
vt 0.137207 0.201904
vt 0.742585 0.828359
vt 0.739883 0.761763
vt 0.783936 0.746338
vt 0.763428 0.694092
vt 0.301331 0.948626
vt 0.359375 0.842041
vt 0.363525 0.928711
vt 0.429199 0.999756
vt 0.275146 0.970947
vt 0.222412 0.990967
vt 0.591064 0.131348
vt 0.658203 0.163086
vt 0.557997 0.214664
vt 0.616943 0.222412
vt 0.635387 0.261981
vt 0.570801 0.242432
vt 0.727002 0.667286
vt 0.680233 0.756679
vt 0.531993 0.586726
vt 0.704590 0.590088
vt 0.589355 0.493896
vt 0.019920 0.311540
vt 0.092041 0.329834
vt 0.064697 0.343262
vt 0.006104 0.387939
vt 0.233336 0.532795
vt 0.166016 0.600342
vt 0.193299 0.478970
vt 0.249468 0.469899
vt 0.255127 0.385498
vt 0.801902 0.120784
vt 0.711426 0.153076
vt 0.697890 0.065984
vt 0.595703 0.974121
vt 0.646561 0.994028
vt 0.447998 0.993652
vt 0.295967 0.278113
vt 0.199707 0.435303
vt 0.172518 0.418348
vt 0.189209 0.368896
vt 0.193051 0.347943
vt 0.414795 0.837646
vt 0.373069 0.863256
vt 0.356689 0.801025
vt 0.441334 0.875091
vt 0.375244 0.924072
vt 0.467105 0.903097
vt 0.524156 0.799542
vt 0.511068 0.921187
vt 0.629618 0.812303
vt 0.554813 0.922058
vt 0.428152 0.128030
vt 0.366192 0.146491
vt 0.343994 0.079102
vt 0.303223 0.166992
vt 0.923167 0.665197
vt 0.912109 0.545410
vt 0.942283 0.515324
vt 0.208518 0.182467
vt 0.268604 0.271387
vt 0.173096 0.260010
vt 0.173096 0.129883
vt 0.132812 0.150879
vt 0.882812 0.841309
vt 0.942820 0.924497
vt 0.893775 0.935100
vt 0.898438 0.998779
vt 0.850862 0.012143
vt 0.969727 0.001221
vt 0.965482 0.086648
vt 0.634005 0.941102
vt 0.727327 0.930463
vt 0.665771 0.962158
vt 0.575505 0.915110
vt 0.774902 0.919189
vt 0.863037 0.604980
vt 0.820365 0.663001
vt 0.821533 0.631104
vt 0.570919 0.323187
vt 0.385561 0.355494
vt 0.435256 0.282499
vt 0.446045 0.385254
vt 0.310303 0.043213
vt 0.407737 0.011994
vt 0.416260 0.042236
vt 0.147490 0.016545
vt 0.103516 0.019531
vt 0.111816 0.004150
vt 0.140137 0.000000
vt 0.450439 0.931641
vt 0.595459 0.944336
vt 0.396383 0.951955
vt 0.410889 0.966553
vt 0.610352 0.966553
vt 0.428711 0.988770
vt 0.194266 0.751647
vt 0.127848 0.728419
vt 0.169118 0.687862
vt 0.111572 0.584717
vt 0.238037 0.635742
vt 0.791401 0.394719
vt 0.652556 0.485069
vt 0.597900 0.401855
vt 0.720973 0.582718
vt 0.842595 0.766715
vt 0.883328 0.730661
vt 0.887695 0.835205
vt 0.964588 0.861457
vt 0.946378 0.715983
vt 0.013428 0.527100
vt 0.080078 0.575684
vt 0.009277 0.598389
vt 0.178014 0.525725
vt 0.152832 0.576416
vt 0.144439 0.512485
vt 0.147705 0.410400
vt 0.764797 0.016315
vt 0.861084 0.000244
vt 0.796143 0.027588
vt 0.155236 0.785784
vt 0.144669 0.804945
vt 0.055190 0.800001
vt 0.654053 0.013672
vt 0.685116 0.031454
vt 0.565430 0.015381
vt 0.585693 0.028320
vt 0.191650 0.109131
vt 0.339111 0.075439
vt 0.334757 0.111838
vt 0.016357 0.493164
vt 0.078404 0.487785
vt 0.089946 0.542744
vt 0.944476 0.958240
vt 0.979492 0.977539
vt 0.906006 0.999756
vt 0.033823 0.759464
vt 0.128397 0.755288
vt 0.100098 0.779785
vt 0.548584 0.034180
vt 0.426025 0.034180
vt 0.445068 0.022705
vt 0.000000 0.936279
vt 0.040393 0.953685
vt 0.011208 0.986856
vt 0.064697 0.998779
vt 0.068769 0.430885
vt 0.048927 0.437914
vt 0.034912 0.374268
vt 0.072925 0.374290
vt 0.117188 0.414307
vt 0.060052 0.621448
vt 0.081923 0.601398
vt 0.061523 0.706299
vt 0.072998 0.707764
vt 0.035847 0.695316
vt 0.041504 0.594238
vt 0.103695 0.707544
vt 0.108887 0.599609
vt 0.112061 0.694580
vt 0.842494 0.287295
vt 0.814473 0.241242
vt 0.934987 0.230873
vt 0.940932 0.333362
vt 0.095148 0.160827
vt 0.059977 0.188101
vt 0.016357 0.075195
vt 0.143417 0.076355
vt 0.351234 0.540850
vt 0.283142 0.604243
vt 0.400876 0.804094
vt 0.396938 0.386498
vt 0.446902 0.409558
vt 0.311503 0.436889
vt 0.862917 0.391637
vt 0.915306 0.379700
vt 0.929690 0.470386
vt 0.880533 0.478462
vt 0.608617 0.283643
vt 0.763934 0.261469
vt 0.964307 0.255318
vt 0.365386 0.179773
vt 0.373045 0.246548
vt 0.214689 0.836753
vt 0.268553 0.815440
vt 0.213154 0.785531
vt 0.206068 0.287903
vt 0.109589 0.300865
vt 0.742585 0.828359
vt 0.739883 0.761763
vt 0.301331 0.948626
vt 0.557997 0.214664
vt 0.727002 0.667286
vt 0.680233 0.756679
vt 0.531993 0.586726
vt 0.019920 0.311540
vt 0.193299 0.478970
vt 0.801902 0.120784
vt 0.697831 0.065833
vt 0.210588 0.946658
vt 0.187746 0.971306
vt 0.069092 0.975342
vt 0.324982 0.262918
vt 0.172518 0.418348
vt 0.197737 0.346481
vt 0.467105 0.903097
vt 0.629618 0.812303
vt 0.554813 0.922058
vt 0.359364 0.121374
vt 0.428152 0.128030
vt 0.938889 0.659232
vt 0.948255 0.519770
vt 0.208518 0.182467
vt 0.893775 0.935100
vt 0.850862 0.012143
vt 0.634005 0.941102
vt 0.727327 0.930463
vt 0.064939 0.010078
vt 0.098877 0.008057
vt 0.091205 0.021943
vt 0.148180 0.016110
vt 0.396383 0.951955
vt 0.127848 0.728419
vt 0.791401 0.394719
vt 0.652556 0.485068
vt 0.720972 0.582718
vt 0.883328 0.730661
vt 0.946378 0.715983
vt 0.178015 0.525725
vt 0.685116 0.031454
vt 0.078404 0.487785
vt 0.089946 0.542744
vt 0.944476 0.958240
vt 0.033823 0.759464
vt 0.128397 0.755288
vt 0.040393 0.953685
vt 0.011208 0.986856
vt 0.068769 0.430885
vt 0.048927 0.437914
vt 0.072924 0.374290
vt 0.060052 0.621448
vt 0.081923 0.601398
vt 0.103695 0.707544
vt 0.842494 0.287295
vt 0.934987 0.230873
vt 0.095148 0.160827
vt 0.059977 0.188101
vt 0.143417 0.076355
s 1
usemtl m_caf9ac9c-a57c-ae87-bd02-18307edb6b60.004
f 1/1/1 2/2/2 3/3/3
f 3/3/3 2/2/2 4/4/4
f 1/5/1 3/6/3 6/7/5
f 5/8/6 1/5/6 6/7/6
f 1/5/1 5/8/7 2/9/2
f 7/10/8 6/7/8 3/6/8
f 7/10/9 3/6/3 4/11/4
f 8/12/10 5/8/10 6/7/10
f 4/13/4 2/14/2 9/15/11
f 9/15/12 2/14/12 5/16/12
f 9/15/13 10/17/13 4/13/13
f 4/13/14 10/17/14 11/18/14
f 10/17/15 9/15/16 11/19/17
f 4/20/18 11/21/18 7/22/18
f 9/23/16 12/24/19 11/25/17
f 12/26/20 9/27/20 5/28/20
f 12/29/21 5/30/21 8/31/21
f 12/29/22 8/31/22 13/32/22
f 14/33/23 7/34/23 26/35/23
f 7/34/24 14/33/24 8/36/24
f 7/34/25 8/36/25 6/37/25
f 7/38/26 11/39/26 26/40/26
f 11/41/27 12/42/27 16/43/27
f 16/43/28 12/42/28 13/44/28
f 16/45/29 17/46/29 18/47/29
f 16/45/30 18/47/30 19/48/30
f 16/45/31 20/49/32 15/50/33
f 16/51/34 13/52/34 17/53/34
f 17/53/35 13/52/35 8/54/35
f 8/54/36 14/55/36 21/56/36
f 8/54/37 21/56/37 17/53/37
f 24/57/38 21/58/38 14/59/38
f 25/60/39 24/57/39 14/59/39
f 25/60/40 14/59/40 26/61/40
f 18/62/41 17/63/42 23/64/43
f 18/62/44 23/64/44 27/65/44
f 23/66/43 17/67/42 22/68/45
f 23/66/46 22/68/46 28/69/46
f 28/69/47 22/68/47 26/70/47
f 18/71/48 27/72/49 29/73/50
f 27/74/51 23/75/51 30/76/51
f 30/77/52 23/78/52 28/79/52
f 30/77/53 28/79/53 32/80/53
f 30/77/54 32/80/54 33/81/54
f 21/82/55 22/83/55 17/84/55
f 22/83/56 21/82/56 25/85/56
f 22/83/57 25/85/57 26/86/57
f 24/87/58 35/88/58 21/89/58
f 21/89/59 35/88/59 36/90/59
f 21/89/60 36/90/60 25/91/60
f 26/92/61 32/93/61 28/94/61
f 32/93/62 26/92/62 37/95/62
f 32/96/63 38/97/63 33/98/63
f 15/99/64 26/100/64 11/101/64
f 16/102/31 15/99/33 11/103/65
f 26/104/66 15/105/66 37/106/66
f 37/106/67 15/105/67 19/107/67
f 38/108/68 32/109/68 37/110/68
f 38/111/69 34/112/69 33/113/69
f 34/112/70 38/111/70 37/114/70
f 34/112/71 37/114/71 31/115/71
f 33/116/72 34/117/72 30/118/72
f 39/119/73 30/120/74 34/121/75
f 30/120/76 39/119/76 31/122/76
f 39/123/73 34/124/75 31/125/77
f 31/126/78 29/127/78 27/128/78
f 31/126/79 27/128/79 30/129/79
f 29/130/50 31/131/80 18/132/48
f 18/133/81 31/134/81 37/135/81
f 18/136/82 37/137/82 19/138/82
f 19/138/83 15/139/83 40/140/83
f 15/141/84 41/142/84 40/143/84
f 41/142/85 15/141/85 20/144/85
f 40/145/86 41/146/86 42/147/86
f 41/146/87 43/148/87 42/147/87
f 43/148/88 41/146/88 20/149/88
f 20/150/89 16/151/89 19/152/89
f 20/153/90 19/154/90 40/155/90
f 20/153/91 40/155/91 44/156/91
f 43/157/92 20/158/92 44/159/92
f 42/160/93 43/161/93 45/162/93
f 43/163/94 44/164/95 48/165/96
f 48/165/96 44/164/95 46/166/97
f 43/167/98 48/168/98 45/169/98
f 47/170/99 45/171/99 48/172/99
f 44/173/100 40/174/100 42/175/100
f 46/176/101 44/177/102 42/178/103
f 42/179/103 45/180/104 46/181/101
f 48/182/105 46/183/105 47/184/105
f 47/184/106 46/183/106 45/185/106
f 49/186/107 35/187/107 24/188/107
f 49/186/108 24/188/108 25/189/108
f 49/186/109 25/189/110 36/190/111
f 35/191/112 49/192/112 50/193/112
f 50/193/113 49/192/113 51/194/113
f 35/191/114 50/193/114 52/195/114
f 35/191/115 52/195/115 36/196/115
f 51/194/116 49/192/116 53/197/116
f 53/197/117 49/192/109 36/198/111
f 53/197/118 36/198/118 52/199/118
f 53/200/119 52/201/119 54/202/119
f 53/200/120 54/202/120 51/203/120
f 50/204/121 51/205/121 54/206/121
f 52/207/122 50/204/122 54/206/122
f 55/208/123 56/2/124 57/209/125
f 57/209/125 56/2/124 58/210/126
f 55/211/123 57/212/125 60/7/127
f 59/213/128 55/211/128 60/7/128
f 55/211/123 59/213/129 56/9/124
f 61/10/130 60/7/130 57/212/130
f 61/10/131 57/212/125 58/11/126
f 62/12/132 59/213/132 60/7/132
f 58/214/126 56/215/124 63/216/133
f 63/216/134 56/215/134 59/16/134
f 63/216/135 64/217/135 58/214/135
f 58/214/136 64/217/136 65/18/136
f 64/217/137 63/216/138 65/19/139
f 58/20/140 65/218/140 61/219/140
f 63/23/138 66/24/141 65/25/139
f 66/26/142 63/27/142 59/220/142
f 66/29/143 59/30/143 62/221/143
f 66/29/144 62/221/144 67/222/144
f 68/223/145 61/224/145 80/35/145
f 61/224/146 68/223/146 62/225/146
f 61/224/147 62/225/147 60/37/147
f 61/226/148 65/227/148 80/40/148
f 65/228/149 66/229/149 70/43/149
f 70/43/150 66/229/150 67/44/150
f 70/230/151 71/46/151 72/47/151
f 70/230/152 72/47/152 73/48/152
f 70/230/153 74/49/154 69/50/155
f 70/51/156 67/52/156 71/231/156
f 71/231/157 67/52/157 62/54/157
f 62/54/158 68/55/158 75/56/158
f 62/54/159 75/56/159 71/231/159
f 78/232/160 75/233/160 68/234/160
f 79/60/161 78/232/161 68/234/161
f 79/60/162 68/234/162 80/61/162
f 72/235/163 71/63/164 77/64/165
f 72/235/166 77/64/166 81/65/166
f 77/66/165 71/67/164 76/236/167
f 77/66/168 76/236/168 82/69/168
f 82/69/169 76/236/169 80/70/169
f 72/237/170 81/72/171 83/238/172
f 81/74/173 77/75/173 84/76/173
f 84/239/174 85/240/174 81/241/174
f 84/242/175 77/78/175 82/243/175
f 84/242/176 82/243/176 86/244/176
f 75/82/177 76/83/177 71/84/177
f 76/83/178 75/82/178 79/85/178
f 76/83/179 79/85/179 80/86/179
f 78/245/180 88/88/180 75/89/180
f 75/89/181 88/88/181 89/246/181
f 75/89/182 89/246/182 79/247/182
f 82/248/183 80/249/183 90/95/183
f 82/250/184 91/97/184 86/251/184
f 69/252/185 80/100/185 65/101/185
f 70/102/153 69/252/155 65/103/186
f 80/104/187 69/105/187 90/253/187
f 90/253/188 69/105/188 73/107/188
f 91/254/189 82/109/189 90/110/189
f 91/255/190 87/256/190 86/113/190
f 87/256/191 91/255/191 90/114/191
f 87/256/192 90/114/192 85/115/192
f 84/257/193 86/258/194 87/259/195
f 84/123/193 87/124/195 85/125/196
f 85/260/197 83/127/197 81/128/197
f 83/130/172 85/131/198 72/261/170
f 72/133/199 85/134/199 90/135/199
f 72/136/200 90/262/200 73/138/200
f 73/138/201 69/139/201 92/140/201
f 69/263/202 93/264/202 92/143/202
f 93/264/203 69/263/203 74/265/203
f 92/145/204 93/266/204 94/147/204
f 93/266/205 95/148/205 94/147/205
f 95/148/206 93/266/206 74/267/206
f 74/150/207 70/151/207 73/152/207
f 74/268/208 73/154/208 92/155/208
f 74/268/209 92/155/209 96/156/209
f 95/157/210 74/158/210 96/159/210
f 94/160/211 95/161/211 97/162/211
f 95/163/212 96/269/213 100/165/214
f 100/165/214 96/269/213 98/166/215
f 95/167/216 100/168/216 97/169/216
f 99/170/217 97/270/217 100/271/217
f 96/272/218 92/174/218 94/175/218
f 98/273/219 96/274/220 94/178/221
f 94/179/221 97/180/222 98/181/219
f 100/182/223 98/275/223 99/276/223
f 99/276/224 98/275/224 97/185/224
f 101/277/225 88/278/225 78/188/225
f 101/277/226 78/188/226 79/279/226
f 101/277/227 79/279/228 89/190/229
f 88/280/230 101/281/230 102/193/230
f 102/193/231 101/281/231 103/194/231
f 88/280/232 102/193/232 104/195/232
f 88/280/233 104/195/233 89/196/233
f 103/194/234 101/281/234 105/282/234
f 105/282/235 101/281/227 89/198/229
f 105/282/236 89/198/236 104/199/236
f 105/283/237 104/201/237 106/284/237
f 105/283/238 106/284/238 103/203/238
f 102/285/239 103/286/239 106/206/239
f 104/287/240 102/285/240 106/206/240
