# Blender 4.5.4 LTS
# www.blender.org
mtllib ai_model.mtl
o ai_model
v -0.199644 0.186955 -0.277994
v -0.087306 0.188668 -0.204091
v -0.206432 0.178038 -0.149342
v -0.197536 0.196556 -0.145006
v -0.106197 0.210822 -0.066978
v -0.110397 0.180157 -0.093278
v -0.093346 0.130571 -0.133420
v -0.054764 0.136192 -0.233172
v 0.003797 0.121852 -0.222944
v -0.083940 0.260485 -0.131248
v -0.060251 0.233272 -0.234944
v -0.005682 0.272202 -0.202002
v -0.084793 0.135223 -0.048730
v -0.076414 0.279918 -0.059168
v -0.097986 0.190280 0.018964
v -0.080129 0.137466 0.036234
v -0.072743 0.080459 -0.065133
v -0.044605 0.285461 0.051704
v -0.027522 0.285099 -0.026766
v -0.006052 0.087440 -0.159019
v -0.000385 0.073021 -0.095740
v 0.005597 -0.017803 -0.152304
v 0.084336 0.091178 -0.063385
v -0.025392 0.080054 0.016365
v 0.103908 0.178667 -0.149881
v 0.002407 -0.003348 -0.272740
v -0.021428 0.113441 -0.293713
v -0.063054 0.163838 -0.264889
v 0.053436 0.136781 -0.299443
v -0.043746 0.242504 -0.284391
v 0.049640 0.227384 -0.261287
v 0.053945 0.242794 -0.310547
v 0.058527 0.133570 -0.225940
v 0.075130 0.188487 -0.210816
v 0.050518 0.239381 -0.237362
v 0.194051 0.185994 -0.273537
v 0.199685 0.189311 -0.146812
v 0.109735 0.183804 -0.086008
v 0.083636 0.243799 -0.043366
v 0.081658 0.263380 -0.146477
v 0.092099 0.170995 -0.033324
v 0.042693 0.097549 -0.033723
v 0.060567 0.274726 0.052948
v -0.065695 0.087742 0.074485
v -0.029621 0.075670 0.173944
v -0.088364 0.114197 0.168511
v -0.099390 0.169758 0.072085
v -0.104798 0.188419 0.178111
v 0.074437 0.090994 0.087368
v 0.101731 0.184972 0.074534
v 0.091468 0.136590 0.194405
v 0.064020 0.090113 0.180489
v -0.061085 0.285963 0.152964
v -0.089360 0.241535 0.080568
v 0.048041 0.294802 0.134323
v -0.046387 0.142461 0.287695
v -0.047290 0.231900 0.294547
v 0.047059 0.227427 0.291465
v 0.045930 0.154609 0.297599
v 0.098247 0.230147 0.177381
v 0.090427 0.242165 0.082222
v -0.000092 0.292923 -0.089357
v 0.058174 0.287195 -0.061600
v 0.008642 0.269721 -0.197611
v 0.009803 0.385256 -0.144414
v -0.007876 0.381221 -0.149731
v 0.000865 0.380194 -0.273961
vn -0.8997 0.4362 -0.0172
vn 0.0586 -0.9961 -0.0659
vn 0.0325 0.9968 -0.0725
vn -0.0160 0.9867 -0.1616
vn 0.0594 -0.9962 -0.0641
vn -0.9640 -0.1590 -0.2131
vn -0.8697 -0.3422 -0.3557
vn -0.8067 -0.1896 -0.5597
vn -0.8306 -0.2348 -0.5050
vn -0.9190 0.3014 -0.2540
vn -0.9622 0.2148 -0.1673
vn -0.9481 0.2472 -0.1999
vn -0.7116 -0.0530 -0.7006
vn -0.8938 0.3393 -0.2932
vn -0.4155 0.8520 -0.3185
vn -0.5044 0.0404 0.8625
vn -0.5062 -0.5205 0.6877
vn -0.9075 -0.4042 0.1139
vn -0.9196 -0.1755 0.3515
vn -0.9636 -0.2659 0.0285
vn -0.9514 -0.3020 0.0602
vn -0.9178 0.3969 -0.0112
vn -0.7272 0.6487 0.2245
vn -0.5572 0.1478 0.8171
vn -0.9632 -0.2451 0.1107
vn -0.6697 -0.6805 -0.2974
vn -0.4415 -0.8365 -0.3247
vn -0.3692 -0.8696 -0.3279
vn -0.2330 -0.9153 -0.3285
vn -0.5988 -0.7908 -0.1266
vn -0.2634 -0.9612 -0.0825
vn -0.5190 -0.8302 -0.2034
vn -0.9923 -0.1057 0.0648
vn 0.9982 0.0366 0.0469
vn 0.9998 0.0179 0.0110
vn 0.9998 0.0164 0.0079
vn 0.0593 -0.9288 0.3659
vn 0.0619 -0.9545 0.2919
vn -0.2039 -0.3218 0.9246
vn -0.1811 -0.8256 -0.5345
vn 0.3169 -0.8889 -0.3308
vn 0.1868 -0.9430 -0.2756
vn 0.8611 -0.4417 -0.2519
vn -0.1941 -0.9544 -0.2267
vn -0.9980 -0.0170 -0.0607
vn -0.9909 0.0591 -0.1209
vn -0.9983 -0.0428 -0.0401
vn -0.2667 -0.9413 0.2069
vn -0.1846 0.3686 -0.9111
vn -0.8118 -0.5284 -0.2484
vn -0.9763 -0.0513 0.2104
vn -0.3414 0.0925 -0.9354
vn -0.9448 0.1612 -0.2853
vn -0.3728 -0.1324 -0.9184
vn -0.0455 0.1356 -0.9897
vn 0.0505 0.9786 0.1996
vn 0.8239 -0.0933 -0.5590
vn 0.8637 0.1703 -0.4743
vn 0.8393 -0.0015 -0.5437
vn 0.8971 0.2404 -0.3708
vn 0.2113 -0.9766 0.0408
vn 0.2927 -0.9542 -0.0620
vn -0.1825 0.3751 -0.9088
vn -0.9961 -0.0045 -0.0885
vn -0.0785 -0.9495 -0.3039
vn 0.9975 -0.0121 -0.0696
vn 0.9955 0.0808 0.0504
vn -0.0541 0.9976 0.0440
vn 0.8852 -0.1460 -0.4416
vn -0.0839 -0.9892 -0.1198
vn 0.0070 0.9996 -0.0265
vn 0.9996 -0.0005 -0.0265
vn -0.9939 -0.1092 0.0132
vn 0.9582 -0.2786 -0.0650
vn 0.1080 -0.9917 0.0699
vn -0.0301 0.9985 0.0458
vn 0.9287 0.3671 0.0519
vn 0.9555 0.1398 -0.2597
vn 0.5085 -0.3464 0.7883
vn 0.8006 -0.0743 0.5946
vn 0.9223 0.0544 -0.3827
vn 0.9722 0.1390 0.1882
vn -0.7125 -0.6993 0.0576
vn 0.1782 -0.9789 -0.0997
vn 0.0103 -0.9904 0.1381
vn -0.7231 -0.5406 -0.4299
vn -0.7969 -0.4963 -0.3444
vn -0.8580 -0.4456 -0.2556
vn -0.5521 -0.8278 0.0998
vn -0.5476 -0.8008 0.2426
vn -0.5479 -0.8018 0.2384
vn -0.9177 -0.3804 -0.1142
vn -0.9766 -0.2147 -0.0120
vn -0.9132 -0.3795 -0.1488
vn -0.9168 -0.3639 -0.1648
vn 0.8060 -0.5409 -0.2406
vn 0.9574 -0.2847 -0.0486
vn 0.9127 0.3869 -0.1316
vn 0.9586 -0.2828 -0.0321
vn 0.0352 -0.9905 -0.1330
vn 0.0933 -0.9936 -0.0637
vn 0.0799 -0.9936 -0.0800
vn 0.8456 -0.5262 0.0896
vn 0.1519 -0.9884 0.0077
vn -0.8293 0.5280 -0.1830
vn -0.7613 0.5468 -0.3483
vn -0.8503 0.5263 0.0091
vn -0.7344 0.6675 -0.1228
vn -0.8222 0.5685 -0.0278
vn -0.9905 0.1353 0.0261
vn -0.9862 0.1468 -0.0761
vn -0.9000 0.4265 0.0898
vn 0.0955 -0.8522 0.5144
vn -0.5334 -0.7614 0.3684
vn -0.8944 -0.2463 0.3734
vn -0.8891 -0.0439 0.4555
vn -0.8561 0.4494 0.2550
vn 0.0564 0.9175 0.3937
vn 0.5036 -0.7215 0.4752
vn 0.1323 -0.6784 0.7227
vn -0.0366 -0.4497 0.8924
vn 0.9120 0.0204 0.4097
vn 0.6429 0.7025 0.3052
vn 0.0365 0.0833 0.9959
vn -0.0963 -0.0770 0.9924
vn 0.7233 -0.5516 0.4155
vn 0.9153 0.0070 0.4027
vn -0.0145 0.9336 0.3579
vn 0.1021 0.9923 -0.0702
vn 0.1014 0.9948 0.0116
vn 0.1018 0.9740 -0.2024
vn -0.1213 0.9592 -0.2553
vn 0.3570 0.9312 0.0734
vn 0.1007 0.9540 -0.2822
vn 0.7560 0.6531 -0.0447
vn 0.7983 0.2325 -0.5557
vn 0.7853 0.6189 0.0136
vn 0.9781 0.2007 -0.0550
vn 0.9963 -0.0612 0.0606
vn -0.0537 0.6878 -0.7239
vn -0.3305 0.9194 -0.2134
vn -0.2288 0.9594 -0.1651
vn -0.1445 0.9877 0.0601
vn 0.3113 0.5175 0.7970
vn 0.0317 0.9900 0.1377
vn 0.8435 0.5304 0.0845
vn 0.1961 0.9569 -0.2142
vn 0.3164 0.8848 -0.3420
vn 0.2149 0.9584 -0.1881
vn 0.9775 0.0205 0.2100
vn 0.7256 0.2787 -0.6292
vn 0.3450 0.5094 0.7883
vn -0.3523 0.5069 0.7867
vn -0.9971 -0.0480 0.0583
vn -0.9974 0.0136 -0.0703
vn 0.9926 -0.1031 -0.0645
vn 0.3310 0.3919 -0.8584
vn 0.2713 0.8813 -0.3869
vn -0.2158 0.9762 -0.0233
vn 0.1098 -0.9937 0.0211
vt 0.665574 0.608462
vt 0.844735 0.602073
vt 0.849047 0.630752
vt 0.748324 0.475147
vt 0.750789 0.742770
vt 0.848389 0.716309
vt 0.848145 0.504150
vt 0.827393 0.462402
vt 0.751335 0.434005
vt 0.796820 0.780847
vt 0.749434 0.803329
vt 0.703125 0.762207
vt 0.789784 0.826539
vt 0.798911 0.960815
vt 0.796846 0.981256
vt 0.713309 0.883111
vt 0.742044 0.875826
vt 0.640116 0.939474
vt 0.699463 0.835693
vt 0.098633 0.980830
vt 0.057861 0.963379
vt 0.122066 0.914453
vt 0.137939 0.979248
vt 0.176729 0.955158
vt 0.156982 0.772949
vt 0.135254 0.827435
vt 0.107151 0.788175
vt 0.075845 0.830521
vt 0.173882 0.891762
vt 0.247559 0.907227
vt 0.357796 0.897435
vt 0.256836 0.958008
vt 0.958156 0.151540
vt 0.975158 0.177228
vt 0.857473 0.166878
vt 0.888283 0.219546
vt 0.966064 0.194336
vt 0.958623 0.262319
vt 0.912109 0.306885
vt 0.836621 0.239343
vt 0.820501 0.201912
vt 0.838964 0.163011
vt 0.771973 0.141846
vt 0.883057 0.334961
vt 0.851230 0.337760
vt 0.353390 0.951983
vt 0.421514 0.908664
vt 0.386475 0.999512
vt 0.484661 0.947349
vt 0.753200 0.070833
vt 0.733713 0.114729
vt 0.674006 0.095037
vt 0.598394 0.163044
vt 0.560547 0.091064
vt 0.736681 0.186808
vt 0.628564 0.210082
vt 0.581055 0.245850
vt 0.665039 0.266357
vt 0.333132 0.849717
vt 0.241527 0.858816
vt 0.296537 0.809775
vt 0.227051 0.732666
vt 0.458476 0.311516
vt 0.430176 0.339844
vt 0.394342 0.323475
vt 0.398159 0.228708
vt 0.428471 0.152274
vt 0.344482 0.150146
vt 0.476156 0.199247
vt 0.485596 0.148193
vt 0.525786 0.279766
vt 0.546631 0.207764
vt 0.502657 0.330612
vt 0.528183 0.363131
vt 0.436989 0.390175
vt 0.323948 0.285710
vt 0.323486 0.455811
vt 0.820801 0.945068
vt 0.950928 0.906250
vt 0.927323 0.977752
vt 0.138428 0.640869
vt 0.022326 0.768433
vt 0.017748 0.601807
vt 0.292856 0.159920
vt 0.311709 0.248988
vt 0.217527 0.238522
vt 0.289475 0.344934
vt 0.186768 0.338623
vt 0.141497 0.212854
vt 0.135975 0.309966
vt 0.150229 0.622545
vt 0.209315 0.649091
vt 0.187449 0.698830
vt 0.876385 0.053693
vt 0.893670 0.108312
vt 0.832947 0.132274
vt 0.808722 0.071612
vt 0.754150 0.131836
vt 0.130942 0.168442
vt 0.116455 0.232910
vt 0.093893 0.204215
vt 0.069824 0.227051
vt 0.050049 0.182617
vt 0.089611 0.143546
vt 0.056757 0.104436
vt 0.085424 0.076625
vt 0.136031 0.123825
vt 0.092197 0.055519
vt 0.171544 0.168692
vt 0.229171 0.077873
vt 0.278649 0.047247
vt 0.330933 0.101719
vt 0.264395 0.129526
vt 0.329346 0.122559
vt 0.168084 0.151542
vt 0.198996 0.012088
vt 0.145032 0.043344
vt 0.160278 0.115218
vt 0.800781 0.390869
vt 0.851170 0.374113
vt 0.860587 0.435526
vt 0.902585 0.403832
vt 0.961696 0.434173
vt 0.898422 0.358136
vt 0.980622 0.361976
vt 0.374785 0.609043
vt 0.473935 0.576530
vt 0.452840 0.663437
vt 0.353334 0.658366
vt 0.369865 0.696871
vt 0.185374 0.474692
vt 0.294904 0.407646
vt 0.315906 0.501705
vt 0.178223 0.559814
vt 0.321045 0.623535
vt 0.267578 0.670410
vt 0.474437 0.721509
vt 0.571440 0.704285
vt 0.592579 0.801742
vt 0.519274 0.571246
vt 0.599470 0.633335
vt 0.567627 0.521973
vt 0.679860 0.719852
vt 0.431740 0.465685
vt 0.484316 0.478996
vt 0.506893 0.530147
vt 0.548228 0.440379
vt 0.619792 0.415301
vt 0.712480 0.453984
vt 0.699707 0.510986
vt 0.964689 0.781949
vt 0.975098 0.837646
vt 0.911111 0.807933
vt 0.920526 0.890503
vt 0.947510 0.728271
vt 0.914795 0.736816
vt 0.878085 0.839484
vt 0.836182 0.833686
vt 0.861838 0.914774
vt 0.821533 0.923584
vt 0.724365 0.035645
vt 0.793457 0.013428
vt 0.772949 0.040283
vt 0.080638 0.533605
vt 0.049752 0.543673
vt 0.061768 0.463623
vt 0.103316 0.467830
vt 0.054160 0.424427
vt 0.094950 0.425259
vt 0.100660 0.396923
vt 0.153138 0.434666
vt 0.199951 0.457764
vt 0.168398 0.480772
vt 0.141812 0.524101
vt 0.135710 0.529453
vt 0.781955 0.255498
vt 0.841064 0.295410
vt 0.718447 0.398668
vt 0.597131 0.265121
vt 0.729736 0.004639
vt 0.649884 0.062137
vt 0.607893 0.039132
vt 0.596680 0.072998
vt 0.036621 0.596924
vt 0.011719 0.596191
vt 0.023047 0.454027
vt 0.362793 0.012939
vt 0.515329 0.065394
vt 0.348111 0.113633
s 1
usemtl m_9a2d8a16-ae3f-6b7d-bd14-e994d0539d0c.001
f 1/1/1 3/2/1 4/3/1
f 3/2/2 1/1/2 2/4/2
f 1/1/3 4/3/3 2/5/3
f 2/5/4 4/3/4 5/6/4
f 3/2/5 2/4/5 6/7/5
f 6/7/6 2/4/6 7/8/6
f 7/8/7 2/4/8 8/9/9
f 2/5/10 5/6/11 10/10/12
f 2/5/8 11/11/13 8/12/9
f 2/5/10 10/10/12 11/11/14
f 10/10/15 12/13/15 11/11/15
f 4/14/16 3/15/16 6/16/16
f 4/14/17 6/16/17 5/17/17
f 6/16/18 7/18/18 13/19/18
f 5/20/19 6/21/19 13/22/19
f 5/20/20 13/22/20 15/23/20
f 15/23/21 13/22/21 16/24/21
f 10/25/22 5/26/22 14/27/22
f 19/28/23 5/26/23 15/29/23
f 14/27/24 5/26/24 19/28/24
f 13/30/25 7/31/25 17/32/25
f 7/33/26 8/34/27 17/35/28
f 17/35/28 8/34/27 21/36/29
f 21/36/30 8/34/31 20/37/32
f 21/36/33 20/37/33 22/38/33
f 21/36/34 22/38/35 9/39/36
f 17/35/37 21/36/37 23/40/37
f 17/35/38 23/40/38 42/41/38
f 17/35/39 42/41/39 13/42/39
f 13/42/40 42/41/40 24/43/40
f 23/40/41 21/36/41 9/39/41
f 23/40/42 9/39/42 33/44/42
f 23/40/43 33/44/43 25/45/43
f 8/46/31 9/47/44 20/48/32
f 20/48/45 9/47/46 26/49/47
f 9/50/44 8/51/31 27/52/48
f 27/52/49 28/53/49 29/54/49
f 27/52/50 8/51/50 28/53/50
f 8/51/51 11/55/51 28/53/51
f 28/53/52 11/55/53 30/56/54
f 28/53/52 30/56/54 31/57/55
f 30/56/56 11/55/56 32/58/56
f 33/59/57 35/60/58 34/61/59
f 34/61/59 35/60/58 40/62/60
f 33/63/61 9/64/61 27/65/61
f 33/63/62 27/65/62 29/66/62
f 31/67/55 29/66/63 28/68/52
f 31/67/64 32/69/64 29/66/64
f 32/69/65 31/67/65 30/70/65
f 29/66/66 32/69/66 33/63/66
f 33/63/67 32/69/67 35/71/67
f 35/71/68 32/69/68 11/72/68
f 25/73/69 33/74/57 34/75/59
f 25/73/70 34/75/70 36/76/70
f 36/76/71 34/75/71 37/77/71
f 22/78/35 26/79/72 9/80/36
f 20/81/45 26/82/47 22/83/73
f 23/84/74 25/85/74 38/86/74
f 38/86/75 25/85/75 37/87/75
f 38/86/76 37/87/76 34/88/76
f 39/89/77 38/86/77 40/90/77
f 40/90/78 38/86/78 34/88/78
f 23/91/79 41/92/79 42/93/79
f 23/94/80 38/95/80 39/96/80
f 23/94/81 39/96/81 41/97/81
f 39/96/82 43/98/82 41/97/82
f 16/99/83 13/100/83 24/101/83
f 24/101/84 42/102/84 49/103/84
f 24/101/85 49/103/85 44/104/85
f 24/101/86 44/104/87 16/99/88
f 44/104/89 45/105/90 46/106/91
f 46/106/92 47/107/92 44/104/92
f 47/107/93 46/106/93 48/108/93
f 16/99/88 44/104/87 47/107/94
f 16/99/95 47/107/95 15/109/95
f 49/110/96 42/111/96 41/112/96
f 49/110/97 41/112/97 50/113/97
f 41/112/98 43/114/98 50/113/98
f 50/113/99 51/115/99 49/110/99
f 44/116/100 49/110/101 45/117/102
f 49/110/103 51/115/103 52/118/103
f 49/110/101 52/118/104 45/117/102
f 19/119/105 15/120/105 18/121/105
f 18/121/106 15/120/106 54/122/106
f 53/123/107 18/121/108 54/122/109
f 54/122/110 15/120/110 47/124/110
f 54/122/111 47/124/111 48/125/111
f 54/122/109 48/125/112 53/123/107
f 45/126/113 52/127/113 56/128/113
f 46/129/91 45/126/90 56/128/114
f 46/129/115 56/128/115 48/130/115
f 48/131/116 56/132/116 57/133/116
f 48/131/117 57/133/117 53/134/117
f 57/133/118 58/135/118 55/136/118
f 52/137/119 59/138/120 56/139/121
f 59/138/122 60/140/122 58/141/122
f 58/141/123 60/140/123 55/142/123
f 58/141/124 57/143/124 59/138/124
f 59/138/120 57/143/125 56/139/121
f 52/144/119 51/145/126 59/146/120
f 60/147/127 59/146/127 51/145/127
f 55/148/128 53/149/128 57/150/128
f 18/151/129 53/152/130 43/153/131
f 43/153/132 53/152/132 55/154/132
f 19/155/133 18/151/133 39/156/133
f 39/156/134 18/151/129 43/153/131
f 61/157/135 43/153/135 55/154/135
f 43/153/136 61/157/136 50/158/136
f 61/157/137 55/154/137 60/159/137
f 61/157/138 60/159/138 50/158/138
f 50/158/139 60/159/139 51/160/139
f 35/161/140 11/162/140 12/163/140
f 12/164/141 10/165/141 14/166/141
f 12/164/142 14/166/142 62/167/142
f 62/167/143 14/166/143 19/168/143
f 63/169/144 19/168/144 39/170/144
f 19/168/145 63/169/145 62/167/145
f 63/169/146 39/170/146 40/171/146
f 62/167/147 63/169/147 40/171/147
f 40/171/148 35/172/148 64/173/148
f 40/171/149 64/173/149 62/167/149
f 62/167/150 64/173/151 65/174/152
f 62/167/150 65/174/152 66/175/153
f 62/167/154 66/175/154 12/164/154
f 12/176/155 66/177/155 67/178/155
f 12/176/156 67/178/156 65/179/156
f 65/180/152 64/181/151 12/182/157
f 12/182/158 64/181/158 35/183/158
f 66/184/159 65/185/159 67/186/159
f 25/187/160 36/188/160 37/189/160
