# Blender 4.5.4 LTS
# www.blender.org
mtllib ai_model.mtl
o ai_model
v 0.093836 0.174846 0.503261
v -0.039545 0.135708 0.487337
v 0.075496 0.079187 0.361232
v 0.113858 0.155108 0.410352
v -0.002002 0.227772 0.492330
v 0.009778 0.326632 0.361130
v -0.104462 0.237209 0.478707
v -0.074184 0.054476 0.363370
v -0.089697 0.162796 0.441323
v -0.130511 0.143770 0.374475
v -0.119161 0.232476 0.361222
v 0.122139 0.229962 0.360594
v 0.092304 0.108899 0.078229
v 0.046431 0.035303 0.217108
v 0.080924 0.209001 0.086890
v -0.044620 0.030878 0.222847
v -0.109559 0.185569 0.093584
v -0.048435 0.298675 0.098053
v 0.049196 0.315639 0.079208
v -0.086719 0.056359 0.015401
v 0.138249 0.189028 -0.064646
v 0.072076 0.030576 -0.067269
v -0.132178 0.200165 -0.061105
v -0.120776 0.047041 -0.192700
v 0.055710 0.301720 -0.041014
v 0.078427 0.272533 -0.113114
v -0.051901 0.307949 -0.047751
v -0.084513 0.276188 -0.116844
v 0.102534 0.089056 -0.245041
v -0.000547 0.045173 -0.231823
v -0.056788 0.111558 -0.271462
v -0.105595 0.248354 -0.310831
v 0.118337 0.252596 -0.283990
v 0.011727 0.031691 -0.394920
v 0.062906 0.173544 -0.323473
v -0.051298 0.190840 -0.358676
v 0.005980 0.307014 -0.222303
v 0.011699 0.207008 -0.512629
v 0.070566 0.554130 -0.112130
v 0.075310 0.469896 -0.310690
v -0.077038 0.467997 -0.309146
v -0.079782 0.553339 -0.086434
vn 0.7672 -0.5735 0.2872
vn 0.1788 -0.8266 0.5336
vn 0.9784 0.0280 0.2049
vn 0.6019 0.6975 0.3889
vn 0.6313 0.7324 0.2552
vn 0.6423 0.7456 0.1773
vn 0.3398 0.7362 0.5853
vn -0.0064 0.7989 0.6014
vn 0.1469 -0.8457 0.5131
vn -0.7275 -0.3994 0.5579
vn -0.6911 -0.5007 0.5212
vn -0.8615 0.1811 0.4744
vn 0.7003 -0.7102 0.0720
vn 0.7053 -0.6957 0.1364
vn 0.1610 -0.9527 0.2576
vn 0.9179 -0.2851 -0.2762
vn 0.9550 -0.2953 0.0257
vn 0.9127 -0.4084 0.0113
vn -0.8474 -0.5233 -0.0904
vn 0.0589 -0.9824 0.1774
vn -0.1167 -0.0062 0.9931
vn -0.7263 -0.4182 0.5455
vn -0.1318 -0.0000 0.9913
vn -0.9580 -0.2555 0.1301
vn -0.5892 0.8069 0.0412
vn -0.5891 0.8068 0.0446
vn -0.8026 0.5929 -0.0658
vn -0.8854 0.4641 -0.0260
vn -0.1719 0.9851 0.0003
vn -0.1828 0.9811 -0.0638
vn -0.1723 0.9850 -0.0050
vn 0.6511 0.7565 0.0615
vn 0.9796 0.1250 -0.1571
vn 0.9674 0.1960 -0.1607
vn 0.9658 0.2031 -0.1610
vn 0.9487 0.2705 -0.1636
vn -0.9914 0.1184 -0.0563
vn -0.9051 0.4115 -0.1071
vn -0.8679 -0.4778 -0.1358
vn -0.9508 -0.2651 0.1604
vn 0.9119 -0.4007 0.0889
vn 0.0499 -0.9985 0.0211
vn -0.1999 -0.9766 -0.0794
vn 0.9194 -0.3853 0.0796
vn -0.9622 -0.2152 0.1671
vn 0.9359 0.0766 0.3439
vn -0.9632 -0.2417 0.1180
vn 0.9579 0.2864 0.0188
vn -0.8795 0.4732 0.0510
vn 0.8071 0.5421 0.2339
vn 0.8083 0.5886 0.0164
vn -0.8002 0.5748 0.1712
vn -0.8036 0.5848 0.1105
vn 0.0136 0.8327 0.5535
vn 0.0008 0.7406 0.6720
vn 0.0644 0.9917 -0.1113
vn -0.1583 0.9851 0.0664
vn 0.9221 -0.3856 0.0311
vn 0.3547 -0.9045 -0.2368
vn -0.1245 -0.9881 -0.0905
vn 0.0819 -0.4589 -0.8847
vn -0.1267 -0.9888 -0.0784
vn -0.1268 -0.9898 0.0651
vn -0.0387 -0.9967 -0.0713
vn -0.2462 -0.6421 -0.7260
vn 0.7770 0.6200 0.1091
vn -0.9946 0.0145 -0.1031
vn -0.5739 0.8171 -0.0549
vn -0.8424 0.5386 0.0143
vn -0.7337 0.6792 -0.0177
vn 0.9842 -0.1250 -0.1256
vn -0.1979 -0.8695 0.4527
vn 0.7544 -0.2202 -0.6183
vn 0.8637 -0.0595 -0.5005
vn -0.5530 0.5253 -0.6467
vn -0.5208 -0.4025 -0.7528
vn -0.8077 -0.4101 -0.4236
vn 0.4343 0.9008 -0.0037
vn 0.0568 0.7978 -0.6003
vn -0.4094 0.9083 -0.0858
vn 0.0934 -0.7396 -0.6665
vn -0.1040 -0.9838 -0.1459
vn -0.8093 -0.4493 -0.3784
vn 0.8446 -0.4392 -0.3063
vn 0.0051 0.9802 -0.1978
vn 0.9564 0.0257 0.2909
vn -0.0443 0.2733 0.9609
vn 0.9853 -0.1127 -0.1282
vn 0.6134 0.6261 -0.4815
vn -0.0157 0.6238 -0.7814
vn 0.5948 -0.5640 -0.5728
vn -0.8979 -0.0328 0.4389
vn -0.0003 0.7080 0.7062
vn -0.5141 -0.5972 -0.6157
vn -0.0030 -0.4760 -0.8795
vn 0.1651 0.1719 0.9712
vn 0.0230 0.0041 -0.9997
vn -0.1680 0.1104 -0.9796
vt 0.646617 0.544138
vt 0.814751 0.510188
vt 0.732040 0.600892
vt 0.697262 0.407599
vt 0.668963 0.245992
vt 0.685818 0.182105
vt 0.734115 0.294403
vt 0.871862 0.599869
vt 0.881938 0.626064
vt 0.844700 0.654912
vt 0.791225 0.289342
vt 0.801806 0.180804
vt 0.824983 0.219098
vt 0.505490 0.389812
vt 0.672543 0.389286
vt 0.632591 0.507346
vt 0.462958 0.286408
vt 0.620249 0.267110
vt 0.390787 0.986120
vt 0.314579 0.979338
vt 0.400503 0.909612
vt 0.697030 0.068617
vt 0.785458 0.090132
vt 0.767338 0.137291
vt 0.597869 0.211612
vt 0.003965 0.376707
vt 0.024169 0.328332
vt 0.003073 0.499900
vt 0.493310 0.103527
vt 0.532080 0.186669
vt 0.495753 0.240223
vt 0.758790 0.193658
vt 0.670252 0.109545
vt 0.230800 0.948924
vt 0.251645 0.893863
vt 0.245975 0.980836
vt 0.311803 0.905113
vt 0.797415 0.690344
vt 0.777413 0.650931
vt 0.882088 0.752671
vt 0.605080 0.982098
vt 0.486643 0.998743
vt 0.635428 0.942663
vt 0.496105 0.004306
vt 0.607262 0.004306
vt 0.607411 0.031827
vt 0.122019 0.238257
vt 0.075090 0.223065
vt 0.235159 0.201691
vt 0.579977 0.951598
vt 0.432061 0.983385
vt 0.416117 0.944575
vt 0.468469 0.046901
vt 0.486276 0.011971
vt 0.579801 0.053511
vt 0.581277 0.191188
vt 0.568356 0.129946
vt 0.712664 0.152802
vt 0.280508 0.532353
vt 0.362163 0.477840
vt 0.388330 0.607855
vt 0.350491 0.356467
vt 0.365847 0.420213
vt 0.229942 0.424334
vt 0.098029 0.449325
vt 0.173154 0.448431
vt 0.133820 0.546226
vt 0.177354 0.286755
vt 0.236585 0.388339
vt 0.126318 0.382920
vt 0.049222 0.000258
vt 0.141089 0.095675
vt 0.014976 0.120836
vt 0.339332 0.681165
vt 0.219575 0.948089
vt 0.058148 0.969617
vt 0.050776 0.915224
vt 0.476958 0.828762
vt 0.385043 0.867328
vt 0.437720 0.787088
vt 0.453654 0.721122
vt 0.413600 0.652627
vt 0.487170 0.617509
vt 0.721339 0.884548
vt 0.670580 0.867451
vt 0.701677 0.821793
vt 0.665429 0.823886
vt 0.208365 0.039460
vt 0.152709 0.052167
vt 0.150479 0.004361
vt 0.691826 0.618470
vt 0.739695 0.659210
vt 0.707743 0.659831
vt 0.238663 0.053824
vt 0.271198 0.023270
vt 0.222489 0.004922
vt 0.822412 0.474554
vt 0.756432 0.408778
vt 0.864195 0.409571
vt 0.323751 0.009783
vt 0.393104 0.041990
vt 0.357777 0.057812
vt 0.938406 0.682205
vt 0.874217 0.681989
vt 0.902437 0.671892
vt 0.821751 0.590196
vt 0.899977 0.540968
vt 0.874672 0.581900
vt 0.933896 0.585090
vt 0.189177 0.599527
vt 0.132457 0.598177
vt 0.275017 0.327756
vt 0.246911 0.267972
vt 0.221053 0.241032
vt 0.805235 0.323662
vt 0.305012 0.066618
vt 0.439128 0.066618
vt 0.327494 0.127718
vt 0.638254 0.915484
vt 0.551227 0.934942
vt 0.566532 0.850272
vt 0.419364 0.936314
vt 0.495460 0.845267
vt 0.038782 0.794151
vt 0.010239 0.766266
vt 0.076737 0.718740
vt 0.144752 0.759535
vt 0.564290 0.650236
vt 0.535260 0.594514
vt 0.620656 0.602871
vt 0.627575 0.737085
vt 0.535889 0.738468
vt 0.521069 0.781459
vt 0.037616 0.183725
vt 0.023778 0.129153
vt 0.137022 0.145573
vt 0.850353 0.816418
vt 0.756186 0.886397
vt 0.764598 0.832269
vt 0.770335 0.720539
vt 0.823034 0.717118
vt 0.720280 0.702366
vt 0.457024 0.031531
vt 0.448189 0.053653
vt 0.344734 0.000488
vt 0.060730 0.358527
vt 0.044690 0.517545
vt 0.049221 0.478314
vt 0.152822 0.675205
vt 0.047384 0.659886
vt 0.769690 0.807311
vt 0.664955 0.949407
vt 0.652718 0.884261
vt 0.792099 0.941834
vt 0.659694 0.996635
vt 0.819128 0.999528
vt 0.188104 0.777553
vt 0.033263 0.665643
vt 0.215299 0.740535
vt 0.307165 0.648679
vt 0.079267 0.845857
s 1
usemtl m_b26a0cc1-4f81-c673-f369-0729e70f0ee4
f 1/1/1 3/2/1 4/3/1
f 1/1/2 2/4/2 3/2/2
f 4/5/3 12/6/3 1/7/3
f 1/8/4 12/9/5 6/10/6
f 5/11/7 1/7/7 6/12/7
f 7/13/8 5/11/8 6/12/8
f 2/14/9 8/15/9 3/16/9
f 2/14/10 9/17/10 10/18/10
f 8/15/11 2/14/11 10/18/11
f 10/19/12 9/20/12 11/21/12
f 14/22/13 3/23/14 8/24/15
f 4/5/16 3/25/16 12/6/16
f 12/26/17 3/27/14 13/28/18
f 3/29/14 14/30/13 13/31/18
f 8/24/19 10/32/19 16/33/19
f 8/24/20 16/33/20 14/22/20
f 1/34/21 5/35/21 2/36/21
f 9/20/22 2/36/22 7/37/22
f 7/37/23 2/36/23 5/35/23
f 9/20/24 7/37/24 11/21/24
f 6/10/25 11/38/25 7/39/25
f 6/10/26 18/40/27 11/38/28
f 18/41/29 6/42/30 19/43/31
f 19/44/32 6/45/6 12/46/5
f 13/47/33 15/48/34 12/49/35
f 12/50/35 15/51/34 19/52/36
f 10/53/37 11/54/28 17/55/38
f 17/56/39 16/57/39 10/58/39
f 20/59/40 16/60/40 17/61/40
f 13/62/41 14/63/41 22/64/41
f 22/64/42 14/63/42 16/60/42
f 22/64/43 16/60/43 20/59/43
f 13/65/44 22/66/44 21/67/44
f 23/68/45 24/69/45 20/70/45
f 21/71/46 15/72/46 13/73/46
f 23/74/47 20/59/47 17/61/47
f 11/75/28 18/76/27 17/77/38
f 15/78/48 25/79/48 19/80/48
f 18/81/49 27/82/49 17/83/49
f 15/84/50 21/85/50 25/86/50
f 25/86/51 21/85/51 26/87/51
f 27/88/52 23/89/52 17/90/52
f 23/91/53 27/92/53 28/93/53
f 25/94/54 27/88/55 19/95/56
f 19/95/31 27/88/57 18/96/29
f 22/97/58 29/98/58 21/99/58
f 29/100/59 22/101/59 30/102/59
f 29/103/60 30/104/61 31/105/62
f 24/69/63 22/66/63 20/70/63
f 22/106/64 24/107/64 30/108/64
f 24/107/65 31/109/65 30/108/65
f 21/67/66 33/110/66 26/111/66
f 24/112/67 23/68/67 32/113/67
f 32/113/68 23/68/69 28/114/70
f 21/99/71 29/98/71 33/115/71
f 31/116/62 34/117/72 29/118/60
f 33/119/73 29/120/73 35/121/73
f 35/121/74 29/120/74 34/122/74
f 35/121/75 34/122/75 31/123/75
f 31/124/76 24/125/76 32/126/76
f 31/124/77 32/126/77 36/127/77
f 37/128/78 26/129/78 33/130/78
f 33/130/79 32/131/79 37/128/79
f 32/131/68 28/132/70 37/128/80
f 31/123/81 36/133/81 35/121/81
f 35/134/82 36/135/82 38/136/82
f 38/137/83 36/138/83 32/139/83
f 33/140/84 35/141/84 38/137/84
f 33/140/85 38/137/85 32/139/85
f 25/86/86 26/87/86 39/142/86
f 27/143/55 25/144/54 39/145/87
f 26/146/88 40/147/89 41/148/90
f 40/147/89 26/149/88 37/150/91
f 27/92/92 42/151/92 28/93/92
f 28/152/93 26/153/93 41/154/93
f 37/155/94 28/152/94 41/154/94
f 37/155/95 41/154/90 40/156/89
f 42/157/96 27/158/96 39/159/96
f 39/159/97 26/160/97 28/161/97
f 39/159/98 28/161/98 42/157/98
