# Blender 4.5.4 LTS
# www.blender.org
mtllib ai_model.mtl
o unknown
v 0.315517 0.597585 -0.050537
v 0.286707 0.496142 -0.070824
v 0.273794 0.543790 -0.001151
v 0.153489 0.327187 -0.056211
v 0.217475 0.519532 -0.055094
v 0.147669 0.393664 -0.092609
v -0.050709 0.104044 -0.149658
v 0.086177 0.311465 -0.096491
v 0.190410 0.347412 -0.111793
v 0.105880 0.212539 -0.122964
v 0.020256 0.104511 -0.116259
v 0.039743 0.237865 -0.087324
v -0.014515 0.187434 -0.078930
v 0.132332 0.452199 0.004979
v -0.014890 0.208119 -0.006780
v 0.020155 0.059516 -0.140974
v 0.094989 0.155514 -0.206107
v 0.056795 0.018278 -0.195568
v -0.000883 0.337584 0.022629
v 0.192346 0.554265 0.027316
v 0.222492 0.624508 0.070036
v 0.168898 0.654359 0.073354
v -0.088005 0.241733 -0.016681
v -0.024267 0.348811 0.073693
v -0.062521 0.354587 0.027293
v -0.253786 0.194360 0.047588
v 0.077033 0.480204 0.052257
v -0.099438 0.359994 0.076943
v 0.023366 0.467999 0.084317
v -0.052092 0.425024 0.128965
v -0.154148 0.272904 0.093841
v -0.242322 0.159885 0.102119
v -0.219809 0.330945 0.105426
v -0.225581 0.280908 0.163835
v -0.108930 0.429075 0.144013
v -0.144839 0.522608 0.188826
v -0.150724 0.452623 0.218242
v -0.321909 0.016351 -0.018566
v -0.340434 0.106571 0.072917
v -0.304622 -0.008262 0.033500
v -0.084179 -0.021112 -0.197599
v -0.187181 -0.058165 -0.089406
v -0.162381 0.054075 -0.016625
v -0.039929 0.591620 0.176599
v 0.004830 0.680962 0.229538
v -0.045650 0.570327 0.241346
v -0.088772 0.587335 0.223942
v -0.080287 0.601765 0.239291
v 0.214980 0.244781 -0.162652
v 0.208903 0.287418 -0.195737
v 0.162220 0.148321 -0.250029
v 0.117223 0.648880 0.142948
v 0.085860 0.570410 0.109254
v 0.017209 0.594059 0.130372
v 0.045586 0.634921 0.169754
vn 0.4488 0.0510 -0.8922
vn 0.9134 -0.1871 -0.3616
vn 0.8666 -0.3223 0.3810
vn 0.7071 -0.5157 0.4837
vn -0.1402 0.2323 -0.9625
vn -0.6032 0.7403 0.2968
vn -0.7233 0.2368 0.6486
vn -0.1034 0.3258 -0.9398
vn -0.0745 0.3226 -0.9436
vn -0.1289 0.2759 -0.9525
vn -0.7522 0.5777 -0.3171
vn -0.5393 0.3676 0.7577
vn -0.7705 0.2529 0.5851
vn 0.7622 -0.5753 0.2970
vn 0.8350 -0.5342 0.1318
vn 0.7863 -0.5204 0.3330
vn 0.3408 -0.1582 -0.9267
vn 0.2184 -0.5572 0.8012
vn 0.3838 -0.2490 0.8892
vn 0.3753 -0.2480 0.8931
vn 0.6301 -0.0884 0.7714
vn 0.8747 0.1620 0.4568
vn -0.5356 0.4285 0.7277
vn 0.3589 -0.3028 -0.8829
vn 0.3980 -0.3676 -0.8405
vn -0.8404 0.5382 0.0641
vn -0.6534 0.6342 -0.4134
vn -0.4018 0.6884 -0.6039
vn -0.5212 0.6401 -0.5645
vn -0.3549 0.4556 -0.8164
vn 0.8956 0.4288 -0.1183
vn 0.3790 0.4449 -0.8115
vn 0.1781 0.4537 0.8732
vn -0.4549 0.4275 -0.7812
vn -0.4552 0.4472 -0.7700
vn -0.3232 0.4273 -0.8444
vn 0.8430 -0.5158 0.1523
vn -0.0745 -0.2112 0.9746
vn 0.3299 -0.2429 0.9122
vn -0.1847 -0.0437 0.9818
vn -0.2456 0.3501 -0.9039
vn -0.5493 0.1632 0.8195
vn -0.2672 -0.1457 0.9525
vn -0.2634 0.3515 -0.8984
vn 0.2058 0.6603 0.7222
vn 0.4497 -0.5721 0.6858
vn 0.6376 -0.6820 0.3584
vn 0.7740 0.0704 -0.6293
vn -0.4292 0.4104 -0.8046
vn -0.4262 0.3860 -0.8181
vn -0.4012 0.4980 -0.7688
vn -0.6463 0.6171 -0.4489
vn -0.6366 0.7683 0.0666
vn -0.6790 0.7334 -0.0347
vn -0.6786 0.4792 -0.5567
vn -0.5594 0.6694 -0.4888
vn 0.7349 -0.2371 -0.6354
vn 0.2461 -0.5081 0.8254
vn 0.6083 -0.3083 0.7314
vn 0.3941 -0.4417 0.8060
vn -0.0546 -0.5992 0.7987
vn 0.0650 0.1505 0.9865
vn -0.9798 0.1622 0.1169
vn -0.9807 0.0799 0.1785
vn -0.9753 0.0230 0.2196
vn 0.6085 -0.4257 0.6697
vn 0.5389 -0.3656 0.7589
vn 0.3339 -0.1923 0.9228
vn 0.1498 0.3537 -0.9233
vn -0.9747 0.2079 0.0818
vn 0.2014 -0.0857 0.9757
vn 0.9637 -0.2612 -0.0556
vn 0.0818 0.2833 -0.9555
vn 0.8188 -0.4394 0.3695
vn -0.0861 0.3749 -0.9230
vn -0.0515 0.4154 -0.9082
vn -0.2364 0.3427 -0.9092
vn 0.6435 -0.4211 0.6393
vn 0.6943 -0.4742 0.5414
vn -0.8741 0.2489 0.4172
vn -0.9409 0.2976 0.1619
vn -0.5026 0.4635 -0.7297
vn -0.9287 -0.3403 0.1475
vn -0.0887 -0.3480 0.9333
vn 0.4848 -0.4650 0.7408
vn 0.4707 -0.4772 0.7421
vn 0.5005 -0.4511 0.7389
vn -0.6509 0.4705 -0.5958
vn -0.5211 0.6677 0.5317
vn 0.4814 -0.5472 0.6847
vn 0.4814 -0.5493 0.6830
vn 0.4815 -0.5493 0.6830
vn 0.5150 -0.4378 0.7369
vn 0.5310 -0.4089 0.7422
vn -0.5904 -0.4022 -0.6998
vn -0.5954 0.0612 -0.8011
vn -0.5538 0.2575 -0.7918
vn 0.9101 -0.4143 0.0095
vn 0.9180 -0.3538 -0.1791
vn 0.8712 -0.2905 -0.3958
vn -0.2319 -0.9178 -0.3223
vn -0.5169 0.8257 0.2259
vn -0.7370 0.3136 0.5987
vn -0.3330 0.1135 0.9361
vn 0.5813 -0.6219 0.5246
vn -0.5782 0.6104 -0.5413
vn -0.6716 0.6878 -0.2754
vn -0.6177 0.7139 -0.3297
vn -0.3280 -0.3029 0.8948
vn 0.0264 0.0942 0.9952
vn 0.1950 0.4472 -0.8729
vn 0.2987 0.3990 -0.8669
vn 0.8725 -0.4652 0.1492
vn -0.5534 0.1353 0.8219
vn -0.8776 0.4398 0.1908
vn -0.0388 -0.1818 0.9826
vn 0.7844 -0.5313 0.3200
vn 0.5423 -0.5299 0.6520
vn 0.1724 -0.2898 0.9415
vn -0.0043 -0.1180 0.9930
vn -0.5792 0.4466 0.6819
vn 0.5261 -0.4704 0.7084
vn 0.4958 -0.4994 0.7105
vn 0.5045 -0.4915 0.7099
vn 0.7984 -0.5807 0.1590
vn 0.2732 -0.5516 -0.7881
vn 0.7828 -0.6214 0.0315
vn 0.9133 -0.1604 -0.3744
vn 0.7096 0.0365 -0.7036
vn -0.6372 0.7062 0.3087
vn 0.1469 -0.4810 -0.8643
vn -0.4569 0.4221 -0.7830
vn 0.2694 -0.9603 -0.0724
vn 0.4725 -0.5211 0.7107
vn 0.4816 -0.5492 0.6829
vn -0.5016 0.4232 -0.7546
vn -0.5524 -0.8094 -0.1992
vn -0.2555 0.9481 -0.1891
vn 0.3808 -0.2390 0.8932
vn -0.3512 0.7647 -0.5403
vn -0.1731 0.3667 -0.9141
vn -0.1253 0.4333 -0.8925
vn -0.1472 0.3866 -0.9104
vn -0.2299 0.3240 -0.9177
vn -0.2114 0.3267 -0.9212
vn 0.3876 -0.4902 0.7807
vn 0.4365 -0.4553 0.7760
vn 0.6272 -0.4194 0.6563
vn -0.8927 0.3638 0.2658
vn -0.8682 0.3530 0.3488
vt 0.186676 0.954748
vt 0.208392 0.779580
vt 0.290232 0.861895
vt 0.922599 0.232242
vt 0.909242 0.263069
vt 0.813721 0.231689
vt 0.655518 0.509033
vt 0.705297 0.679744
vt 0.542540 0.611670
vt 0.363618 0.208824
vt 0.395821 0.219848
vt 0.354004 0.282471
vt 0.468506 0.151855
vt 0.826416 0.000000
vt 0.836328 0.021129
vt 0.719727 0.008789
vt 0.370605 0.977295
vt 0.367575 0.963750
vt 0.416260 0.960693
vt 0.075789 0.170086
vt 0.107877 0.164189
vt 0.086182 0.247803
vt 0.064397 0.211480
vt 0.921570 0.918204
vt 0.939970 0.944198
vt 0.885498 0.946777
vt 0.997559 0.931152
vt 0.963867 0.846436
vt 0.940186 0.895264
vt 0.034912 0.843994
vt 0.062540 0.842837
vt 0.044503 0.884067
vt 0.091356 0.878958
vt 0.042580 0.940774
vt 0.093490 0.927741
vt 0.100095 0.829920
vt 0.968018 0.779785
vt 0.968018 0.647705
vt 0.988525 0.665283
vt 0.511045 0.919246
vt 0.564453 0.951904
vt 0.501432 0.945274
vt 0.609441 0.948062
vt 0.577926 0.907506
vt 0.536905 0.861440
vt 0.518799 0.675293
vt 0.518066 0.832764
vt 0.325018 0.633167
vt 0.375000 0.624512
vt 0.408203 0.605225
vt 0.319600 0.729453
vt 0.269197 0.667593
vt 0.265610 0.768782
vt 0.237061 0.752197
vt 0.943150 0.837598
vt 0.897461 0.897461
vt 0.853271 0.949219
vt 0.939697 0.878174
vt 0.857836 0.201928
vt 0.727539 0.195557
vt 0.902588 0.179688
vt 0.791992 0.177246
vt 0.624720 0.262213
vt 0.713161 0.243470
vt 0.651367 0.322998
vt 0.144043 0.003418
vt 0.228782 0.007575
vt 0.200634 0.040755
vt 0.130371 0.711670
vt 0.040527 0.713135
vt 0.135742 0.644531
vt 0.308594 0.107910
vt 0.226001 0.085567
vt 0.312412 0.062428
vt 0.718018 0.014404
vt 0.676267 0.044592
vt 0.610678 0.020512
vt 0.599186 0.054801
vt 0.681885 0.115234
vt 0.621582 0.114990
vt 0.279607 0.491023
vt 0.286076 0.521795
vt 0.180708 0.497056
vt 0.260042 0.462642
vt 0.209201 0.429512
vt 0.275400 0.430470
vt 0.323242 0.399414
vt 0.838135 0.039307
vt 0.878123 0.007620
vt 0.944092 0.041260
vt 0.483398 0.037598
vt 0.577393 0.006348
vt 0.599747 0.037650
vt 0.001221 0.861328
vt 0.028076 0.861328
vt 0.011963 0.929932
vt 0.513612 0.349869
vt 0.488179 0.279591
vt 0.559848 0.319801
vt 0.548096 0.420166
vt 0.180908 0.387695
vt 0.211920 0.283971
vt 0.225392 0.351772
vt 0.274900 0.204758
vt 0.316303 0.272759
vt 0.534456 0.123477
vt 0.562988 0.193848
vt 0.498535 0.213623
vt 0.402800 0.797890
vt 0.411671 0.720403
vt 0.501336 0.804631
vt 0.472656 0.699219
vt 0.351959 0.861071
vt 0.483705 0.891706
vt 0.476530 0.951215
vt 0.339571 0.929916
vt 0.864746 0.968750
vt 0.733475 0.961729
vt 0.792678 0.884793
vt 0.915113 0.488492
vt 0.828330 0.500481
vt 0.851214 0.463021
vt 0.950195 0.421875
vt 0.907471 0.417969
vt 0.841553 0.134766
vt 0.904785 0.174316
vt 0.768169 0.172312
vt 0.818661 0.126661
vt 0.762065 0.107622
vt 0.741185 0.154041
vt 0.693359 0.096680
vt 0.480670 0.564427
vt 0.548584 0.578613
vt 0.471071 0.664995
vt 0.542725 0.605957
vt 0.497968 0.479707
vt 0.444336 0.417969
vt 0.561986 0.449639
vt 0.131481 0.151329
vt 0.178223 0.210205
vt 0.147307 0.286407
vt 0.115692 0.210387
vt 0.453046 0.071986
vt 0.431396 0.160889
vt 0.398159 0.129735
vt 0.450684 0.071533
vt 0.464844 0.042725
vt 0.401275 0.067201
vt 0.333496 0.136475
vt 0.366699 0.044922
vt 0.311279 0.114746
vt 0.117349 0.563556
vt 0.031583 0.540841
vt 0.043945 0.492920
vt 0.081625 0.486024
vt 0.044922 0.485596
vt 0.114746 0.455078
vt 0.278491 0.133409
vt 0.258545 0.176514
vt 0.223633 0.183105
vt 0.632812 0.972900
vt 0.672363 0.983398
vt 0.561768 0.978027
vt 0.689697 0.204102
vt 0.624512 0.206543
vt 0.573403 0.165032
vt 0.728516 0.163574
vt 0.697235 0.132088
vt 0.572554 0.131880
vt 0.706374 0.364282
vt 0.740236 0.313833
vt 0.820557 0.386719
vt 0.766357 0.416016
vt 0.758789 0.482178
vt 0.675224 0.495580
vt 0.617865 0.401104
vt 0.601807 0.511719
vt 0.392082 0.404035
vt 0.372454 0.353120
vt 0.401031 0.327618
vt 0.792524 0.774590
vt 0.834942 0.900324
vt 0.732914 0.900679
vt 0.902999 0.810055
vt 0.701162 0.727521
vt 0.612246 0.879812
vt 0.601318 0.793945
vt 0.162744 0.950375
vt 0.116943 0.955078
vt 0.116943 0.813965
vt 0.315523 0.829327
vt 0.327881 0.835205
vt 0.318604 0.895508
vt 0.216797 0.715576
vt 0.163239 0.724214
vt 0.225240 0.666218
vt 0.163244 0.666033
vt 0.241699 0.582275
vt 0.164639 0.581963
vt 0.888428 0.299316
vt 0.942689 0.364600
vt 0.895644 0.360536
vt 0.825195 0.246338
vt 0.792753 0.263890
vt 0.851234 0.369517
vt 0.031738 0.375244
vt 0.052490 0.452393
vt 0.034424 0.494141
s 1
usemtl m_82a7a9c6-ee35-405a-0f90-ce092da8d220
f 2/1/1 1/2/2 3/3/3
f 2/4/4 3/5/4 4/6/4
f 5/7/5 1/8/2 2/9/1
f 5/10/6 3/11/6 1/12/6
f 3/11/7 5/10/7 4/13/7
f 5/14/8 2/15/8 9/16/8
f 9/17/9 6/18/9 5/19/9
f 6/20/10 9/21/10 7/22/10
f 6/20/11 7/22/11 8/23/11
f 4/24/12 6/25/12 8/26/12
f 6/25/13 4/24/13 5/27/13
f 2/28/14 4/24/14 9/29/14
f 9/30/15 4/31/16 10/32/17
f 10/32/18 4/31/18 12/33/18
f 10/32/19 12/33/20 11/34/21
f 11/34/21 12/33/20 13/35/22
f 12/33/23 4/31/23 8/36/23
f 9/37/15 10/38/17 7/39/24
f 7/40/24 10/41/17 11/42/25
f 8/43/26 7/40/26 12/44/26
f 12/44/27 7/40/28 13/45/29
f 14/46/30 13/45/30 23/47/30
f 11/48/21 13/49/22 15/50/31
f 11/48/32 16/51/32 7/52/32
f 17/53/33 7/52/33 16/51/33
f 7/52/34 17/53/35 51/54/36
f 14/55/37 15/56/37 13/57/37
f 15/56/38 14/55/39 19/58/40
f 14/59/41 23/60/41 22/61/41
f 22/61/42 23/60/43 19/62/40
f 20/63/44 14/64/44 22/65/44
f 32/66/45 15/67/45 23/68/45
f 15/69/46 32/70/46 11/71/46
f 15/72/38 19/73/40 23/74/43
f 32/75/47 23/76/47 24/77/47
f 24/77/48 23/76/48 25/78/48
f 25/78/49 23/76/50 26/79/51
f 25/78/52 26/79/53 31/80/54
f 25/81/52 28/82/55 29/83/56
f 25/81/57 29/83/57 24/84/57
f 24/84/58 29/83/59 30/85/60
f 24/84/58 30/85/60 28/86/61
f 24/84/62 28/86/62 31/87/62
f 26/88/51 23/89/50 13/90/29
f 26/91/51 13/92/29 7/93/28
f 28/94/55 25/95/52 31/96/54
f 34/97/63 26/98/64 32/99/65
f 34/97/66 32/99/67 31/100/68
f 31/101/69 26/102/69 33/103/69
f 26/102/64 34/104/63 33/105/70
f 31/106/68 32/107/67 24/108/71
f 31/109/72 33/110/73 35/111/74
f 35/111/75 33/110/76 36/112/77
f 31/109/72 35/111/74 34/113/78
f 34/113/78 35/111/74 37/114/79
f 34/113/80 37/114/80 36/115/80
f 34/113/81 36/115/81 33/116/81
f 26/117/82 7/118/82 38/119/82
f 39/120/83 38/121/83 40/122/83
f 39/120/84 40/122/84 32/123/84
f 32/123/85 40/122/86 43/124/87
f 26/125/88 38/126/88 39/127/88
f 26/125/89 39/127/89 32/128/89
f 43/129/90 40/130/91 42/131/92
f 43/132/87 16/133/93 32/134/85
f 32/134/94 16/133/94 11/135/94
f 42/136/95 38/137/96 41/138/97
f 45/139/98 46/140/98 35/141/98
f 45/139/99 35/141/75 44/142/100
f 44/143/100 35/144/75 36/145/77
f 47/146/101 44/143/101 46/147/101
f 46/147/102 44/143/102 36/145/102
f 47/148/103 36/145/103 37/149/103
f 46/150/104 47/148/104 37/149/104
f 46/150/105 37/149/105 35/151/105
f 45/152/106 44/153/106 47/154/106
f 45/152/107 47/154/107 48/155/107
f 48/155/108 47/154/108 36/156/108
f 48/155/109 36/156/109 46/157/109
f 45/152/110 48/155/110 46/157/110
f 22/158/111 21/159/112 20/160/113
f 27/161/114 22/162/115 19/163/116
f 14/164/117 20/165/113 21/166/112
f 14/164/118 21/166/118 19/167/118
f 19/167/116 21/166/119 27/168/114
f 27/168/120 21/166/120 22/169/120
f 49/170/121 50/171/121 17/172/121
f 49/170/122 16/173/123 18/174/124
f 49/170/125 18/174/126 51/175/127
f 49/170/128 51/175/36 50/176/129
f 50/176/129 51/175/36 17/177/35
f 16/178/130 49/179/130 17/180/130
f 41/181/131 51/182/127 18/183/126
f 51/182/36 41/181/132 7/184/34
f 42/185/133 41/181/133 18/183/133
f 42/185/134 18/183/124 16/186/123
f 42/185/92 16/186/135 43/187/90
f 7/188/136 41/189/97 38/190/96
f 40/191/137 38/192/137 42/193/137
f 55/194/138 52/195/139 54/196/140
f 54/196/141 52/195/142 53/197/143
f 28/198/144 54/196/141 29/199/145
f 29/199/145 54/196/141 53/197/143
f 53/200/146 52/201/139 55/202/138
f 53/200/147 55/202/147 29/203/147
f 29/203/148 55/202/148 30/204/148
f 30/204/149 55/202/149 54/205/149
f 54/206/150 28/207/150 30/208/150
