# Blender 4.5.4 LTS
# www.blender.org
mtllib ai_model.mtl
o unknown
v 0.045081 0.159621 0.451369
v 0.025338 0.152697 0.450139
v 0.021188 0.250059 0.459888
v 0.028711 0.150700 0.375839
v -0.040609 0.160046 0.448788
v -0.028836 0.143580 0.380623
v -0.042006 0.259420 0.448551
v 0.046635 0.259876 0.451145
v 0.016230 0.279480 0.423504
v 0.050941 0.256133 0.413510
v -0.046255 0.160114 0.362390
v -0.029702 0.171870 0.346913
v 0.045215 0.164966 0.361505
v -0.030241 0.251501 0.353483
v -0.048444 0.259734 0.367904
v 0.043726 0.257805 0.361244
v 0.027460 0.248302 0.339620
v 0.029063 0.171950 0.343310
v 0.017559 0.278974 0.390741
v -0.010923 0.290698 0.406323
v -0.015133 0.323782 0.417958
v 0.014079 0.351938 0.439854
v 0.014464 0.323544 0.393616
v -0.018470 0.420238 0.504383
v -0.016845 0.399416 0.390791
v -0.017962 0.450842 0.427861
v 0.015976 0.397040 0.390511
v 0.014943 0.446299 0.426909
v 0.012949 0.330503 0.322210
v -0.011910 0.329550 0.317023
v 0.017260 0.409461 0.293135
v 0.015917 0.409689 0.345484
v -0.016606 0.410165 0.343868
v -0.017221 0.406635 0.291463
v -0.016220 0.322194 0.132675
v 0.016183 0.317696 0.131195
v -0.017310 0.391519 0.094002
v 0.016852 0.398524 0.097960
v 0.014156 0.436908 0.501442
v 0.016622 0.276661 0.055210
v 0.017343 0.357534 0.022884
v -0.017478 0.354936 0.018899
v -0.017007 0.279606 0.057030
v -0.016407 0.250351 0.000197
v 0.015231 0.248562 0.000146
v -0.017945 0.355082 -0.140160
v 0.018074 0.355572 -0.144557
v -0.023941 0.229497 -0.145507
v -0.020936 0.325284 -0.147668
v 0.018315 0.237009 -0.146165
v 0.027891 0.362893 -0.177801
v -0.028163 0.363837 -0.178383
v -0.028668 0.211297 -0.192309
v 0.029443 0.212880 -0.147338
v 0.028262 0.321640 -0.160467
v 0.024302 0.192508 -0.189221
v 0.029797 0.190683 -0.379236
v -0.025073 0.187033 -0.197535
v -0.030497 0.320387 -0.175449
v -0.027198 0.383651 -0.248250
v 0.026387 0.385146 -0.247185
v -0.029282 0.189816 -0.379330
v -0.028382 0.213268 -0.423245
v 0.027446 0.221189 -0.435838
v -0.027961 0.396204 -0.344540
v -0.023398 0.258876 -0.471945
v 0.001125 0.271606 -0.504185
v -0.023811 0.339460 -0.428600
v 0.024386 0.348971 -0.418609
v 0.028531 0.377201 -0.358945
v 0.022872 0.400227 -0.344714
v -0.023027 0.373203 -0.370925
v -0.016607 0.544241 0.409777
v 0.016439 0.543477 0.411387
v 0.014283 0.476713 0.352865
v 0.000019 0.544914 0.344469
v -0.014480 0.474072 0.356621
vn -0.0266 -0.1007 0.9946
vn 0.3284 -0.9437 0.0403
vn -0.1125 -0.9701 0.2149
vn -0.0316 -0.1009 0.9944
vn -0.1766 -0.0001 0.9843
vn -0.7689 -0.0093 0.6393
vn -0.7630 -0.0092 0.6463
vn -0.0245 0.6995 0.7142
vn -0.3487 0.8558 0.3820
vn -0.0215 0.8042 0.5940
vn -0.0250 0.8072 0.5897
vn 0.3259 -0.0029 0.9454
vn 0.9932 -0.0151 0.1152
vn 0.1254 -0.9916 0.0323
vn 0.0325 -0.7248 -0.6882
vn -0.7126 -0.7000 0.0460
vn 0.0376 -0.8147 -0.5786
vn -0.7021 0.0538 -0.7100
vn -0.6891 0.0502 -0.7229
vn -0.6177 0.0324 -0.7858
vn -0.6122 0.0303 -0.7901
vn 0.0319 -0.7265 -0.6864
vn 0.6305 -0.7748 -0.0451
vn 0.7968 0.0111 -0.6042
vn 0.7446 -0.0166 -0.6673
vn -0.0198 -0.9392 -0.3429
vn 0.9981 -0.0615 -0.0022
vn 0.9906 0.0155 -0.1362
vn 0.5894 0.8059 -0.0556
vn 0.5721 0.8200 -0.0161
vn 0.5541 0.8325 -0.0028
vn 0.5593 0.8289 -0.0065
vn -0.0265 0.8009 -0.5983
vn -0.0192 0.8577 -0.5139
vn -0.2134 0.2736 -0.9379
vn -0.0393 0.9253 -0.3771
vn -0.1158 0.7355 -0.6675
vn 0.5363 0.8440 0.0087
vn -0.3815 0.8560 0.3488
vn -0.5985 -0.3325 0.7288
vn -0.4493 -0.2093 0.8685
vn 0.9994 0.0323 -0.0115
vn 0.9970 0.0667 0.0394
vn -0.9967 -0.0138 0.0795
vn -0.9975 -0.0255 0.0652
vn -0.6691 0.7410 0.0563
vn -0.0150 0.7856 -0.6185
vn -0.5580 0.1129 -0.8222
vn -0.4722 0.0241 -0.8812
vn -0.5432 0.0962 -0.8341
vn -0.6230 0.1877 -0.7594
vn -0.0365 -0.9971 -0.0673
vn -0.0563 -0.9967 -0.0588
vn 0.0244 -0.9960 -0.0860
vn 0.0821 -0.6635 0.7437
vn -0.9996 -0.0260 -0.0095
vn -0.9998 -0.0131 -0.0119
vn -1.0000 0.0015 -0.0091
vn -1.0000 0.0013 -0.0042
vn 0.0573 0.5846 -0.8093
vn 0.0362 0.5944 -0.8034
vn 0.9994 -0.0044 0.0344
vn 0.9995 -0.0291 0.0150
vn 0.9996 -0.0219 0.0155
vn 0.9990 0.0415 -0.0171
vn 0.0586 -0.9935 -0.0981
vn 0.9990 -0.0438 -0.0016
vn 0.9986 -0.0521 0.0065
vn 0.8503 -0.5252 0.0324
vn 0.9992 -0.0390 0.0104
vn 0.9952 0.0941 0.0251
vn 0.0006 0.9627 0.2704
vn 0.0723 0.9721 0.2230
vn -0.9988 -0.0348 -0.0339
vn -0.7718 -0.6347 0.0382
vn -0.9985 -0.0525 -0.0171
vn -0.9984 -0.0568 0.0009
vn -0.9999 -0.0032 0.0137
vn -0.9168 -0.3982 0.0305
vn 0.9099 -0.4136 0.0309
vn -0.8663 0.4932 -0.0795
vn -0.1920 0.9785 -0.0748
vn 0.9999 -0.0054 0.0106
vn -0.0787 0.9951 -0.0599
vn -0.0789 0.9953 -0.0556
vn -0.0786 0.9950 -0.0609
vn 0.9999 -0.0078 0.0096
vn 0.3494 -0.5501 0.7585
vn 0.0148 0.9999 -0.0040
vn -0.0783 0.9947 -0.0661
vn 0.9999 -0.0125 0.0008
vn 0.9999 -0.0072 0.0073
vn -0.1234 0.8707 -0.4762
vn -0.0170 0.8989 -0.4378
vn -0.9337 0.3208 -0.1590
vn -0.0980 -0.8668 0.4890
vn -0.0513 -0.8789 0.4743
vn -1.0000 -0.0051 0.0024
vn -0.9999 0.0072 0.0139
vn -0.0531 -0.8881 0.4566
vn -0.0526 -0.8882 0.4565
vn -0.0520 -0.8884 0.4561
vn -0.0496 -0.8891 0.4550
vn 0.9997 -0.0213 0.0094
vn -0.0745 0.9972 0.0011
vn -0.9982 0.0228 0.0547
vn -0.0150 0.9998 -0.0118
vn -0.9940 0.0051 0.1092
vn -0.9625 0.0360 0.2689
vn -0.0126 -0.9960 0.0890
vn 0.1677 -0.8993 0.4040
vn 0.1052 -0.6166 0.7802
vn -0.0562 -0.9954 0.0774
vn 0.9968 -0.0047 0.0802
vn 0.9903 0.0005 0.1390
vn 0.0182 0.9744 0.2242
vn 0.0135 0.9757 0.2189
vn 0.0106 0.9768 0.2140
vn 0.0142 0.9755 0.2196
vn 0.0224 -0.0383 0.9990
vn 0.3496 0.1160 0.9297
vn 0.9116 0.0590 0.4069
vn 0.9978 0.0163 0.0648
vn -0.2641 -0.8896 0.3726
vn -0.2882 -0.8687 0.4030
vn -0.0728 -0.9072 0.4143
vn 0.4808 -0.8298 0.2834
vn -0.0222 -0.8120 0.5832
vn -0.1371 -0.2279 0.9640
vn -0.9462 0.0135 0.3232
vn -0.9543 0.0441 0.2957
vn -0.9563 0.0513 0.2878
vn -0.9596 0.0699 0.2726
vn -0.9633 0.0173 0.2680
vn -0.9929 -0.0342 0.1136
vn -0.9983 0.0571 0.0080
vn -0.9986 0.0537 0.0014
vn -0.9973 0.0721 0.0145
vn 0.9999 0.0114 0.0045
vn 0.9999 0.0108 0.0044
vn 0.9945 0.1037 0.0117
vn 0.0129 0.9522 0.3051
vn -0.0322 0.9617 0.2723
vn 0.9412 0.1380 0.3083
vn 0.8365 -0.0057 0.5479
vn -0.9883 -0.1509 0.0206
vn -0.9913 -0.1308 0.0157
vn -0.9997 0.0252 0.0039
vn 0.0144 -0.9677 -0.2517
vn 0.0541 -0.9691 -0.2408
vn 0.0033 -0.8560 -0.5170
vn -0.0014 -0.8437 -0.5369
vn 1.0000 0.0067 0.0009
vn 0.9998 0.0085 -0.0201
vn 0.9999 0.0077 -0.0085
vn -0.0302 0.9911 0.1295
vn -0.9993 0.0366 -0.0009
vn -1.0000 -0.0039 -0.0071
vn -0.9999 -0.0165 -0.0014
vn -1.0000 -0.0031 -0.0068
vn -0.9999 0.0073 -0.0117
vn -0.9973 0.0719 0.0173
vn -0.4991 -0.6064 -0.6190
vn -0.9818 -0.0782 -0.1733
vn -0.7855 -0.4072 -0.4661
vn -0.0182 -0.8080 -0.5890
vn -0.9969 0.0329 -0.0712
vn -0.9969 0.0335 -0.0718
vn -0.0338 0.8001 -0.5989
vn -0.0657 0.8617 -0.5032
vn -0.0373 0.8074 -0.5889
vn 0.9957 0.0354 -0.0859
vn -0.8147 0.2715 -0.5125
vn -0.0078 0.7428 -0.6694
vn 0.9464 0.0653 -0.3163
vn 0.9993 0.0107 -0.0357
vn 0.0297 0.9027 -0.4292
vn 0.9714 0.2376 0.0017
vn -0.0774 0.9849 0.1551
vn -0.0712 0.8929 -0.4447
vn -0.0801 0.9818 -0.1721
vn -0.0439 0.5174 -0.8546
vn 0.0909 0.7590 -0.6447
vn 0.7741 0.5417 -0.3275
vn -0.9999 0.0143 -0.0009
vn -0.0511 0.6401 0.7666
vn -0.2330 0.5921 0.7715
vn -0.2114 0.5976 0.7734
vn -0.0223 0.6456 0.7634
vn 0.9998 -0.0186 -0.0110
vn 0.9999 -0.0140 0.0088
vn 0.9999 -0.0162 0.0048
vn 0.9997 -0.0180 -0.0163
vn 0.9576 0.1718 -0.2313
vn 0.0223 0.9996 0.0160
vn -0.8589 0.4653 -0.2139
vn -0.7397 0.6649 -0.1042
vn -0.9906 0.0609 -0.1225
vn -0.9989 0.0054 -0.0471
vn -0.1388 -0.9395 -0.3131
vn 0.0353 -0.9243 -0.3800
vn -0.0429 -0.6324 -0.7735
vn -0.0475 -0.6091 -0.7917
vn -0.1150 -0.1450 -0.9827
vn -0.0611 -0.0495 -0.9969
vn -0.2288 0.0785 -0.9703
vt 0.709385 0.610629
vt 0.726074 0.618896
vt 0.826788 0.713816
vt 0.765625 0.505615
vt 0.627396 0.642535
vt 0.630615 0.593506
vt 0.703369 0.708740
vt 0.782227 0.013428
vt 0.794536 0.044858
vt 0.725586 0.018799
vt 0.992841 0.831494
vt 0.991211 0.912354
vt 0.974098 0.940289
vt 0.935547 0.894531
vt 0.901855 0.244141
vt 0.923828 0.261475
vt 0.907227 0.376953
vt 0.901367 0.201658
vt 0.507607 0.729675
vt 0.436107 0.666848
vt 0.505955 0.643613
vt 0.395660 0.633969
vt 0.364418 0.736697
vt 0.418709 0.585439
vt 0.484375 0.605469
vt 0.347443 0.518995
vt 0.299161 0.552102
vt 0.128906 0.629639
vt 0.168213 0.626953
vt 0.124282 0.659880
vt 0.060547 0.580322
vt 0.117669 0.782998
vt 0.166721 0.782418
vt 0.191406 0.671631
vt 0.226074 0.625000
vt 0.358398 0.935547
vt 0.344482 0.990967
vt 0.272949 0.997803
vt 0.612549 0.079590
vt 0.604750 0.009914
vt 0.641357 0.090088
vt 0.714969 0.861035
vt 0.789145 0.834177
vt 0.792757 0.907603
vt 0.702148 0.912598
vt 0.917549 0.909911
vt 0.915974 0.865329
vt 0.847192 0.805552
vt 0.172363 0.945801
vt 0.236572 0.992676
vt 0.184364 0.986232
vt 0.016602 0.205322
vt 0.056879 0.145988
vt 0.054597 0.214624
vt 0.119385 0.170654
vt 0.124199 0.123231
vt 0.096436 0.092529
vt 0.043213 0.103516
vt 0.506836 0.985107
vt 0.389687 0.995529
vt 0.386666 0.898997
vt 0.257324 0.004150
vt 0.297852 0.038330
vt 0.197021 0.041016
vt 0.718947 0.061157
vt 0.830155 0.090611
vt 0.740234 0.116699
vt 0.004150 0.011719
vt 0.043361 0.077763
vt 0.010728 0.122619
vt 0.876465 0.917480
vt 0.929932 0.917480
vt 0.920888 0.973431
vt 0.870554 0.987265
vt 0.804688 0.918945
vt 0.839111 0.997803
vt 0.760669 0.965648
vt 0.800804 0.929791
vt 0.431538 0.586788
vt 0.431032 0.501380
vt 0.527786 0.558509
vt 0.529356 0.489772
vt 0.575164 0.465415
vt 0.570444 0.559584
vt 0.670017 0.569171
vt 0.637451 0.797363
vt 0.671143 0.828125
vt 0.631751 0.925010
vt 0.649952 0.951597
vt 0.170166 0.072510
vt 0.107249 0.068535
vt 0.177179 0.035235
vt 0.107910 0.000977
vt 0.145508 0.008789
vt 0.178223 0.000244
vt 0.192383 0.020264
vt 0.854468 0.467333
vt 0.847412 0.384521
vt 0.909944 0.401760
vt 0.910856 0.432333
vt 0.909180 0.546875
vt 0.020078 0.881098
vt 0.137719 0.887767
vt 0.022336 0.918306
vt 0.138000 0.910511
vt 0.071533 0.832031
vt 0.168700 0.838003
vt 0.141113 0.815674
vt 0.021013 0.964600
vt 0.163783 0.965824
vt 0.020274 0.989014
vt 0.320288 0.407523
vt 0.393544 0.442329
vt 0.265381 0.491211
vt 0.345137 0.362555
vt 0.019850 0.762221
vt 0.057666 0.751147
vt 0.059658 0.817312
vt 0.019564 0.814991
vt 0.439850 0.855642
vt 0.597900 0.843750
vt 0.571032 0.887383
vt 0.438136 0.907351
vt 0.568709 0.949922
vt 0.856934 0.048828
vt 0.982178 0.010498
vt 0.953942 0.118608
vt 0.130596 0.578326
vt 0.087402 0.474609
vt 0.140299 0.418234
vt 0.778400 0.577528
vt 0.842714 0.608994
vt 0.738037 0.619873
vt 0.847925 0.643078
vt 0.868164 0.506104
vt 0.923828 0.578369
vt 0.915039 0.650146
vt 0.864758 0.745530
vt 0.494266 0.392248
vt 0.454590 0.393311
vt 0.444336 0.260498
vt 0.574952 0.337596
vt 0.410889 0.271484
vt 0.542084 0.236701
vt 0.476562 0.201172
vt 0.642966 0.232042
vt 0.603488 0.328155
vt 0.704834 0.339844
vt 0.748047 0.215332
vt 0.045394 0.466723
vt 0.058835 0.431439
vt 0.090088 0.447510
vt 0.074707 0.485596
vt 0.245887 0.506859
vt 0.197736 0.508407
vt 0.239743 0.485044
vt 0.292725 0.521484
vt 0.186436 0.449955
vt 0.226842 0.427251
vt 0.183435 0.428771
vt 0.652867 0.488753
vt 0.623861 0.483146
vt 0.655395 0.460689
vt 0.606751 0.448184
vt 0.728271 0.484375
vt 0.750977 0.434570
vt 0.620372 0.367597
vt 0.491629 0.461332
vt 0.415249 0.486866
vt 0.535420 0.387442
vt 0.551333 0.443208
vt 0.570707 0.368354
vt 0.869385 0.083496
vt 0.893311 0.098877
vt 0.881733 0.123506
vt 0.923828 0.210693
vt 0.290016 0.055308
vt 0.295898 0.087891
vt 0.187888 0.051963
vt 0.574707 0.175049
vt 0.512810 0.155813
vt 0.515705 0.109181
vt 0.468750 0.151367
vt 0.471680 0.101562
vt 0.998535 0.914307
vt 0.998535 0.997559
vt 0.962402 0.977539
vt 0.774658 0.694336
vt 0.820312 0.801758
vt 0.748291 0.688965
vt 0.701406 0.828051
vt 0.620221 0.745545
vt 0.648489 0.788274
vt 0.574707 0.786865
vt 0.028099 0.661048
vt 0.025879 0.633545
vt 0.035400 0.491943
vt 0.337158 0.013184
vt 0.470215 0.010498
vt 0.470215 0.068604
vt 0.346191 0.109131
vt 0.457275 0.121582
vt 0.239756 0.739904
vt 0.310975 0.746031
vt 0.250244 0.786377
vt 0.258032 0.693449
vt 0.834885 0.383191
vt 0.836182 0.489258
vt 0.730957 0.411621
vt 0.786934 0.360103
vt 0.729736 0.363770
vt 0.775818 0.311723
vt 0.736816 0.265381
vt 0.835693 0.235107
vt 0.110677 0.223036
vt 0.192172 0.241970
vt 0.124011 0.268362
vt 0.192943 0.339282
vt 0.093410 0.389183
vt 0.474609 0.077637
vt 0.495117 0.010498
vt 0.600098 0.036621
vt 0.426280 0.770381
vt 0.459961 0.743408
vt 0.471796 0.779486
vt 0.423001 0.799764
vt 0.362455 0.834679
vt 0.461998 0.816134
vt 0.481856 0.756768
vt 0.227488 0.798178
vt 0.293701 0.799561
vt 0.242563 0.911033
vt 0.329590 0.820312
vt 0.280564 0.921445
vt 0.371194 0.877239
vt 0.352380 0.929540
vt 0.212127 0.965798
vt 0.180064 0.847123
vt 0.209473 0.782227
vt 0.172422 0.798363
vt 0.345940 0.128275
vt 0.253304 0.216265
vt 0.211903 0.131468
vt 0.925761 0.656767
vt 0.994665 0.664381
vt 0.905180 0.726403
vt 0.993164 0.786377
s 1
usemtl m_cb4f93ad-a5a2-7784-f3b8-92c1f7cab8df
f 2/1/1 1/2/1 3/3/1
f 2/1/2 4/4/2 1/2/2
f 2/1/3 5/5/3 6/6/3
f 5/5/4 2/1/4 3/7/4
f 3/8/5 7/9/6 5/10/7
f 7/11/8 3/12/8 8/13/8
f 7/11/9 8/13/10 9/14/11
f 8/15/12 3/16/12 1/17/12
f 8/15/13 1/17/13 10/18/13
f 2/19/14 6/20/14 4/21/14
f 4/21/15 6/20/15 11/22/15
f 6/20/16 5/23/16 11/22/16
f 12/24/17 13/25/17 11/22/17
f 12/24/18 11/22/19 14/26/20
f 14/26/20 11/22/19 15/27/21
f 4/28/22 11/29/22 13/30/22
f 4/28/23 13/30/23 1/31/23
f 16/32/24 13/30/24 17/33/24
f 17/33/25 13/30/25 18/34/25
f 18/34/26 13/30/26 12/35/26
f 1/36/27 13/37/27 10/38/27
f 10/39/28 13/40/28 16/41/28
f 10/42/29 16/43/29 19/44/29
f 10/42/30 19/44/31 8/45/32
f 19/44/33 16/43/33 15/46/33
f 15/46/34 16/43/34 14/47/34
f 14/47/35 16/43/36 17/48/37
f 8/49/32 19/50/31 9/51/38
f 7/52/9 9/53/11 20/54/39
f 20/54/40 9/53/40 21/55/40
f 21/55/41 9/53/41 22/56/41
f 22/56/42 9/53/42 23/57/42
f 23/57/43 9/53/43 19/58/43
f 5/59/7 7/60/6 15/61/44
f 11/62/45 5/63/45 15/64/45
f 15/65/46 7/66/9 20/67/39
f 15/68/47 20/69/47 19/70/47
f 23/71/48 19/72/49 20/73/50
f 23/71/48 20/73/50 21/74/51
f 23/71/52 21/74/53 30/75/54
f 24/76/55 21/77/55 22/78/55
f 21/79/56 24/80/56 25/81/56
f 25/81/57 24/80/58 26/82/59
f 25/81/60 26/82/60 28/83/60
f 27/84/61 25/81/61 28/83/61
f 28/83/62 22/85/63 27/84/64
f 22/86/65 23/87/65 29/88/65
f 29/88/66 23/87/52 30/89/54
f 22/90/63 29/91/67 27/92/64
f 27/92/68 29/91/69 31/93/70
f 27/92/71 31/93/71 32/94/71
f 27/92/72 32/94/72 33/95/72
f 25/96/73 27/92/73 33/95/73
f 30/97/74 21/98/74 25/99/74
f 30/97/75 25/99/76 33/100/77
f 30/97/75 33/100/77 34/101/78
f 30/102/75 35/103/79 29/104/69
f 29/104/69 35/103/79 36/105/80
f 35/103/79 30/102/75 34/106/78
f 35/103/79 34/106/78 37/107/81
f 37/107/81 34/106/78 38/108/82
f 29/104/69 36/105/80 31/109/70
f 31/109/70 36/105/80 38/110/83
f 31/109/84 38/110/85 34/111/86
f 39/112/87 22/113/87 28/114/87
f 39/112/88 24/115/88 22/113/88
f 33/116/89 32/117/89 31/118/89
f 34/119/86 33/116/90 31/118/84
f 38/120/83 40/121/91 41/122/92
f 37/123/93 38/120/93 41/122/93
f 37/123/81 41/122/94 42/124/95
f 40/125/91 38/126/83 36/127/80
f 35/128/79 37/129/81 42/130/95
f 35/131/96 43/132/96 36/133/96
f 36/133/97 43/132/97 40/134/97
f 43/132/98 35/131/79 42/135/95
f 43/132/98 42/135/95 44/136/99
f 43/132/100 44/136/101 40/134/102
f 40/134/102 44/136/101 45/137/103
f 40/134/91 45/137/104 41/138/92
f 42/139/105 41/140/105 46/141/105
f 42/139/95 46/141/106 44/142/99
f 46/141/107 41/140/107 47/143/107
f 48/144/108 46/141/106 49/145/109
f 44/142/99 46/141/106 48/144/108
f 44/142/110 48/144/111 50/146/112
f 45/147/113 44/142/110 50/146/112
f 45/147/104 50/146/114 41/148/92
f 50/146/114 47/149/115 41/148/92
f 46/150/116 47/151/117 51/152/118
f 46/150/116 51/152/118 52/153/119
f 50/154/112 48/155/111 54/156/120
f 50/154/121 54/156/122 55/157/123
f 48/155/124 53/158/125 54/156/126
f 56/159/127 54/156/126 53/158/125
f 58/160/128 56/159/127 53/158/129
f 49/161/130 46/162/131 59/163/132
f 59/163/132 46/162/131 52/164/133
f 48/165/108 49/161/109 59/163/134
f 48/165/108 59/163/134 53/166/135
f 59/163/136 52/164/137 60/167/138
f 55/168/123 54/169/122 70/170/139
f 55/168/140 70/170/140 51/171/140
f 51/171/141 70/170/141 61/172/141
f 52/164/142 51/171/142 61/172/142
f 52/164/143 61/172/143 60/167/143
f 51/173/144 47/174/144 55/175/144
f 55/175/145 47/174/115 50/176/114
f 58/177/146 53/178/147 62/179/148
f 58/180/128 62/181/149 57/182/150
f 57/182/150 62/181/149 63/183/151
f 57/182/150 63/183/151 64/184/152
f 56/185/127 58/186/128 57/187/150
f 56/188/127 57/189/150 54/190/126
f 54/190/153 57/189/154 70/191/155
f 60/192/156 61/193/156 65/194/156
f 63/195/157 62/196/148 53/197/147
f 63/198/158 53/199/159 59/200/160
f 63/198/158 59/200/160 65/201/161
f 65/201/162 59/200/136 60/202/138
f 67/203/163 63/204/164 66/205/165
f 64/206/152 63/204/151 67/203/166
f 66/207/165 63/208/164 65/209/167
f 66/207/168 65/209/168 68/210/168
f 68/210/169 72/211/170 69/212/171
f 69/212/172 70/213/172 64/214/172
f 66/215/173 68/216/173 67/217/173
f 67/217/174 68/216/169 69/218/171
f 64/219/175 67/217/175 69/218/175
f 57/220/154 64/221/176 70/222/155
f 70/223/177 69/224/177 72/225/177
f 71/226/178 61/227/178 70/223/178
f 61/227/179 71/226/180 65/228/181
f 65/228/181 71/226/180 70/223/182
f 70/223/183 72/225/183 65/228/183
f 68/229/184 65/228/184 72/225/184
f 26/230/59 24/231/58 73/232/185
f 73/232/186 24/231/187 39/233/188
f 73/232/186 39/233/188 74/234/189
f 74/234/190 39/233/191 28/235/192
f 75/236/193 74/234/190 28/235/192
f 74/234/194 75/236/194 76/237/194
f 74/234/195 76/237/196 73/232/197
f 73/232/197 76/237/196 77/238/198
f 73/232/197 77/238/198 26/230/199
f 26/230/200 77/238/200 28/239/200
f 28/239/201 77/238/202 75/240/203
f 76/241/204 75/242/203 77/243/202
f 18/244/205 12/245/205 17/246/205
f 17/246/37 12/245/206 14/247/35
