# Blender 4.5.4 LTS
# www.blender.org
mtllib ai_model.mtl
o unknown
v 0.202869 -0.045722 -0.012936
v 0.035779 0.010023 0.191760
v 0.261208 0.061468 -0.173648
v 0.150443 0.126952 -0.200585
v 0.000002 0.077523 0.022354
v 0.240478 0.159642 -0.103822
v 0.114381 0.158904 0.106561
v 0.118777 0.224225 -0.056411
v 0.093663 0.101658 -0.059077
v 0.270817 0.152035 -0.266416
v 0.038656 0.401940 -0.081151
v 0.017633 0.240873 -0.076157
v 0.052020 0.287556 -0.199107
v 0.126262 0.331836 -0.159473
v 0.224966 0.208864 -0.196403
v 0.155348 0.157089 -0.251912
v 0.017244 0.368154 -0.273483
v -0.036902 0.336549 -0.135604
v 0.132996 0.395235 -0.249780
v 0.214896 0.320420 -0.361174
v 0.129659 0.330309 -0.269912
v 0.023466 0.441153 -0.220102
v -0.095808 0.309028 -0.014065
v -0.139560 0.284339 0.117695
v -0.101519 0.353368 0.197996
v -0.012063 0.329687 0.018369
v -0.025493 0.256544 -0.019806
v -0.145849 0.503181 -0.129446
v -0.109294 0.402455 -0.085905
v -0.033678 0.471527 -0.178628
v -0.250358 0.443111 0.031353
v 0.159354 0.447291 -0.419958
v 0.063429 0.481996 -0.317855
v 0.154824 0.418034 -0.357291
v -0.003735 0.209673 0.051361
v -0.063223 0.461895 -0.024773
v -0.118575 0.160440 0.098739
v -0.000897 0.230450 0.185760
v -0.244718 0.389389 0.082860
v -0.148732 0.460975 0.124653
v -0.265879 0.530927 0.111044
v -0.027264 0.543658 -0.100974
v -0.167099 0.502501 0.101308
v -0.024536 0.475358 -0.164044
v 0.006287 0.660417 -0.413167
v -0.024879 0.063416 0.243014
v -0.183523 0.209482 0.301098
v -0.262628 0.433364 0.206678
v -0.225085 0.580383 -0.002186
v -0.138908 0.566604 -0.099728
v -0.093714 0.619474 -0.228623
v -0.062128 0.679611 -0.333258
v -0.043534 0.623748 -0.321104
v -0.034340 0.571085 -0.262129
v -0.027873 0.630199 -0.312022
v -0.239792 -0.027418 -0.040763
v -0.040095 0.011631 0.197635
v -0.219331 0.196344 -0.139544
v -0.140538 0.160767 0.009670
v -0.090954 0.097072 -0.094889
v -0.000408 0.074039 0.024924
v -0.259451 0.148782 -0.270089
v -0.119620 0.192067 -0.196669
v -0.035096 0.340792 -0.037565
v 0.031707 0.329529 -0.121557
v -0.225347 0.200559 -0.221065
v -0.091248 0.425680 -0.219753
v -0.060852 0.409123 -0.266537
v -0.135245 0.367059 -0.304683
v 0.068377 0.326094 0.166858
v 0.063644 0.303894 -0.025503
v 0.152455 0.232047 0.096336
v 0.021230 0.485680 -0.166594
v 0.153616 0.478287 0.087905
v -0.001761 0.206083 0.053466
v 0.220446 0.442337 0.049879
v 0.273506 0.523830 0.126429
v 0.125914 0.513357 -0.110121
v 0.191705 0.221736 0.305608
v 0.032001 0.061796 0.237534
v 0.035906 0.625937 -0.315943
v 0.034756 0.570791 -0.262424
vn -0.5115 -0.6988 -0.5001
vn -0.1542 0.9815 0.1136
vn 0.9458 -0.0302 0.3232
vn 0.8555 0.0704 0.5130
vn 0.5858 0.7292 0.3537
vn 0.5483 0.7678 0.3313
vn 0.3215 -0.0864 0.9430
vn -0.2929 -0.7430 -0.6019
vn -0.2357 -0.6831 -0.6913
vn -0.2511 0.9636 -0.0919
vn 0.9806 0.0796 0.1792
vn 0.7686 -0.0404 0.6384
vn -0.7063 0.5936 0.3857
vn -0.6397 0.7561 0.1382
vn -0.6052 0.7942 0.0545
vn -0.5341 -0.8181 -0.2132
vn -0.4360 0.8660 -0.2448
vn -0.4205 0.8725 -0.2490
vn -0.7831 -0.4767 -0.3994
vn -0.7312 -0.5443 -0.4112
vn -0.7831 -0.4763 -0.3999
vn -0.7236 -0.5534 -0.4125
vn 0.6097 0.3800 -0.6956
vn 0.5254 0.1477 -0.8379
vn 0.5757 0.2777 -0.7691
vn 0.4617 0.0196 -0.8868
vn 0.7459 0.5929 0.3036
vn -0.1706 -0.4828 0.8590
vn -0.2959 -0.4847 0.8231
vn 0.7056 -0.6524 -0.2764
vn 0.5380 -0.8097 0.2343
vn -0.8061 -0.5498 -0.2189
vn -0.6452 -0.6496 -0.4023
vn -0.6497 -0.6324 -0.4218
vn 0.4905 0.3332 0.8052
vn -0.1827 0.0543 0.9817
vn -0.1888 0.0173 0.9819
vn 0.8267 0.4881 0.2800
vn 0.9634 -0.1893 -0.1898
vn -0.2753 -0.6466 -0.7114
vn 0.7686 0.4953 0.4050
vn 0.7643 0.4996 0.4077
vn 0.6089 0.7294 0.3117
vn 0.6056 0.7330 0.3097
vn 0.4248 0.8823 0.2026
vn 0.2153 0.5644 -0.7969
vn -0.9114 0.2907 -0.2913
vn -0.7238 -0.0683 -0.6866
vn -0.8030 -0.1919 -0.5642
vn -0.0034 -0.1038 -0.9946
vn 0.2711 -0.9584 -0.0896
vn 0.5558 -0.7421 0.3746
vn 0.2700 -0.9590 -0.0863
vn -0.9821 0.0954 0.1627
vn -0.7490 -0.4726 -0.4644
vn -0.7486 -0.4687 -0.4690
vn -0.5897 -0.3306 -0.7369
vn -0.4486 -0.2617 -0.8546
vn -0.7102 -0.4974 -0.4982
vn 0.4455 0.8304 0.3345
vn -0.9026 -0.1119 -0.4157
vn -0.7247 -0.4665 -0.5071
vn 0.9227 -0.3706 -0.1063
vn 0.9787 -0.1050 0.1764
vn 0.4336 0.8596 0.2703
vn 0.5374 0.7481 0.3892
vn 0.6344 0.6819 0.3642
vn -0.6951 0.2453 -0.6758
vn -0.9530 0.0171 0.3026
vn -0.6315 -0.7221 -0.2825
vn 0.9152 -0.1074 0.3884
vn -0.6963 -0.6208 -0.3603
vn 0.9738 0.1205 0.1927
vn -0.6450 -0.5222 -0.5580
vn -0.6074 -0.7196 -0.3365
vn 0.4920 0.2125 -0.8443
vn 0.6084 -0.0374 -0.7927
vn 0.4960 0.2128 -0.8419
vn 0.6346 -0.1175 -0.7639
vn 0.7483 0.5837 0.3151
vn 0.5304 0.5022 -0.6830
vn 0.7745 0.6188 0.1311
vn 0.8944 -0.0121 0.4470
vn 0.5913 0.6125 0.5246
vn 0.4508 0.6323 0.6301
vn 0.2870 0.6223 0.7283
vn 0.6718 0.5953 0.4409
vn 0.6122 0.7067 0.3547
vn 0.6254 0.5017 0.5976
vn 0.6273 0.6046 0.4908
vn -0.4938 0.8241 -0.2775
vn -0.7784 0.6213 0.0901
vn -0.5034 0.8089 -0.3038
vn -0.7974 -0.0026 0.6034
vn 0.2436 0.2243 -0.9436
vn 0.6091 0.3806 0.6958
vn 0.7869 0.1985 0.5843
vn 0.4751 0.7384 0.4786
vn 0.5402 0.6696 0.5097
vn 0.2245 -0.8583 0.4614
vn 0.2499 -0.7816 0.5716
vn -0.6366 -0.4889 -0.5964
vn -0.7523 0.6042 -0.2626
vn -0.8231 -0.0816 -0.5620
vn -0.5775 0.6664 -0.4715
vn 0.1307 0.6754 -0.7258
vn 0.6252 0.7798 0.0334
vn 0.8680 0.3552 -0.3471
vn 0.7492 0.6060 0.2673
vn 0.6728 0.7280 0.1319
vn 0.7689 0.5558 0.3160
vn -0.3693 0.8875 -0.2755
vn 0.7982 0.4321 0.4198
vn -0.6650 -0.5222 -0.5339
vn -0.7575 0.5654 0.3263
vn -0.7831 0.0027 -0.6219
vn -0.5415 -0.4585 -0.7047
vn -0.6853 -0.7269 -0.0438
vn 0.6794 -0.3233 -0.6587
vn 0.5038 0.2145 0.8368
vn 0.4813 0.3125 0.8189
vn 0.2711 0.4538 0.8489
vn -0.9407 -0.3390 -0.0157
vn -0.8601 -0.4849 -0.1585
vn -0.7987 0.4075 0.4428
vn -0.9870 -0.1282 -0.0972
vn -0.2743 0.6685 0.6913
vn -0.5527 0.8319 -0.0485
vn -0.7524 -0.6548 -0.0712
vn -0.6680 0.3744 -0.6431
vn 0.1940 0.9264 0.3226
vn 0.4976 0.8038 0.3261
vn -0.7376 -0.4648 -0.4898
vn 0.8502 -0.2341 -0.4715
vn 0.6605 0.5474 0.5140
vn -0.5757 0.5632 0.5927
vn 0.5757 -0.5632 -0.5927
vn 0.3625 0.6585 0.6595
vn -0.9118 0.2327 0.3383
vn -0.8837 0.2539 0.3932
vn -0.8140 0.2953 0.5002
vn 0.4507 -0.7496 -0.4847
vn -0.9561 0.1871 0.2257
vn -0.1331 0.9437 -0.3029
vn 0.3863 -0.7151 -0.5826
vn 0.5154 -0.5492 -0.6578
vn 0.4309 -0.8758 -0.2175
vn 0.4526 0.8004 0.3932
vn 0.5026 0.8446 0.1847
vn 0.5233 0.8515 0.0341
vn -0.7630 0.2417 0.5995
vn 0.5294 0.8125 -0.2439
vn -0.6894 0.5326 0.4910
vn 0.6828 -0.4282 -0.5920
vn -0.0693 -0.9965 -0.0464
vn -0.8559 0.5093 0.0895
vn -0.6909 0.5500 0.4692
vn 0.7231 -0.3108 0.6168
vn 0.7735 -0.3076 0.5542
vn 0.6067 -0.5938 -0.5285
vn 0.1845 -0.3461 -0.9199
vn 0.6669 -0.3858 -0.6375
vn -0.8557 0.5092 0.0918
vn -0.3601 -0.9257 0.1157
vn -0.7041 -0.7033 0.0985
vn -0.6963 0.6090 0.3799
vn -0.5995 0.7295 0.3293
vn -0.5889 0.7388 0.3276
vn -0.5788 0.6562 0.4841
vn -0.2397 0.8557 -0.4586
vn -0.2456 0.8526 -0.4613
vn 0.1163 0.5757 0.8094
vn -0.7060 -0.5081 -0.4934
vn 0.5922 -0.7074 -0.3857
vn -0.6980 0.5965 0.3962
vn 0.6418 -0.3574 -0.6785
vn 0.9022 -0.3480 -0.2549
vn 0.7076 -0.5879 -0.3921
vn 0.4873 0.7080 -0.5112
vn 0.2951 0.8969 -0.3293
vn -0.0338 0.6959 -0.7174
vn 0.7355 -0.3405 -0.5857
vn 0.8380 -0.0952 -0.5373
vn 0.6573 -0.1670 -0.7349
vn 0.5064 -0.2074 -0.8370
vn 0.6935 -0.1552 -0.7036
vn 0.8084 -0.1124 -0.5778
vn -0.6015 0.2826 0.7472
vn -0.6991 -0.0934 -0.7089
vn 0.7326 -0.6592 -0.1699
vn 0.9138 -0.3596 -0.1891
vn -0.3789 0.5459 0.7473
vn -0.4418 0.5955 0.6709
vn -0.3546 0.9109 0.2109
vt 0.784424 0.221924
vt 0.660417 0.226966
vt 0.751953 0.158936
vt 0.778320 0.184570
vt 0.748446 0.306415
vt 0.626317 0.353878
vt 0.588867 0.282959
vt 0.588645 0.402822
vt 0.544534 0.400463
vt 0.071533 0.521729
vt 0.151611 0.490479
vt 0.139346 0.593134
vt 0.061523 0.587158
vt 0.115479 0.689697
vt 0.086182 0.667969
vt 0.339245 0.512521
vt 0.381730 0.433463
vt 0.478654 0.524796
vt 0.176300 0.524332
vt 0.280733 0.463985
vt 0.244783 0.636275
vt 0.174747 0.262628
vt 0.148926 0.204590
vt 0.317544 0.251969
vt 0.280657 0.401358
vt 0.831792 0.682267
vt 0.750387 0.709294
vt 0.736919 0.590838
vt 0.844945 0.588522
vt 0.975704 0.975318
vt 0.910010 0.916077
vt 0.982666 0.864014
vt 0.931967 0.649830
vt 0.862791 0.647017
vt 0.925293 0.615723
vt 0.826169 0.721421
vt 0.903643 0.748279
vt 0.887451 0.775391
vt 0.310231 0.154975
vt 0.250870 0.125226
vt 0.309974 0.066175
vt 0.362549 0.106445
vt 0.225098 0.069824
vt 0.162530 0.077231
vt 0.183295 0.133832
vt 0.172607 0.747559
vt 0.214432 0.789779
vt 0.146973 0.841797
vt 0.232476 0.682845
vt 0.290939 0.775506
vt 0.246896 0.867545
vt 0.493209 0.708245
vt 0.567304 0.673739
vt 0.563721 0.776855
vt 0.639182 0.662046
vt 0.695784 0.778549
vt 0.989258 0.838623
vt 0.941162 0.854248
vt 0.942139 0.825439
vt 0.094729 0.488131
vt 0.033011 0.511043
vt 0.067688 0.405846
vt 0.003708 0.458719
vt 0.640381 0.783203
vt 0.596169 0.834772
vt 0.560492 0.795747
vt 0.519248 0.863356
vt 0.262939 0.007568
vt 0.180176 0.034424
vt 0.175293 0.007812
vt 0.716027 0.082318
vt 0.785122 0.076098
vt 0.811139 0.125068
vt 0.683790 0.108088
vt 0.848980 0.060099
vt 0.859900 0.089877
vt 0.651543 0.920583
vt 0.698045 0.941768
vt 0.667480 0.975342
vt 0.717347 0.911558
vt 0.803130 0.914446
vt 0.806885 0.969482
vt 0.751797 0.973497
vt 0.840369 0.980731
vt 0.817627 0.488770
vt 0.766590 0.344238
vt 0.821301 0.389286
vt 0.064032 0.210732
vt 0.090332 0.236328
vt 0.016728 0.295294
vt 0.016846 0.254150
vt 0.037109 0.195557
vt 0.000488 0.184570
vt 0.626221 0.014648
vt 0.676066 0.006024
vt 0.638184 0.024170
vt 0.735107 0.020020
vt 0.065723 0.673674
vt 0.023625 0.631424
vt 0.075379 0.609790
vt 0.015503 0.573419
vt 0.991204 0.626178
vt 0.941406 0.646484
vt 0.943910 0.612643
vt 0.282471 0.015869
vt 0.345966 0.011349
vt 0.367048 0.041715
vt 0.330322 0.071777
vt 0.378719 0.109162
vt 0.418213 0.000488
vt 0.124756 0.034424
vt 0.059570 0.034424
vt 0.062256 0.010742
vt 0.406748 0.023512
vt 0.419434 0.010498
vt 0.527344 0.029541
vt 0.501465 0.009521
vt 0.433816 0.709538
vt 0.371874 0.652690
vt 0.448730 0.675293
vt 0.001465 0.810791
vt 0.050289 0.838801
vt 0.017090 0.900391
vt 0.038330 0.880615
vt 0.983164 0.057968
vt 0.993408 0.065918
vt 0.943604 0.157715
vt 0.370252 0.837315
vt 0.449982 0.794236
vt 0.528809 0.807129
vt 0.491211 0.073486
vt 0.387207 0.045654
vt 0.513672 0.046387
vt 0.476562 0.106445
vt 0.659828 0.082911
vt 0.596864 0.133169
vt 0.174635 0.311631
vt 0.215284 0.387364
vt 0.097718 0.356850
vt 0.119621 0.432350
vt 0.094405 0.257124
vt 0.019287 0.024170
vt 0.056641 0.012207
vt 0.051514 0.034180
vt 0.886026 0.812241
vt 0.863037 0.780029
vt 0.942657 0.806081
vt 0.939861 0.876272
vt 0.879996 0.878503
vt 0.870850 0.922852
vt 0.145523 0.769626
vt 0.125018 0.791818
vt 0.109536 0.745912
vt 0.074015 0.792491
vt 0.082331 0.712732
vt 0.172200 0.706288
vt 0.157715 0.143311
vt 0.130103 0.214277
vt 0.118106 0.114255
vt 0.091064 0.227295
vt 0.895264 0.305176
vt 0.820557 0.311768
vt 0.816895 0.304688
vt 0.047363 0.175781
vt 0.005342 0.104497
vt 0.048767 0.095595
vt 0.355511 0.324037
vt 0.489864 0.237654
vt 0.578293 0.264164
vt 0.411566 0.143928
vt 0.910400 0.335693
vt 0.915885 0.434553
vt 0.827393 0.318604
vt 0.688518 0.482960
vt 0.666016 0.594238
vt 0.600077 0.540641
vt 0.583008 0.441631
vt 0.688444 0.355807
vt 0.733887 0.395264
vt 0.634169 0.914090
vt 0.585540 0.999475
vt 0.543696 0.898869
vt 0.499032 0.089318
vt 0.442749 0.116939
vt 0.390625 0.052979
vt 0.391138 0.116588
vt 0.071702 0.886247
vt 0.118162 0.935328
vt 0.019541 0.918263
vt 0.949219 0.432373
vt 0.986034 0.466232
vt 0.899902 0.491943
vt 0.948502 0.528687
vt 0.571661 0.036521
vt 0.510254 0.007080
vt 0.604492 0.005615
vt 0.991455 0.544678
vt 0.975126 0.583048
vt 0.912590 0.571109
vt 0.974609 0.536621
vt 0.023926 0.722412
vt 0.015137 0.703369
vt 0.078613 0.707031
vt 0.968750 0.299072
vt 0.922671 0.293727
vt 0.969238 0.287842
vt 0.931396 1.000000
vt 0.876953 1.000000
vt 0.930664 0.990479
vt 0.397391 0.933447
vt 0.469971 0.979980
vt 0.308838 0.979980
vt 0.680553 0.243812
vt 0.772359 0.178774
vt 0.607760 0.367073
vt 0.122326 0.501907
vt 0.139345 0.593135
vt 0.353184 0.516604
vt 0.384752 0.434505
vt 0.472725 0.570637
vt 0.483124 0.490240
vt 0.176337 0.524881
vt 0.280733 0.463986
vt 0.244783 0.636275
vt 0.174329 0.262508
vt 0.317327 0.251938
vt 0.280657 0.401358
vt 0.813387 0.688378
vt 0.736955 0.590855
vt 0.844945 0.588522
vt 0.975704 0.975318
vt 0.908887 0.916313
vt 0.810547 0.729980
vt 0.860587 0.726448
vt 0.310790 0.150058
vt 0.252483 0.139902
vt 0.338388 0.087939
vt 0.174058 0.100787
vt 0.166520 0.830197
vt 0.219129 0.686269
vt 0.290759 0.774677
vt 0.246896 0.867545
vt 0.453613 0.694336
vt 0.608760 0.682966
vt 0.559718 0.763667
vt 0.094729 0.488131
vt 0.019220 0.470566
vt 0.067482 0.405762
vt 0.716027 0.082317
vt 0.843829 0.077091
vt 0.807001 0.127565
vt 0.683790 0.108088
vt 0.668720 0.923168
vt 0.698045 0.941769
vt 0.803130 0.914446
vt 0.811068 0.967940
vt 0.751465 0.951660
vt 0.752197 0.999756
vt 0.817624 0.488858
vt 0.752631 0.391468
vt 0.791499 0.308277
vt 0.991036 0.623997
vt 0.943910 0.612643
vt 0.366812 0.026137
vt 0.352035 0.069756
vt 0.406748 0.023512
vt 0.511032 0.016922
vt 0.983164 0.057968
vt 0.364705 0.831189
vt 0.449982 0.794236
vt 0.662711 0.086557
vt 0.604752 0.136478
vt 0.624512 0.071289
vt 0.185684 0.332216
vt 0.109333 0.367688
vt 0.091428 0.258408
vt 0.158645 0.714859
vt 0.140387 0.775215
vt 0.073989 0.792324
vt 0.061548 0.720595
vt 0.355512 0.324037
vt 0.489804 0.240096
vt 0.580148 0.252060
vt 0.411566 0.143928
vt 0.915885 0.434553
vt 0.678657 0.483882
vt 0.628551 0.563785
vt 0.582915 0.438354
vt 0.697342 0.363535
vt 0.607178 1.000000
vt 0.486328 0.997070
vt 0.622802 0.915851
vt 0.480158 0.091029
vt 0.442749 0.116939
vt 0.390992 0.098434
vt 0.103234 0.932391
vt 0.138475 0.939324
vt 0.071289 0.993408
s 1
usemtl m_92b34544-b782-2ffb-5deb-06d8be373604
f 4/1/1 1/2/1 5/3/1
f 4/1/2 5/3/2 9/4/2
f 1/2/3 3/5/3 6/6/3
f 1/2/4 6/6/5 7/7/6
f 6/6/7 8/8/7 9/9/7
f 3/10/8 1/11/8 4/12/8
f 3/10/9 4/12/9 10/13/9
f 4/12/10 6/14/10 10/15/10
f 3/16/11 10/17/11 6/18/11
f 2/19/12 1/20/12 7/21/12
f 2/22/13 7/23/14 5/24/15
f 2/22/16 5/24/16 1/25/16
f 9/26/17 5/27/15 7/28/14
f 9/26/18 7/28/6 6/29/5
f 4/30/19 9/31/19 12/32/19
f 13/33/20 4/34/21 12/35/22
f 4/34/23 13/33/24 6/36/25
f 6/36/25 13/33/24 14/37/26
f 6/36/27 14/37/27 11/38/27
f 14/39/28 13/40/28 16/41/28
f 14/39/29 16/41/30 15/42/31
f 16/41/32 13/40/32 17/43/32
f 17/43/33 13/40/33 18/44/33
f 18/44/34 13/40/20 12/45/22
f 11/46/35 8/47/35 6/48/35
f 8/47/36 11/49/36 12/50/36
f 8/47/37 12/50/37 9/51/37
f 19/52/38 15/53/31 20/54/39
f 15/53/31 16/55/30 21/56/40
f 15/57/41 19/58/41 14/59/41
f 14/60/42 19/61/43 11/62/44
f 11/62/44 19/61/43 22/63/45
f 21/64/46 17/65/46 22/66/46
f 17/65/47 18/67/48 22/66/49
f 16/68/50 17/69/50 21/70/50
f 24/71/51 23/72/51 26/73/51
f 24/71/52 26/73/52 25/74/52
f 26/73/53 23/72/53 18/75/53
f 27/76/54 26/73/54 18/75/54
f 18/77/55 29/78/55 28/79/55
f 29/78/56 18/77/56 23/80/56
f 18/81/48 30/82/57 22/83/49
f 30/82/57 18/81/48 28/84/58
f 32/85/59 22/86/60 33/87/61
f 21/88/62 22/89/62 32/90/62
f 21/88/63 32/90/63 34/91/63
f 21/88/64 34/91/64 19/92/64
f 19/92/65 34/91/66 22/93/60
f 32/94/67 33/95/67 34/96/67
f 34/96/66 33/95/61 22/97/60
f 19/98/68 20/99/68 21/100/68
f 21/100/40 20/99/39 15/101/31
f 35/102/69 26/103/69 27/104/69
f 35/105/70 27/106/70 12/107/70
f 26/108/71 12/107/71 11/109/71
f 12/107/72 27/106/72 18/110/72
f 35/111/73 12/112/73 26/113/73
f 29/114/74 23/115/74 39/116/74
f 39/116/75 23/115/75 24/117/75
f 24/118/76 37/119/76 39/120/76
f 37/121/77 24/122/78 38/123/79
f 38/123/80 24/122/81 25/124/82
f 26/125/83 11/126/83 25/127/83
f 25/128/84 40/129/85 41/130/86
f 25/131/84 11/132/87 40/133/85
f 40/134/88 11/135/89 36/136/90
f 40/137/91 36/138/92 39/139/93
f 39/139/93 36/138/92 29/140/94
f 40/137/95 39/139/95 41/141/95
f 36/142/90 11/143/89 42/144/96
f 36/145/97 42/146/98 43/147/99
f 36/145/100 43/147/100 31/148/100
f 36/145/92 31/148/101 29/149/94
f 29/149/102 31/148/103 28/150/104
f 50/151/105 42/152/106 44/153/107
f 44/153/108 42/152/108 11/154/108
f 44/153/109 11/154/110 22/155/111
f 50/151/105 44/153/107 51/156/112
f 44/157/109 22/158/111 45/159/113
f 30/160/57 45/159/114 22/158/49
f 45/161/115 30/162/115 44/163/115
f 28/164/116 51/165/112 30/166/117
f 37/167/118 46/168/118 47/169/118
f 38/170/79 46/168/119 37/167/77
f 46/171/120 38/172/120 47/173/120
f 47/174/121 38/175/80 25/176/82
f 47/174/122 25/176/122 48/177/122
f 47/174/123 48/177/123 39/178/123
f 47/174/124 39/178/124 37/179/124
f 41/180/125 39/181/126 48/182/127
f 31/183/103 43/184/128 28/185/104
f 28/185/129 43/184/129 49/186/129
f 50/187/105 28/188/116 49/189/130
f 42/190/98 50/191/131 43/192/99
f 43/192/132 50/191/132 49/193/132
f 51/194/112 28/195/116 50/196/105
f 30/197/117 51/198/112 52/199/133
f 30/197/134 52/199/134 44/200/134
f 51/201/112 44/202/107 52/203/135
f 53/204/136 54/205/136 55/206/136
f 55/207/137 54/208/137 53/209/137
f 48/210/127 25/211/138 41/212/125
f 58/1/139 56/213/140 59/214/141
f 56/213/142 60/215/142 61/7/142
f 56/216/140 58/217/139 62/13/143
f 58/217/144 63/14/144 62/15/144
f 56/218/145 62/219/145 60/220/145
f 60/220/146 62/219/146 63/221/146
f 57/222/147 56/223/147 61/224/147
f 57/225/148 61/23/149 59/226/150
f 57/225/151 59/226/151 56/227/151
f 59/228/150 61/229/149 60/230/152
f 58/231/153 59/232/153 64/32/153
f 60/233/154 63/234/154 65/38/154
f 63/235/155 58/236/155 66/237/155
f 66/237/156 58/236/156 67/43/156
f 67/43/157 58/236/157 64/238/157
f 60/239/158 65/240/158 64/241/158
f 60/239/159 64/241/159 59/242/159
f 68/243/160 66/244/160 69/245/160
f 66/57/161 68/58/161 63/59/161
f 63/246/162 68/247/162 65/248/162
f 66/68/163 67/69/163 69/70/163
f 70/249/164 64/250/164 71/251/164
f 70/249/165 71/251/165 72/252/165
f 64/253/166 74/254/167 73/79/168
f 64/255/169 73/256/169 67/257/169
f 67/257/170 73/256/170 68/258/170
f 69/259/171 67/260/171 68/261/171
f 75/262/172 71/103/172 64/263/172
f 75/105/173 64/264/173 65/265/173
f 75/111/174 65/112/174 71/113/174
f 74/266/175 64/115/175 70/267/175
f 71/268/176 76/126/176 72/127/176
f 72/269/177 76/270/177 77/130/177
f 65/271/178 76/272/178 71/273/178
f 76/274/179 74/275/180 77/276/181
f 76/142/179 65/143/182 78/144/183
f 73/277/184 78/278/185 65/279/186
f 73/277/184 65/279/186 68/280/187
f 70/281/188 80/282/188 79/283/188
f 72/284/189 80/282/189 70/281/189
f 80/171/190 72/285/190 79/173/190
f 79/286/191 72/287/191 77/288/191
f 79/286/192 77/288/192 70/289/192
f 74/290/193 70/291/193 77/292/193
f 74/293/180 76/294/179 78/295/183
f 78/296/194 73/297/168 74/298/167
l 81 82
